G04 EAGLE Gerber RS-274X export*
G75*
%MOMM*%
%FSLAX34Y34*%
%LPD*%
%INBottom Copper*%
%IPPOS*%
%AMOC8*
5,1,8,0,0,1.08239X$1,22.5*%
G01*
G04 Define Apertures*
%ADD10C,1.782000*%
%ADD11C,3.657600*%
%ADD12R,1.300000X0.300000*%
%ADD13R,2.200000X1.800000*%
%ADD14R,1.890000X1.890000*%
%ADD15C,1.890000*%
%ADD16C,2.880000*%
%ADD17C,3.420000*%
%ADD18C,0.502400*%
%ADD19C,0.304800*%
%ADD20C,0.508000*%
%ADD21C,0.152400*%
%ADD22C,0.609600*%
G36*
X879979Y451640D02*
X879682Y451580D01*
X4026Y451580D01*
X3753Y451631D01*
X3497Y451793D01*
X3325Y452043D01*
X3264Y452340D01*
X2006Y997236D01*
X2058Y997513D01*
X2221Y997768D01*
X2471Y997940D01*
X2768Y998000D01*
X878424Y998000D01*
X878697Y997949D01*
X878953Y997787D01*
X879125Y997537D01*
X879186Y997240D01*
X880444Y452344D01*
X880392Y452067D01*
X880229Y451812D01*
X879979Y451640D01*
G37*
%LPC*%
G36*
X573743Y942368D02*
X576877Y942368D01*
X579092Y944583D01*
X579092Y945665D01*
X579148Y945951D01*
X579315Y946204D01*
X583184Y950073D01*
X583184Y984146D01*
X583240Y984432D01*
X583407Y984685D01*
X584172Y985449D01*
X584172Y988583D01*
X581957Y990798D01*
X578823Y990798D01*
X576608Y988583D01*
X576608Y985449D01*
X577373Y984685D01*
X577536Y984443D01*
X577596Y984146D01*
X577596Y952703D01*
X577540Y952417D01*
X577373Y952164D01*
X575364Y950155D01*
X575122Y949992D01*
X574825Y949932D01*
X573743Y949932D01*
X571528Y947717D01*
X571528Y944583D01*
X573743Y942368D01*
G37*
G36*
X254973Y941098D02*
X258107Y941098D01*
X260322Y943313D01*
X260322Y946447D01*
X259557Y947211D01*
X259394Y947453D01*
X259334Y947750D01*
X259334Y980237D01*
X259390Y980523D01*
X259557Y980776D01*
X260296Y981515D01*
X260538Y981678D01*
X260835Y981738D01*
X261917Y981738D01*
X264132Y983953D01*
X264132Y987087D01*
X261917Y989302D01*
X258783Y989302D01*
X256568Y987087D01*
X256568Y986005D01*
X256512Y985719D01*
X256345Y985466D01*
X253746Y982867D01*
X253746Y947750D01*
X253690Y947464D01*
X253523Y947211D01*
X252758Y946447D01*
X252758Y943313D01*
X254973Y941098D01*
G37*
G36*
X848544Y967180D02*
X868496Y967180D01*
X869240Y967924D01*
X869240Y987876D01*
X868496Y988620D01*
X848544Y988620D01*
X847800Y987876D01*
X847800Y967924D01*
X848544Y967180D01*
G37*
G36*
X465271Y486946D02*
X692396Y486946D01*
X777748Y572298D01*
X777748Y727553D01*
X720403Y784898D01*
X720240Y785140D01*
X720180Y785437D01*
X720180Y785996D01*
X720087Y786132D01*
X720022Y786428D01*
X720077Y786726D01*
X720180Y786881D01*
X720180Y790384D01*
X720231Y790659D01*
X720395Y790914D01*
X720645Y791086D01*
X720942Y791146D01*
X763127Y791146D01*
X766806Y794825D01*
X767048Y794988D01*
X767345Y795048D01*
X768647Y795048D01*
X770862Y797263D01*
X770862Y800397D01*
X768647Y802612D01*
X765513Y802612D01*
X764859Y801957D01*
X764617Y801794D01*
X764320Y801734D01*
X722212Y801734D01*
X721937Y801785D01*
X721682Y801949D01*
X721510Y802199D01*
X721461Y802440D01*
X703370Y802440D01*
X703370Y801388D01*
X704417Y800341D01*
X704580Y800100D01*
X704640Y799802D01*
X704640Y796884D01*
X704733Y796748D01*
X704798Y796452D01*
X704743Y796154D01*
X704640Y795999D01*
X704640Y791884D01*
X704733Y791748D01*
X704798Y791452D01*
X704743Y791154D01*
X704640Y790999D01*
X704640Y786884D01*
X704733Y786748D01*
X704798Y786452D01*
X704743Y786154D01*
X704640Y785999D01*
X704640Y781884D01*
X704733Y781748D01*
X704798Y781452D01*
X704743Y781154D01*
X704640Y780999D01*
X704640Y776884D01*
X704733Y776748D01*
X704798Y776452D01*
X704743Y776154D01*
X704640Y775999D01*
X704640Y771884D01*
X704733Y771748D01*
X704798Y771452D01*
X704743Y771154D01*
X704640Y770999D01*
X704640Y766884D01*
X704733Y766748D01*
X704798Y766452D01*
X704743Y766154D01*
X704640Y765999D01*
X704640Y761884D01*
X704733Y761748D01*
X704798Y761452D01*
X704743Y761154D01*
X704640Y760999D01*
X704640Y756734D01*
X704589Y756459D01*
X704425Y756204D01*
X704175Y756032D01*
X703878Y755972D01*
X702637Y755972D01*
X702351Y756028D01*
X702099Y756195D01*
X696945Y761349D01*
X696782Y761590D01*
X696722Y761887D01*
X696722Y828153D01*
X696778Y828439D01*
X696945Y828692D01*
X729599Y861345D01*
X729840Y861508D01*
X730137Y861568D01*
X746332Y861568D01*
X762762Y877998D01*
X762762Y897156D01*
X762813Y897431D01*
X762977Y897686D01*
X763227Y897858D01*
X763524Y897918D01*
X763567Y897918D01*
X765782Y900133D01*
X765782Y903267D01*
X763567Y905482D01*
X760433Y905482D01*
X758218Y903267D01*
X758218Y900133D01*
X758475Y899877D01*
X758638Y899635D01*
X758698Y899338D01*
X758698Y879997D01*
X758642Y879711D01*
X758475Y879459D01*
X756923Y877907D01*
X756703Y877754D01*
X756408Y877684D01*
X756109Y877735D01*
X755854Y877898D01*
X755682Y878148D01*
X755622Y878445D01*
X755622Y881677D01*
X753407Y883892D01*
X750273Y883892D01*
X748058Y881677D01*
X748058Y880595D01*
X748002Y880309D01*
X747835Y880056D01*
X740746Y872967D01*
X740504Y872804D01*
X740207Y872744D01*
X730072Y872744D01*
X729809Y872791D01*
X729551Y872950D01*
X729375Y873198D01*
X729310Y873494D01*
X729366Y873792D01*
X729533Y874045D01*
X730222Y874733D01*
X730222Y877867D01*
X728007Y880082D01*
X724873Y880082D01*
X724411Y879619D01*
X724191Y879466D01*
X723896Y879397D01*
X723597Y879447D01*
X723342Y879611D01*
X723170Y879861D01*
X723110Y880158D01*
X723110Y919296D01*
X723166Y919582D01*
X723333Y919835D01*
X724098Y920599D01*
X724098Y923733D01*
X723333Y924497D01*
X723170Y924739D01*
X723110Y925036D01*
X723110Y977445D01*
X723107Y977448D01*
X722944Y977690D01*
X722884Y977987D01*
X722884Y978840D01*
X722940Y979126D01*
X723107Y979379D01*
X723872Y980143D01*
X723872Y983277D01*
X721657Y985492D01*
X718523Y985492D01*
X716308Y983277D01*
X716308Y980143D01*
X717073Y979379D01*
X717236Y979137D01*
X717296Y978840D01*
X717296Y978634D01*
X717245Y978359D01*
X717081Y978104D01*
X716831Y977932D01*
X716534Y977872D01*
X713443Y977872D01*
X711228Y975657D01*
X711228Y972523D01*
X711993Y971759D01*
X712156Y971517D01*
X712216Y971220D01*
X712216Y919810D01*
X712160Y919524D01*
X711993Y919271D01*
X711228Y918507D01*
X711228Y915373D01*
X711993Y914609D01*
X712156Y914367D01*
X712216Y914070D01*
X712216Y882058D01*
X712160Y881772D01*
X711993Y881520D01*
X706154Y875681D01*
X705913Y875518D01*
X705616Y875458D01*
X703736Y875458D01*
X703450Y875514D01*
X703197Y875681D01*
X702433Y876446D01*
X699299Y876446D01*
X697084Y874231D01*
X697084Y873680D01*
X697033Y873405D01*
X696869Y873150D01*
X696619Y872978D01*
X696322Y872918D01*
X635287Y872918D01*
X515956Y753587D01*
X515714Y753424D01*
X515417Y753364D01*
X495630Y753364D01*
X495344Y753420D01*
X495091Y753587D01*
X494327Y754352D01*
X491193Y754352D01*
X489159Y752317D01*
X488917Y752154D01*
X488620Y752094D01*
X183210Y752094D01*
X182924Y752150D01*
X182671Y752317D01*
X181907Y753082D01*
X178773Y753082D01*
X176558Y750867D01*
X176558Y749785D01*
X176502Y749499D01*
X176335Y749246D01*
X122936Y695847D01*
X122936Y642950D01*
X122880Y642664D01*
X122713Y642411D01*
X121948Y641647D01*
X121948Y638513D01*
X124288Y636174D01*
X124446Y635943D01*
X124511Y635647D01*
X124455Y635349D01*
X124288Y635096D01*
X121948Y632757D01*
X121948Y629623D01*
X124163Y627408D01*
X127297Y627408D01*
X128061Y628173D01*
X128303Y628336D01*
X128600Y628396D01*
X142037Y628396D01*
X142323Y628340D01*
X142576Y628173D01*
X221093Y549656D01*
X305740Y549656D01*
X306026Y549600D01*
X306279Y549433D01*
X307043Y548668D01*
X310177Y548668D01*
X312392Y550883D01*
X312392Y554017D01*
X310177Y556232D01*
X307043Y556232D01*
X306279Y555467D01*
X306037Y555304D01*
X305740Y555244D01*
X296875Y555244D01*
X296612Y555291D01*
X296354Y555450D01*
X296178Y555698D01*
X296113Y555994D01*
X296169Y556292D01*
X296336Y556545D01*
X312366Y572575D01*
X312608Y572738D01*
X312905Y572798D01*
X313987Y572798D01*
X316202Y575013D01*
X316202Y578147D01*
X313987Y580362D01*
X310853Y580362D01*
X308638Y578147D01*
X308638Y577065D01*
X308582Y576779D01*
X308415Y576526D01*
X292436Y560547D01*
X292194Y560384D01*
X291897Y560324D01*
X224993Y560324D01*
X224707Y560380D01*
X224454Y560547D01*
X144975Y640026D01*
X144812Y640268D01*
X144752Y640565D01*
X144752Y641647D01*
X142412Y643986D01*
X142254Y644217D01*
X142189Y644513D01*
X142245Y644811D01*
X142412Y645064D01*
X143301Y645953D01*
X143543Y646116D01*
X143840Y646176D01*
X180227Y646176D01*
X256486Y722435D01*
X256728Y722598D01*
X257025Y722658D01*
X258107Y722658D01*
X260322Y724873D01*
X260322Y728007D01*
X258107Y730222D01*
X254973Y730222D01*
X252758Y728007D01*
X252758Y726925D01*
X252702Y726639D01*
X252535Y726386D01*
X178136Y651987D01*
X177894Y651824D01*
X177597Y651764D01*
X143840Y651764D01*
X143554Y651820D01*
X143301Y651987D01*
X142537Y652752D01*
X139403Y652752D01*
X137188Y650537D01*
X137188Y647403D01*
X139528Y645064D01*
X139686Y644833D01*
X139751Y644537D01*
X139695Y644239D01*
X139528Y643986D01*
X137188Y641647D01*
X137188Y638513D01*
X139403Y636298D01*
X140485Y636298D01*
X140771Y636242D01*
X141024Y636075D01*
X141814Y635285D01*
X141967Y635065D01*
X142037Y634770D01*
X141986Y634471D01*
X141822Y634216D01*
X141572Y634044D01*
X141275Y633984D01*
X134315Y633984D01*
X134052Y634031D01*
X133794Y634190D01*
X133618Y634438D01*
X133553Y634734D01*
X133609Y635032D01*
X133776Y635285D01*
X135451Y636960D01*
X135451Y692640D01*
X135507Y692926D01*
X135674Y693179D01*
X177053Y734558D01*
X177295Y734721D01*
X177592Y734781D01*
X178674Y734781D01*
X180922Y737029D01*
X180940Y737129D01*
X181104Y737384D01*
X181354Y737556D01*
X181651Y737616D01*
X492647Y737616D01*
X492706Y737675D01*
X492948Y737838D01*
X493245Y737898D01*
X494327Y737898D01*
X495091Y738663D01*
X495333Y738826D01*
X495630Y738886D01*
X515507Y738886D01*
X638474Y861853D01*
X638716Y862016D01*
X639013Y862076D01*
X697819Y862076D01*
X698105Y862020D01*
X698358Y861853D01*
X699699Y860511D01*
X702833Y860511D01*
X703597Y861276D01*
X703839Y861439D01*
X704136Y861499D01*
X705848Y861499D01*
X706111Y861452D01*
X706369Y861293D01*
X706545Y861045D01*
X706610Y860749D01*
X706554Y860451D01*
X706387Y860198D01*
X677926Y831737D01*
X677926Y802970D01*
X677870Y802684D01*
X677703Y802431D01*
X676938Y801667D01*
X676938Y798533D01*
X679153Y796318D01*
X682287Y796318D01*
X682975Y797007D01*
X683195Y797160D01*
X683490Y797229D01*
X683789Y797179D01*
X684044Y797015D01*
X684216Y796765D01*
X684276Y796468D01*
X684276Y795223D01*
X684220Y794937D01*
X684053Y794684D01*
X654386Y765017D01*
X654144Y764854D01*
X653847Y764794D01*
X560400Y764794D01*
X560114Y764850D01*
X559861Y765017D01*
X559097Y765782D01*
X555963Y765782D01*
X553748Y763567D01*
X553748Y760433D01*
X555963Y758218D01*
X559097Y758218D01*
X559861Y758983D01*
X560103Y759146D01*
X560400Y759206D01*
X656477Y759206D01*
X689864Y792593D01*
X689864Y827837D01*
X689920Y828123D01*
X690087Y828376D01*
X691357Y829646D01*
X691577Y829799D01*
X691872Y829869D01*
X692171Y829818D01*
X692426Y829654D01*
X692598Y829404D01*
X692658Y829107D01*
X692658Y759888D01*
X700638Y751908D01*
X702608Y751908D01*
X702883Y751857D01*
X703138Y751693D01*
X703310Y751443D01*
X703370Y751146D01*
X703370Y750440D01*
X721450Y750440D01*
X721450Y751146D01*
X721501Y751421D01*
X721665Y751676D01*
X721915Y751848D01*
X722212Y751908D01*
X725723Y751908D01*
X726009Y751852D01*
X726262Y751685D01*
X762285Y715662D01*
X762448Y715420D01*
X762508Y715123D01*
X762508Y579007D01*
X762452Y578721D01*
X762285Y578469D01*
X688766Y504949D01*
X688524Y504786D01*
X688227Y504726D01*
X586562Y504726D01*
X586276Y504782D01*
X586023Y504949D01*
X584497Y506476D01*
X581363Y506476D01*
X579148Y504261D01*
X579148Y501108D01*
X579256Y500953D01*
X579325Y500658D01*
X579275Y500359D01*
X579111Y500104D01*
X578861Y499932D01*
X578564Y499872D01*
X542177Y499872D01*
X541891Y499928D01*
X541639Y500095D01*
X540592Y501142D01*
X535812Y501142D01*
X535526Y501198D01*
X535273Y501365D01*
X533747Y502892D01*
X530613Y502892D01*
X528398Y500677D01*
X528398Y497360D01*
X528347Y497085D01*
X528183Y496830D01*
X527933Y496658D01*
X527636Y496598D01*
X512481Y496598D01*
X512195Y496654D01*
X511943Y496821D01*
X510785Y497979D01*
X510622Y498220D01*
X510562Y498517D01*
X510562Y500677D01*
X508347Y502892D01*
X505213Y502892D01*
X502998Y500677D01*
X502998Y497543D01*
X505213Y495328D01*
X507373Y495328D01*
X507659Y495272D01*
X507912Y495105D01*
X507912Y495105D01*
X508065Y494885D01*
X508134Y494590D01*
X508084Y494291D01*
X507920Y494036D01*
X507670Y493864D01*
X507373Y493804D01*
X489875Y493804D01*
X489589Y493860D01*
X489337Y494027D01*
X485385Y497979D01*
X485222Y498220D01*
X485162Y498517D01*
X485162Y500677D01*
X482947Y502892D01*
X479813Y502892D01*
X477598Y500677D01*
X477598Y497543D01*
X479813Y495328D01*
X481973Y495328D01*
X482259Y495272D01*
X482512Y495105D01*
X485306Y492311D01*
X485459Y492091D01*
X485529Y491796D01*
X485478Y491497D01*
X485314Y491242D01*
X485064Y491070D01*
X484767Y491010D01*
X467270Y491010D01*
X466984Y491065D01*
X466731Y491233D01*
X459985Y497979D01*
X459822Y498220D01*
X459762Y498517D01*
X459762Y500677D01*
X457547Y502892D01*
X454413Y502892D01*
X452198Y500677D01*
X452198Y497543D01*
X454413Y495328D01*
X456573Y495328D01*
X456859Y495272D01*
X457112Y495105D01*
X465271Y486946D01*
G37*
G36*
X860044Y954024D02*
X870510Y954024D01*
X870510Y954885D01*
X868685Y959292D01*
X865312Y962665D01*
X860905Y964490D01*
X860044Y964490D01*
X860044Y954024D01*
G37*
G36*
X846530Y954024D02*
X856996Y954024D01*
X856996Y964490D01*
X856135Y964490D01*
X851728Y962665D01*
X848355Y959292D01*
X846530Y954885D01*
X846530Y954024D01*
G37*
G36*
X703370Y805440D02*
X721460Y805440D01*
X721501Y805659D01*
X721665Y805914D01*
X721915Y806086D01*
X722212Y806146D01*
X798789Y806146D01*
X816171Y823528D01*
X816171Y888104D01*
X816227Y888390D01*
X816394Y888643D01*
X827704Y899953D01*
X827946Y900116D01*
X828243Y900176D01*
X833007Y900176D01*
X834644Y901813D01*
X834644Y911973D01*
X828235Y918382D01*
X828072Y918624D01*
X828012Y918921D01*
X828012Y920003D01*
X825797Y922218D01*
X822663Y922218D01*
X820448Y920003D01*
X820448Y916869D01*
X822663Y914654D01*
X823745Y914654D01*
X824031Y914598D01*
X824284Y914431D01*
X825356Y913359D01*
X825509Y913139D01*
X825579Y912844D01*
X825528Y912545D01*
X825364Y912290D01*
X825114Y912118D01*
X824817Y912058D01*
X823933Y912058D01*
X821718Y909843D01*
X821718Y908535D01*
X821662Y908249D01*
X821495Y907996D01*
X807757Y894258D01*
X807537Y894105D01*
X807242Y894035D01*
X806943Y894086D01*
X806688Y894250D01*
X806516Y894500D01*
X806456Y894797D01*
X806456Y938282D01*
X802452Y942286D01*
X802289Y942528D01*
X802229Y942825D01*
X802229Y943907D01*
X800014Y946122D01*
X796973Y946122D01*
X796710Y946169D01*
X796452Y946328D01*
X796276Y946576D01*
X796211Y946872D01*
X796267Y947170D01*
X796434Y947423D01*
X797450Y948439D01*
X797692Y948602D01*
X797989Y948662D01*
X800814Y948662D01*
X801100Y948606D01*
X801353Y948439D01*
X802343Y947448D01*
X805477Y947448D01*
X807692Y949663D01*
X807692Y952797D01*
X805477Y955012D01*
X802343Y955012D01*
X801805Y954473D01*
X801563Y954310D01*
X801266Y954250D01*
X795359Y954250D01*
X784606Y943497D01*
X784606Y941183D01*
X796327Y929462D01*
X796490Y929220D01*
X796550Y928923D01*
X796550Y831716D01*
X796494Y831430D01*
X796327Y831177D01*
X792107Y826957D01*
X791866Y826794D01*
X791568Y826734D01*
X711031Y826734D01*
X710913Y826710D01*
X705384Y826710D01*
X704640Y825966D01*
X704640Y821884D01*
X704733Y821748D01*
X704798Y821452D01*
X704743Y821154D01*
X704640Y820999D01*
X704640Y816884D01*
X704733Y816748D01*
X704798Y816452D01*
X704743Y816154D01*
X704640Y815999D01*
X704640Y811884D01*
X704733Y811748D01*
X704798Y811452D01*
X704743Y811154D01*
X704640Y810999D01*
X704640Y808078D01*
X704584Y807792D01*
X704417Y807539D01*
X703370Y806492D01*
X703370Y805440D01*
G37*
G36*
X856135Y940510D02*
X856996Y940510D01*
X856996Y950976D01*
X846530Y950976D01*
X846530Y950115D01*
X848355Y945708D01*
X851728Y942335D01*
X856135Y940510D01*
G37*
G36*
X860044Y940510D02*
X860905Y940510D01*
X865312Y942335D01*
X868685Y945708D01*
X870510Y950115D01*
X870510Y950976D01*
X860044Y950976D01*
X860044Y940510D01*
G37*
G36*
X453310Y907542D02*
X461090Y907542D01*
X468279Y910520D01*
X473780Y916021D01*
X476758Y923210D01*
X476758Y930990D01*
X473780Y938179D01*
X468279Y943680D01*
X461090Y946658D01*
X453310Y946658D01*
X446121Y943680D01*
X440620Y938179D01*
X437642Y930990D01*
X437642Y923210D01*
X440620Y916021D01*
X446121Y910520D01*
X453310Y907542D01*
G37*
G36*
X351710Y907542D02*
X359490Y907542D01*
X366679Y910520D01*
X372180Y916021D01*
X375158Y923210D01*
X375158Y930990D01*
X372180Y938179D01*
X366679Y943680D01*
X359490Y946658D01*
X351710Y946658D01*
X344521Y943680D01*
X339020Y938179D01*
X336042Y930990D01*
X336042Y923210D01*
X339020Y916021D01*
X344521Y910520D01*
X351710Y907542D01*
G37*
G36*
X135810Y907542D02*
X143590Y907542D01*
X150779Y910520D01*
X156280Y916021D01*
X159258Y923210D01*
X159258Y930990D01*
X156280Y938179D01*
X150779Y943680D01*
X143590Y946658D01*
X135810Y946658D01*
X128621Y943680D01*
X123120Y938179D01*
X120142Y930990D01*
X120142Y923210D01*
X123120Y916021D01*
X128621Y910520D01*
X135810Y907542D01*
G37*
G36*
X34210Y907542D02*
X41990Y907542D01*
X49179Y910520D01*
X54680Y916021D01*
X57658Y923210D01*
X57658Y930990D01*
X54680Y938179D01*
X49179Y943680D01*
X41990Y946658D01*
X34210Y946658D01*
X27021Y943680D01*
X21520Y938179D01*
X18542Y930990D01*
X18542Y923210D01*
X21520Y916021D01*
X27021Y910520D01*
X34210Y907542D01*
G37*
G36*
X856388Y916380D02*
X860652Y916380D01*
X864592Y918012D01*
X867608Y921028D01*
X869240Y924968D01*
X869240Y929232D01*
X867608Y933172D01*
X864592Y936188D01*
X860652Y937820D01*
X856388Y937820D01*
X852448Y936188D01*
X849432Y933172D01*
X847800Y929232D01*
X847800Y924968D01*
X849432Y921028D01*
X852448Y918012D01*
X856388Y916380D01*
G37*
G36*
X856388Y890980D02*
X860652Y890980D01*
X864592Y892612D01*
X867608Y895628D01*
X869240Y899568D01*
X869240Y903832D01*
X867608Y907772D01*
X864592Y910788D01*
X860652Y912420D01*
X856388Y912420D01*
X852448Y910788D01*
X849432Y907772D01*
X847800Y903832D01*
X847800Y899568D01*
X849432Y895628D01*
X852448Y892612D01*
X856388Y890980D01*
G37*
G36*
X483573Y858548D02*
X486707Y858548D01*
X488922Y860763D01*
X488922Y861845D01*
X488978Y862131D01*
X489145Y862384D01*
X507664Y880903D01*
X507906Y881066D01*
X508203Y881126D01*
X661557Y881126D01*
X665426Y884995D01*
X665668Y885158D01*
X665965Y885218D01*
X667047Y885218D01*
X669262Y887433D01*
X669262Y890567D01*
X667047Y892782D01*
X663913Y892782D01*
X661698Y890567D01*
X661698Y889485D01*
X661642Y889199D01*
X661475Y888946D01*
X659466Y886937D01*
X659224Y886774D01*
X658927Y886714D01*
X573902Y886714D01*
X573638Y886761D01*
X573380Y886920D01*
X573205Y887168D01*
X573140Y887464D01*
X573195Y887762D01*
X573363Y888015D01*
X575310Y889962D01*
X575310Y893118D01*
X573078Y895350D01*
X502612Y895350D01*
X500380Y893118D01*
X500380Y889962D01*
X502612Y887730D01*
X504749Y887730D01*
X505012Y887683D01*
X505270Y887524D01*
X505446Y887276D01*
X505511Y886980D01*
X505455Y886682D01*
X505288Y886429D01*
X485194Y866335D01*
X484952Y866172D01*
X484655Y866112D01*
X483573Y866112D01*
X481358Y863897D01*
X481358Y860763D01*
X483573Y858548D01*
G37*
G36*
X52050Y877824D02*
X61976Y877824D01*
X61976Y887750D01*
X61222Y887750D01*
X57014Y886007D01*
X53793Y882786D01*
X52050Y878578D01*
X52050Y877824D01*
G37*
G36*
X369550Y877824D02*
X379476Y877824D01*
X379476Y887750D01*
X378722Y887750D01*
X374514Y886007D01*
X371293Y882786D01*
X369550Y878578D01*
X369550Y877824D01*
G37*
G36*
X382524Y877824D02*
X392450Y877824D01*
X392450Y878578D01*
X390707Y882786D01*
X387486Y886007D01*
X383278Y887750D01*
X382524Y887750D01*
X382524Y877824D01*
G37*
G36*
X65024Y877824D02*
X74950Y877824D01*
X74950Y878578D01*
X73207Y882786D01*
X69986Y886007D01*
X65778Y887750D01*
X65024Y887750D01*
X65024Y877824D01*
G37*
G36*
X856388Y865580D02*
X860652Y865580D01*
X864592Y867212D01*
X867608Y870228D01*
X869240Y874168D01*
X869240Y878432D01*
X867608Y882372D01*
X864592Y885388D01*
X860652Y887020D01*
X856388Y887020D01*
X852448Y885388D01*
X849432Y882372D01*
X847800Y878432D01*
X847800Y874168D01*
X849432Y870228D01*
X852448Y867212D01*
X856388Y865580D01*
G37*
G36*
X86875Y866120D02*
X90925Y866120D01*
X94667Y867670D01*
X97530Y870533D01*
X99080Y874275D01*
X99080Y878325D01*
X97530Y882067D01*
X94667Y884930D01*
X90925Y886480D01*
X86875Y886480D01*
X83133Y884930D01*
X80270Y882067D01*
X78720Y878325D01*
X78720Y874275D01*
X80270Y870533D01*
X83133Y867670D01*
X86875Y866120D01*
G37*
G36*
X404375Y866120D02*
X408425Y866120D01*
X412167Y867670D01*
X415030Y870533D01*
X416580Y874275D01*
X416580Y878325D01*
X415030Y882067D01*
X412167Y884930D01*
X408425Y886480D01*
X404375Y886480D01*
X400633Y884930D01*
X397770Y882067D01*
X396220Y878325D01*
X396220Y874275D01*
X397770Y870533D01*
X400633Y867670D01*
X404375Y866120D01*
G37*
G36*
X61222Y864850D02*
X61976Y864850D01*
X61976Y874776D01*
X52050Y874776D01*
X52050Y874022D01*
X53793Y869814D01*
X57014Y866593D01*
X61222Y864850D01*
G37*
G36*
X65024Y864850D02*
X65778Y864850D01*
X69986Y866593D01*
X73207Y869814D01*
X74950Y874022D01*
X74950Y874776D01*
X65024Y874776D01*
X65024Y864850D01*
G37*
G36*
X378722Y864850D02*
X379476Y864850D01*
X379476Y874776D01*
X369550Y874776D01*
X369550Y874022D01*
X371293Y869814D01*
X374514Y866593D01*
X378722Y864850D01*
G37*
G36*
X382524Y864850D02*
X383278Y864850D01*
X387486Y866593D01*
X390707Y869814D01*
X392450Y874022D01*
X392450Y874776D01*
X382524Y874776D01*
X382524Y864850D01*
G37*
G36*
X860044Y852424D02*
X870510Y852424D01*
X870510Y853285D01*
X868685Y857692D01*
X865312Y861065D01*
X860905Y862890D01*
X860044Y862890D01*
X860044Y852424D01*
G37*
G36*
X846530Y852424D02*
X856996Y852424D01*
X856996Y862890D01*
X856135Y862890D01*
X851728Y861065D01*
X848355Y857692D01*
X846530Y853285D01*
X846530Y852424D01*
G37*
G36*
X733384Y832670D02*
X756436Y832670D01*
X757180Y833414D01*
X757180Y852466D01*
X756436Y853210D01*
X733384Y853210D01*
X732640Y852466D01*
X732640Y833414D01*
X733384Y832670D01*
G37*
G36*
X860044Y838910D02*
X860905Y838910D01*
X865312Y840735D01*
X868685Y844108D01*
X870510Y848515D01*
X870510Y849376D01*
X860044Y849376D01*
X860044Y838910D01*
G37*
G36*
X856135Y838910D02*
X856996Y838910D01*
X856996Y849376D01*
X846530Y849376D01*
X846530Y848515D01*
X848355Y844108D01*
X851728Y840735D01*
X856135Y838910D01*
G37*
G36*
X473413Y782348D02*
X476547Y782348D01*
X478762Y784563D01*
X478762Y785645D01*
X478818Y785931D01*
X478985Y786184D01*
X488614Y795813D01*
X488856Y795976D01*
X489153Y796036D01*
X538150Y796036D01*
X538436Y795980D01*
X538689Y795813D01*
X539453Y795048D01*
X542587Y795048D01*
X544802Y797263D01*
X544802Y800397D01*
X544037Y801161D01*
X543874Y801403D01*
X543814Y801700D01*
X543814Y834277D01*
X533595Y844496D01*
X533432Y844738D01*
X533372Y845035D01*
X533372Y846117D01*
X531157Y848332D01*
X528023Y848332D01*
X525808Y846117D01*
X525808Y842983D01*
X528023Y840768D01*
X529105Y840768D01*
X529391Y840712D01*
X529644Y840545D01*
X538003Y832186D01*
X538166Y831944D01*
X538226Y831647D01*
X538226Y802386D01*
X538175Y802111D01*
X538011Y801856D01*
X537761Y801684D01*
X537464Y801624D01*
X486523Y801624D01*
X475034Y790135D01*
X474792Y789972D01*
X474495Y789912D01*
X473413Y789912D01*
X472649Y789147D01*
X472407Y788984D01*
X472110Y788924D01*
X463753Y788924D01*
X463467Y788980D01*
X463214Y789147D01*
X448197Y804164D01*
X395083Y804164D01*
X384714Y793795D01*
X384483Y793637D01*
X384187Y793572D01*
X383889Y793628D01*
X383636Y793795D01*
X380887Y796544D01*
X228803Y796544D01*
X228517Y796600D01*
X228264Y796767D01*
X224985Y800046D01*
X224822Y800288D01*
X224762Y800585D01*
X224762Y801667D01*
X223997Y802431D01*
X223834Y802673D01*
X223774Y802970D01*
X223774Y836817D01*
X216095Y844496D01*
X215932Y844738D01*
X215872Y845035D01*
X215872Y846117D01*
X213657Y848332D01*
X210523Y848332D01*
X208308Y846117D01*
X208308Y842983D01*
X210523Y840768D01*
X211605Y840768D01*
X211891Y840712D01*
X212144Y840545D01*
X217963Y834726D01*
X218126Y834484D01*
X218186Y834187D01*
X218186Y803656D01*
X218135Y803381D01*
X217971Y803126D01*
X217721Y802954D01*
X217424Y802894D01*
X166483Y802894D01*
X154994Y791405D01*
X154752Y791242D01*
X154455Y791182D01*
X153373Y791182D01*
X152609Y790417D01*
X152367Y790254D01*
X152070Y790194D01*
X141173Y790194D01*
X140887Y790250D01*
X140634Y790417D01*
X128157Y802894D01*
X75043Y802894D01*
X63554Y791405D01*
X63312Y791242D01*
X63015Y791182D01*
X61933Y791182D01*
X59718Y788967D01*
X59718Y785833D01*
X61933Y783618D01*
X65067Y783618D01*
X67282Y785833D01*
X67282Y786915D01*
X67338Y787201D01*
X67505Y787454D01*
X77134Y797083D01*
X77376Y797246D01*
X77673Y797306D01*
X125527Y797306D01*
X125813Y797250D01*
X126066Y797083D01*
X138543Y784606D01*
X152070Y784606D01*
X152356Y784550D01*
X152609Y784383D01*
X153373Y783618D01*
X156507Y783618D01*
X158722Y785833D01*
X158722Y786915D01*
X158778Y787201D01*
X158945Y787454D01*
X168574Y797083D01*
X168816Y797246D01*
X169113Y797306D01*
X218110Y797306D01*
X218396Y797250D01*
X218649Y797083D01*
X219413Y796318D01*
X220495Y796318D01*
X220781Y796262D01*
X221034Y796095D01*
X226173Y790956D01*
X378257Y790956D01*
X378543Y790900D01*
X378796Y790733D01*
X382075Y787454D01*
X382238Y787212D01*
X382298Y786915D01*
X382298Y785833D01*
X384513Y783618D01*
X387647Y783618D01*
X389862Y785833D01*
X389862Y788967D01*
X389364Y789465D01*
X389206Y789695D01*
X389141Y789991D01*
X389196Y790290D01*
X389364Y790542D01*
X397174Y798353D01*
X397416Y798516D01*
X397713Y798576D01*
X445567Y798576D01*
X445853Y798520D01*
X446106Y798353D01*
X461123Y783336D01*
X472110Y783336D01*
X472396Y783280D01*
X472649Y783113D01*
X473413Y782348D01*
G37*
G36*
X307032Y834390D02*
X353368Y834390D01*
X355600Y836622D01*
X355600Y839778D01*
X353368Y842010D01*
X307032Y842010D01*
X304800Y839778D01*
X304800Y836622D01*
X307032Y834390D01*
G37*
G36*
X856388Y814780D02*
X860652Y814780D01*
X864592Y816412D01*
X867608Y819428D01*
X869240Y823368D01*
X869240Y827632D01*
X867608Y831572D01*
X864592Y834588D01*
X860652Y836220D01*
X856388Y836220D01*
X852448Y834588D01*
X849432Y831572D01*
X847800Y827632D01*
X847800Y823368D01*
X849432Y819428D01*
X852448Y816412D01*
X856388Y814780D01*
G37*
G36*
X277833Y805208D02*
X280967Y805208D01*
X281731Y805973D01*
X281973Y806136D01*
X282270Y806196D01*
X303417Y806196D01*
X321256Y824035D01*
X321498Y824198D01*
X321795Y824258D01*
X322877Y824258D01*
X325092Y826473D01*
X325092Y829607D01*
X322877Y831822D01*
X319743Y831822D01*
X317528Y829607D01*
X317528Y828525D01*
X317472Y828239D01*
X317305Y827986D01*
X301326Y812007D01*
X301084Y811844D01*
X300787Y811784D01*
X282270Y811784D01*
X281984Y811840D01*
X281731Y812007D01*
X280967Y812772D01*
X277833Y812772D01*
X275618Y810557D01*
X275618Y807423D01*
X277833Y805208D01*
G37*
G36*
X653753Y803938D02*
X656887Y803938D01*
X659102Y806153D01*
X659102Y809287D01*
X656887Y811502D01*
X655805Y811502D01*
X655519Y811558D01*
X655266Y811725D01*
X655207Y811784D01*
X603580Y811784D01*
X603294Y811840D01*
X603041Y812007D01*
X602277Y812772D01*
X599143Y812772D01*
X596928Y810557D01*
X596928Y807423D01*
X599143Y805208D01*
X602277Y805208D01*
X603041Y805973D01*
X603283Y806136D01*
X603580Y806196D01*
X651180Y806196D01*
X651466Y806140D01*
X651719Y805973D01*
X653753Y803938D01*
G37*
G36*
X786460Y781654D02*
X804576Y781654D01*
X804576Y799770D01*
X802193Y799770D01*
X794975Y796780D01*
X789450Y791255D01*
X786460Y784037D01*
X786460Y781654D01*
G37*
G36*
X837960Y781654D02*
X856076Y781654D01*
X856076Y799770D01*
X853693Y799770D01*
X846475Y796780D01*
X840950Y791255D01*
X837960Y784037D01*
X837960Y781654D01*
G37*
G36*
X859124Y781654D02*
X877240Y781654D01*
X877240Y784037D01*
X874250Y791255D01*
X868725Y796780D01*
X861507Y799770D01*
X859124Y799770D01*
X859124Y781654D01*
G37*
G36*
X807624Y781654D02*
X825740Y781654D01*
X825740Y784037D01*
X822750Y791255D01*
X817225Y796780D01*
X810007Y799770D01*
X807624Y799770D01*
X807624Y781654D01*
G37*
G36*
X449283Y765838D02*
X452417Y765838D01*
X454632Y768053D01*
X454632Y771187D01*
X452417Y773402D01*
X449283Y773402D01*
X448519Y772637D01*
X448277Y772474D01*
X447980Y772414D01*
X419303Y772414D01*
X419017Y772470D01*
X418764Y772637D01*
X404055Y787346D01*
X403892Y787588D01*
X403832Y787885D01*
X403832Y788967D01*
X401617Y791182D01*
X398483Y791182D01*
X396268Y788967D01*
X396268Y785833D01*
X398483Y783618D01*
X399565Y783618D01*
X399851Y783562D01*
X400104Y783395D01*
X416673Y766826D01*
X447980Y766826D01*
X448266Y766770D01*
X448519Y766603D01*
X449283Y765838D01*
G37*
G36*
X129243Y767108D02*
X132377Y767108D01*
X134592Y769323D01*
X134592Y772457D01*
X132377Y774672D01*
X129243Y774672D01*
X128479Y773907D01*
X128237Y773744D01*
X127940Y773684D01*
X96723Y773684D01*
X96437Y773740D01*
X96184Y773907D01*
X85285Y784806D01*
X85122Y785048D01*
X85062Y785345D01*
X85062Y786427D01*
X82847Y788642D01*
X79713Y788642D01*
X77498Y786427D01*
X77498Y783293D01*
X79713Y781078D01*
X80795Y781078D01*
X81081Y781022D01*
X81334Y780855D01*
X94093Y768096D01*
X127940Y768096D01*
X128226Y768040D01*
X128479Y767873D01*
X129243Y767108D01*
G37*
G36*
X181313Y755678D02*
X184447Y755678D01*
X186662Y757893D01*
X186662Y758975D01*
X186718Y759261D01*
X186885Y759514D01*
X206448Y779077D01*
X206690Y779240D01*
X206987Y779300D01*
X315900Y779300D01*
X316186Y779244D01*
X316439Y779077D01*
X317203Y778312D01*
X320337Y778312D01*
X322552Y780527D01*
X322552Y783661D01*
X320337Y785876D01*
X317203Y785876D01*
X316439Y785111D01*
X316197Y784948D01*
X315900Y784888D01*
X204357Y784888D01*
X182934Y763465D01*
X182692Y763302D01*
X182395Y763242D01*
X181313Y763242D01*
X179098Y761027D01*
X179098Y757893D01*
X181313Y755678D01*
G37*
G36*
X802193Y760490D02*
X804576Y760490D01*
X804576Y778606D01*
X786460Y778606D01*
X786460Y776223D01*
X789450Y769005D01*
X794975Y763480D01*
X802193Y760490D01*
G37*
G36*
X807624Y730154D02*
X825740Y730154D01*
X825740Y732537D01*
X822737Y739786D01*
X822680Y740047D01*
X822728Y740346D01*
X822890Y740603D01*
X823139Y740776D01*
X823435Y740839D01*
X823733Y740781D01*
X828733Y738710D01*
X834967Y738710D01*
X839967Y740781D01*
X840228Y740839D01*
X840528Y740790D01*
X840784Y740629D01*
X840958Y740380D01*
X841021Y740083D01*
X840963Y739786D01*
X837960Y732537D01*
X837960Y730154D01*
X856076Y730154D01*
X856076Y748270D01*
X853693Y748270D01*
X846445Y745267D01*
X846183Y745210D01*
X845884Y745258D01*
X845627Y745420D01*
X845454Y745669D01*
X845391Y745965D01*
X845449Y746263D01*
X847520Y751263D01*
X847520Y757497D01*
X845449Y762497D01*
X845392Y762758D01*
X845440Y763058D01*
X845601Y763314D01*
X845850Y763488D01*
X846147Y763551D01*
X846445Y763493D01*
X853693Y760490D01*
X856076Y760490D01*
X856076Y778606D01*
X837960Y778606D01*
X837960Y776223D01*
X840963Y768975D01*
X841020Y768713D01*
X840972Y768414D01*
X840810Y768157D01*
X840561Y767984D01*
X840265Y767921D01*
X839967Y767979D01*
X834967Y770050D01*
X828733Y770050D01*
X823733Y767979D01*
X823472Y767922D01*
X823172Y767970D01*
X822916Y768131D01*
X822742Y768380D01*
X822679Y768677D01*
X822737Y768975D01*
X825740Y776223D01*
X825740Y778606D01*
X807624Y778606D01*
X807624Y760490D01*
X810007Y760490D01*
X817256Y763493D01*
X817517Y763550D01*
X817816Y763502D01*
X818073Y763340D01*
X818246Y763091D01*
X818309Y762795D01*
X818251Y762497D01*
X816180Y757497D01*
X816180Y751263D01*
X818251Y746263D01*
X818309Y746002D01*
X818260Y745702D01*
X818099Y745446D01*
X817850Y745272D01*
X817553Y745209D01*
X817256Y745267D01*
X810007Y748270D01*
X807624Y748270D01*
X807624Y730154D01*
G37*
G36*
X859124Y760490D02*
X861507Y760490D01*
X868725Y763480D01*
X874250Y769005D01*
X877240Y776223D01*
X877240Y778606D01*
X859124Y778606D01*
X859124Y760490D01*
G37*
G36*
X859124Y730154D02*
X877240Y730154D01*
X877240Y732537D01*
X874250Y739755D01*
X868725Y745280D01*
X861507Y748270D01*
X859124Y748270D01*
X859124Y730154D01*
G37*
G36*
X786460Y730154D02*
X804576Y730154D01*
X804576Y748270D01*
X802193Y748270D01*
X794975Y745280D01*
X789450Y739755D01*
X786460Y732537D01*
X786460Y730154D01*
G37*
G36*
X731223Y646458D02*
X734357Y646458D01*
X736572Y648673D01*
X736572Y651807D01*
X735807Y652571D01*
X735644Y652813D01*
X735584Y653110D01*
X735584Y660287D01*
X729137Y666734D01*
X720942Y666734D01*
X720667Y666785D01*
X720412Y666949D01*
X720240Y667199D01*
X720180Y667496D01*
X720180Y670996D01*
X720087Y671132D01*
X720022Y671428D01*
X720077Y671726D01*
X720180Y671881D01*
X720180Y675996D01*
X720087Y676132D01*
X720022Y676428D01*
X720077Y676726D01*
X720180Y676881D01*
X720180Y680996D01*
X720087Y681132D01*
X720022Y681428D01*
X720077Y681726D01*
X720180Y681881D01*
X720180Y685996D01*
X720087Y686132D01*
X720022Y686428D01*
X720077Y686726D01*
X720180Y686881D01*
X720180Y690996D01*
X720087Y691132D01*
X720022Y691428D01*
X720077Y691726D01*
X720180Y691881D01*
X720180Y695996D01*
X720087Y696132D01*
X720022Y696428D01*
X720077Y696726D01*
X720180Y696881D01*
X720180Y700996D01*
X720087Y701132D01*
X720022Y701428D01*
X720077Y701726D01*
X720180Y701881D01*
X720180Y705996D01*
X720087Y706132D01*
X720022Y706428D01*
X720077Y706726D01*
X720180Y706881D01*
X720180Y710996D01*
X720087Y711132D01*
X720022Y711428D01*
X720077Y711726D01*
X720180Y711881D01*
X720180Y715996D01*
X720087Y716132D01*
X720022Y716428D01*
X720077Y716726D01*
X720180Y716881D01*
X720180Y720996D01*
X720087Y721132D01*
X720022Y721428D01*
X720077Y721726D01*
X720180Y721881D01*
X720180Y725996D01*
X720087Y726132D01*
X720022Y726428D01*
X720077Y726726D01*
X720180Y726881D01*
X720180Y730996D01*
X720087Y731132D01*
X720022Y731428D01*
X720077Y731726D01*
X720180Y731881D01*
X720180Y735996D01*
X720087Y736132D01*
X720022Y736428D01*
X720077Y736726D01*
X720180Y736881D01*
X720180Y740996D01*
X720087Y741132D01*
X720022Y741428D01*
X720077Y741726D01*
X720180Y741881D01*
X720180Y744802D01*
X720236Y745088D01*
X720403Y745341D01*
X721450Y746388D01*
X721450Y747440D01*
X703360Y747440D01*
X703319Y747221D01*
X703155Y746966D01*
X702905Y746794D01*
X702608Y746734D01*
X694381Y746734D01*
X649446Y701799D01*
X649204Y701636D01*
X648907Y701576D01*
X610918Y701576D01*
X610632Y701632D01*
X610379Y701799D01*
X609897Y702282D01*
X606763Y702282D01*
X604548Y700067D01*
X604548Y696750D01*
X604497Y696475D01*
X604333Y696220D01*
X604083Y696048D01*
X603786Y695988D01*
X589709Y695988D01*
X589423Y696044D01*
X589170Y696211D01*
X586935Y698446D01*
X586772Y698688D01*
X586712Y698985D01*
X586712Y700067D01*
X584497Y702282D01*
X581363Y702282D01*
X579148Y700067D01*
X579148Y696933D01*
X581363Y694718D01*
X582445Y694718D01*
X582731Y694662D01*
X582984Y694495D01*
X584508Y692971D01*
X584661Y692751D01*
X584731Y692456D01*
X584680Y692157D01*
X584517Y691902D01*
X584266Y691730D01*
X583969Y691670D01*
X544497Y691670D01*
X544211Y691726D01*
X543958Y691893D01*
X536135Y699716D01*
X535972Y699958D01*
X535912Y700255D01*
X535912Y701337D01*
X533697Y703552D01*
X530563Y703552D01*
X528348Y701337D01*
X528348Y698203D01*
X530563Y695988D01*
X531645Y695988D01*
X531931Y695932D01*
X532184Y695765D01*
X539296Y688653D01*
X539449Y688433D01*
X539519Y688138D01*
X539468Y687839D01*
X539305Y687584D01*
X539055Y687412D01*
X538757Y687352D01*
X523415Y687352D01*
X523129Y687407D01*
X522876Y687575D01*
X510735Y699716D01*
X510572Y699958D01*
X510512Y700255D01*
X510512Y701337D01*
X508297Y703552D01*
X505163Y703552D01*
X502948Y701337D01*
X502948Y698203D01*
X505163Y695988D01*
X506245Y695988D01*
X506531Y695932D01*
X506784Y695765D01*
X518214Y684335D01*
X518367Y684115D01*
X518437Y683820D01*
X518386Y683521D01*
X518223Y683266D01*
X517973Y683094D01*
X517675Y683034D01*
X502333Y683034D01*
X502047Y683089D01*
X501794Y683257D01*
X485335Y699716D01*
X485172Y699958D01*
X485112Y700255D01*
X485112Y701337D01*
X482897Y703552D01*
X479763Y703552D01*
X477548Y701337D01*
X477548Y698203D01*
X479763Y695988D01*
X480845Y695988D01*
X481131Y695932D01*
X481384Y695765D01*
X497132Y680016D01*
X497285Y679797D01*
X497355Y679502D01*
X497304Y679203D01*
X497141Y678947D01*
X496891Y678776D01*
X496593Y678716D01*
X481251Y678716D01*
X480965Y678771D01*
X480713Y678939D01*
X459935Y699716D01*
X459772Y699958D01*
X459712Y700255D01*
X459712Y701337D01*
X457497Y703552D01*
X454363Y703552D01*
X452148Y701337D01*
X452148Y698203D01*
X454363Y695988D01*
X455445Y695988D01*
X455731Y695932D01*
X455984Y695765D01*
X476050Y675698D01*
X476203Y675479D01*
X476273Y675184D01*
X476222Y674885D01*
X476059Y674629D01*
X475809Y674458D01*
X475512Y674398D01*
X434769Y674398D01*
X434483Y674453D01*
X434231Y674621D01*
X409135Y699716D01*
X408972Y699958D01*
X408912Y700255D01*
X408912Y701337D01*
X406697Y703552D01*
X403563Y703552D01*
X401348Y701337D01*
X401348Y698203D01*
X403563Y695988D01*
X404645Y695988D01*
X404931Y695932D01*
X405184Y695765D01*
X429568Y671380D01*
X429721Y671161D01*
X429791Y670866D01*
X429740Y670567D01*
X429577Y670311D01*
X429327Y670140D01*
X429030Y670079D01*
X413688Y670079D01*
X413402Y670135D01*
X413149Y670303D01*
X383735Y699716D01*
X383572Y699958D01*
X383512Y700255D01*
X383512Y701337D01*
X381297Y703552D01*
X378163Y703552D01*
X375948Y701337D01*
X375948Y698203D01*
X378163Y695988D01*
X379245Y695988D01*
X379531Y695932D01*
X379784Y695765D01*
X411057Y664491D01*
X664961Y664491D01*
X703339Y702869D01*
X703559Y703022D01*
X703854Y703092D01*
X704153Y703041D01*
X704408Y702878D01*
X704580Y702628D01*
X704640Y702330D01*
X704640Y701884D01*
X704733Y701748D01*
X704798Y701452D01*
X704743Y701154D01*
X704640Y700999D01*
X704640Y696884D01*
X704733Y696748D01*
X704798Y696452D01*
X704743Y696154D01*
X704640Y695999D01*
X704640Y691884D01*
X704733Y691748D01*
X704798Y691452D01*
X704743Y691154D01*
X704640Y690999D01*
X704640Y686884D01*
X704733Y686748D01*
X704798Y686452D01*
X704743Y686154D01*
X704640Y685999D01*
X704640Y681884D01*
X704733Y681748D01*
X704798Y681452D01*
X704743Y681154D01*
X704640Y680999D01*
X704640Y676884D01*
X704733Y676748D01*
X704798Y676452D01*
X704743Y676154D01*
X704640Y675999D01*
X704640Y671884D01*
X704733Y671748D01*
X704798Y671452D01*
X704743Y671154D01*
X704640Y670999D01*
X704640Y666884D01*
X704733Y666748D01*
X704798Y666452D01*
X704743Y666154D01*
X704640Y665999D01*
X704640Y663078D01*
X704584Y662792D01*
X704417Y662539D01*
X703370Y661492D01*
X703370Y660440D01*
X721460Y660440D01*
X721501Y660659D01*
X721665Y660914D01*
X721915Y661086D01*
X722212Y661146D01*
X726507Y661146D01*
X726793Y661090D01*
X727046Y660923D01*
X729773Y658196D01*
X729936Y657954D01*
X729996Y657657D01*
X729996Y653110D01*
X729940Y652824D01*
X729773Y652571D01*
X729008Y651807D01*
X729008Y648673D01*
X731223Y646458D01*
G37*
G36*
X859124Y708990D02*
X861507Y708990D01*
X868725Y711980D01*
X874250Y717505D01*
X877240Y724723D01*
X877240Y727106D01*
X859124Y727106D01*
X859124Y708990D01*
G37*
G36*
X853693Y708990D02*
X856076Y708990D01*
X856076Y727106D01*
X837960Y727106D01*
X837960Y724723D01*
X840950Y717505D01*
X846475Y711980D01*
X853693Y708990D01*
G37*
G36*
X807624Y708990D02*
X810007Y708990D01*
X817225Y711980D01*
X822750Y717505D01*
X825740Y724723D01*
X825740Y727106D01*
X807624Y727106D01*
X807624Y708990D01*
G37*
G36*
X802193Y708990D02*
X804576Y708990D01*
X804576Y727106D01*
X786460Y727106D01*
X786460Y724723D01*
X789450Y717505D01*
X794975Y711980D01*
X802193Y708990D01*
G37*
G36*
X281643Y613438D02*
X284777Y613438D01*
X286992Y615653D01*
X286992Y618787D01*
X286227Y619551D01*
X286064Y619793D01*
X286004Y620090D01*
X286004Y688227D01*
X260545Y713686D01*
X260382Y713928D01*
X260322Y714225D01*
X260322Y715307D01*
X258107Y717522D01*
X254973Y717522D01*
X252758Y715307D01*
X252758Y712173D01*
X254973Y709958D01*
X256055Y709958D01*
X256341Y709902D01*
X256594Y709735D01*
X280193Y686136D01*
X280356Y685894D01*
X280416Y685597D01*
X280416Y620090D01*
X280360Y619804D01*
X280193Y619551D01*
X279428Y618787D01*
X279428Y615653D01*
X281643Y613438D01*
G37*
G36*
X258783Y567718D02*
X261917Y567718D01*
X264132Y569933D01*
X264132Y573067D01*
X261917Y575282D01*
X258783Y575282D01*
X258285Y574784D01*
X258055Y574626D01*
X257759Y574561D01*
X257460Y574616D01*
X257208Y574784D01*
X251937Y580054D01*
X251774Y580296D01*
X251714Y580593D01*
X251714Y674257D01*
X250385Y675586D01*
X250222Y675828D01*
X250162Y676125D01*
X250162Y677207D01*
X247947Y679422D01*
X244813Y679422D01*
X242598Y677207D01*
X242598Y674073D01*
X244813Y671858D01*
X245364Y671858D01*
X245639Y671807D01*
X245894Y671643D01*
X246066Y671393D01*
X246126Y671096D01*
X246126Y577963D01*
X255383Y568706D01*
X257480Y568706D01*
X257766Y568650D01*
X258019Y568483D01*
X258783Y567718D01*
G37*
G36*
X334761Y569722D02*
X338339Y569722D01*
X340868Y572251D01*
X340868Y665999D01*
X338339Y668528D01*
X334761Y668528D01*
X332232Y665999D01*
X332232Y572251D01*
X334761Y569722D01*
G37*
G36*
X703370Y655440D02*
X721450Y655440D01*
X721450Y657440D01*
X703370Y657440D01*
X703370Y655440D01*
G37*
G36*
X703370Y650440D02*
X721450Y650440D01*
X721450Y652440D01*
X703370Y652440D01*
X703370Y650440D01*
G37*
G36*
X703370Y645440D02*
X721450Y645440D01*
X721450Y647440D01*
X703370Y647440D01*
X703370Y645440D01*
G37*
G36*
X715983Y605818D02*
X719117Y605818D01*
X721332Y608033D01*
X721332Y609115D01*
X721388Y609401D01*
X721555Y609654D01*
X730504Y618603D01*
X730504Y632347D01*
X726117Y636734D01*
X720942Y636734D01*
X720667Y636785D01*
X720412Y636949D01*
X720240Y637199D01*
X720180Y637496D01*
X720180Y639802D01*
X720236Y640088D01*
X720403Y640341D01*
X721450Y641388D01*
X721450Y642440D01*
X703370Y642440D01*
X703370Y641388D01*
X704417Y640341D01*
X704580Y640100D01*
X704640Y639802D01*
X704640Y636884D01*
X704733Y636748D01*
X704798Y636452D01*
X704743Y636154D01*
X704640Y635999D01*
X704640Y633078D01*
X704584Y632792D01*
X704417Y632539D01*
X703370Y631492D01*
X703370Y630440D01*
X721460Y630440D01*
X721501Y630659D01*
X721665Y630914D01*
X721915Y631086D01*
X722212Y631146D01*
X723487Y631146D01*
X723773Y631090D01*
X724026Y630923D01*
X724693Y630256D01*
X724856Y630014D01*
X724916Y629717D01*
X724916Y621233D01*
X724860Y620947D01*
X724693Y620694D01*
X717604Y613605D01*
X717362Y613442D01*
X717065Y613382D01*
X715983Y613382D01*
X713768Y611167D01*
X713768Y608033D01*
X715983Y605818D01*
G37*
G36*
X105113Y477548D02*
X108247Y477548D01*
X110462Y479763D01*
X110462Y480845D01*
X110518Y481131D01*
X110685Y481384D01*
X112014Y482713D01*
X112014Y570117D01*
X67505Y614626D01*
X67342Y614868D01*
X67282Y615165D01*
X67282Y616247D01*
X65067Y618462D01*
X61933Y618462D01*
X59718Y616247D01*
X59718Y613894D01*
X59671Y613631D01*
X59512Y613373D01*
X59264Y613197D01*
X58968Y613132D01*
X58670Y613188D01*
X58417Y613355D01*
X55059Y616713D01*
X54896Y616955D01*
X54836Y617252D01*
X54836Y618787D01*
X52621Y621002D01*
X49487Y621002D01*
X47272Y618787D01*
X47272Y615653D01*
X49487Y613438D01*
X50116Y613438D01*
X50402Y613382D01*
X50655Y613215D01*
X76890Y586980D01*
X77053Y586738D01*
X77113Y586441D01*
X77113Y585359D01*
X79329Y583144D01*
X82462Y583144D01*
X84677Y585359D01*
X84677Y587712D01*
X84724Y587975D01*
X84883Y588233D01*
X85131Y588409D01*
X85427Y588474D01*
X85725Y588418D01*
X85978Y588251D01*
X106203Y568026D01*
X106366Y567784D01*
X106426Y567487D01*
X106426Y548994D01*
X106379Y548731D01*
X106220Y548473D01*
X105972Y548297D01*
X105676Y548232D01*
X105378Y548288D01*
X105125Y548455D01*
X103163Y550418D01*
X55670Y550418D01*
X55384Y550474D01*
X55131Y550641D01*
X47495Y558277D01*
X47332Y558519D01*
X47272Y558816D01*
X47272Y605265D01*
X15759Y636778D01*
X12181Y636778D01*
X9652Y634249D01*
X9652Y630671D01*
X38413Y601911D01*
X38576Y601669D01*
X38636Y601372D01*
X38636Y555165D01*
X38589Y554902D01*
X38430Y554644D01*
X38182Y554468D01*
X37886Y554403D01*
X37588Y554459D01*
X37335Y554626D01*
X33497Y558464D01*
X33334Y558706D01*
X33274Y559003D01*
X33274Y585140D01*
X33330Y585426D01*
X33497Y585679D01*
X34262Y586443D01*
X34262Y589577D01*
X32047Y591792D01*
X28913Y591792D01*
X26698Y589577D01*
X26698Y586443D01*
X27463Y585679D01*
X27626Y585437D01*
X27686Y585140D01*
X27686Y556373D01*
X39175Y544884D01*
X39338Y544642D01*
X39398Y544345D01*
X39398Y543263D01*
X41613Y541048D01*
X44747Y541048D01*
X46962Y543263D01*
X46962Y544758D01*
X47009Y545021D01*
X47168Y545279D01*
X47416Y545455D01*
X47712Y545520D01*
X48010Y545464D01*
X48263Y545297D01*
X51777Y541782D01*
X103163Y541782D01*
X105125Y543745D01*
X105345Y543898D01*
X105640Y543967D01*
X105939Y543917D01*
X106194Y543753D01*
X106366Y543503D01*
X106426Y543206D01*
X106426Y485874D01*
X106375Y485599D01*
X106211Y485344D01*
X105961Y485172D01*
X105664Y485112D01*
X105113Y485112D01*
X102898Y482897D01*
X102898Y479763D01*
X105113Y477548D01*
G37*
G36*
X713910Y624900D02*
X719962Y624900D01*
X721450Y626388D01*
X721450Y627440D01*
X713910Y627440D01*
X713910Y624900D01*
G37*
G36*
X704858Y624900D02*
X710910Y624900D01*
X710910Y627440D01*
X703370Y627440D01*
X703370Y626388D01*
X704858Y624900D01*
G37*
G36*
X733384Y599670D02*
X756436Y599670D01*
X757180Y600414D01*
X757180Y619466D01*
X756436Y620210D01*
X733384Y620210D01*
X732640Y619466D01*
X732640Y600414D01*
X733384Y599670D01*
G37*
G36*
X858892Y590630D02*
X863268Y590630D01*
X867311Y592305D01*
X870405Y595399D01*
X872080Y599442D01*
X872080Y603818D01*
X870405Y607861D01*
X867311Y610955D01*
X863268Y612630D01*
X858892Y612630D01*
X854849Y610955D01*
X851755Y607861D01*
X850080Y603818D01*
X850080Y599442D01*
X851755Y595399D01*
X854849Y592305D01*
X858892Y590630D01*
G37*
G36*
X828890Y589130D02*
X832670Y589130D01*
X836161Y590576D01*
X838834Y593249D01*
X840280Y596740D01*
X840280Y600520D01*
X838834Y604011D01*
X836161Y606684D01*
X832670Y608130D01*
X828890Y608130D01*
X825399Y606684D01*
X822726Y604011D01*
X821280Y600520D01*
X821280Y596740D01*
X822726Y593249D01*
X825399Y590576D01*
X828890Y589130D01*
G37*
G36*
X154421Y457962D02*
X828559Y457962D01*
X863895Y493299D01*
X864137Y493462D01*
X864434Y493522D01*
X870469Y493522D01*
X872998Y496051D01*
X872998Y499629D01*
X870469Y502158D01*
X867410Y502158D01*
X867135Y502209D01*
X866880Y502373D01*
X866708Y502623D01*
X866648Y502920D01*
X866648Y505979D01*
X864119Y508508D01*
X860541Y508508D01*
X858012Y505979D01*
X858012Y502920D01*
X857961Y502645D01*
X857797Y502390D01*
X857547Y502218D01*
X857250Y502158D01*
X854191Y502158D01*
X851662Y499629D01*
X851662Y496051D01*
X852510Y495204D01*
X852668Y494973D01*
X852733Y494677D01*
X852677Y494379D01*
X852510Y494126D01*
X825205Y466821D01*
X824963Y466658D01*
X824666Y466598D01*
X331546Y466598D01*
X331283Y466645D01*
X331025Y466804D01*
X330849Y467052D01*
X330784Y467348D01*
X330840Y467646D01*
X331007Y467899D01*
X331261Y468153D01*
X331503Y468316D01*
X331800Y468376D01*
X378347Y468376D01*
X396494Y486523D01*
X396494Y527990D01*
X396550Y528276D01*
X396717Y528529D01*
X397482Y529293D01*
X397482Y532427D01*
X395267Y534642D01*
X392133Y534642D01*
X389918Y532427D01*
X389918Y529293D01*
X390683Y528529D01*
X390846Y528287D01*
X390906Y527990D01*
X390906Y489153D01*
X390850Y488867D01*
X390683Y488614D01*
X376256Y474187D01*
X376014Y474024D01*
X375717Y473964D01*
X331800Y473964D01*
X331514Y474020D01*
X331261Y474187D01*
X330497Y474952D01*
X327363Y474952D01*
X325148Y472737D01*
X325148Y469603D01*
X326853Y467899D01*
X327006Y467679D01*
X327075Y467384D01*
X327025Y467085D01*
X326861Y466830D01*
X326611Y466658D01*
X326314Y466598D01*
X158314Y466598D01*
X158028Y466654D01*
X157775Y466821D01*
X126461Y498135D01*
X126298Y498377D01*
X126238Y498674D01*
X126238Y572019D01*
X123709Y574548D01*
X120131Y574548D01*
X117602Y572019D01*
X117602Y494781D01*
X154421Y457962D01*
G37*
G36*
X828890Y540630D02*
X832670Y540630D01*
X836161Y542076D01*
X838834Y544749D01*
X840280Y548240D01*
X840280Y552020D01*
X838834Y555511D01*
X836161Y558184D01*
X832670Y559630D01*
X828890Y559630D01*
X825399Y558184D01*
X822726Y555511D01*
X821280Y552020D01*
X821280Y548240D01*
X822726Y544749D01*
X825399Y542076D01*
X828890Y540630D01*
G37*
G36*
X858892Y536130D02*
X863268Y536130D01*
X867311Y537805D01*
X870405Y540899D01*
X872080Y544942D01*
X872080Y549318D01*
X870405Y553361D01*
X867311Y556455D01*
X863268Y558130D01*
X858892Y558130D01*
X854849Y556455D01*
X851755Y553361D01*
X850080Y549318D01*
X850080Y544942D01*
X851755Y540899D01*
X854849Y537805D01*
X858892Y536130D01*
G37*
G36*
X559773Y525808D02*
X562907Y525808D01*
X563671Y526573D01*
X563913Y526736D01*
X564210Y526796D01*
X643777Y526796D01*
X643836Y526855D01*
X644078Y527018D01*
X644375Y527078D01*
X645457Y527078D01*
X647672Y529293D01*
X647672Y532427D01*
X645457Y534642D01*
X642323Y534642D01*
X640289Y532607D01*
X640047Y532444D01*
X639750Y532384D01*
X564210Y532384D01*
X563924Y532440D01*
X563671Y532607D01*
X562907Y533372D01*
X559773Y533372D01*
X557558Y531157D01*
X557558Y528023D01*
X559773Y525808D01*
G37*
G36*
X205432Y487680D02*
X208588Y487680D01*
X210820Y489912D01*
X210820Y510848D01*
X208588Y513080D01*
X205432Y513080D01*
X203200Y510848D01*
X203200Y489912D01*
X205432Y487680D01*
G37*
%LPD*%
D10*
X88900Y876300D03*
X63500Y876300D03*
D11*
X139700Y927100D03*
X38100Y927100D03*
D10*
X406400Y876300D03*
X381000Y876300D03*
D11*
X457200Y927100D03*
X355600Y927100D03*
D12*
X712410Y823940D03*
X712410Y818940D03*
X712410Y813940D03*
X712410Y808940D03*
X712410Y803940D03*
X712410Y798940D03*
X712410Y793940D03*
X712410Y788940D03*
X712410Y783940D03*
X712410Y778940D03*
X712410Y773940D03*
X712410Y768940D03*
X712410Y763940D03*
X712410Y758940D03*
X712410Y753940D03*
X712410Y748940D03*
X712410Y743940D03*
X712410Y738940D03*
X712410Y733940D03*
X712410Y728940D03*
X712410Y723940D03*
X712410Y718940D03*
X712410Y713940D03*
X712410Y708940D03*
X712410Y703940D03*
X712410Y698940D03*
X712410Y693940D03*
X712410Y688940D03*
X712410Y683940D03*
X712410Y678940D03*
X712410Y673940D03*
X712410Y668940D03*
X712410Y663940D03*
X712410Y658940D03*
X712410Y653940D03*
X712410Y648940D03*
X712410Y643940D03*
X712410Y638940D03*
X712410Y633940D03*
X712410Y628940D03*
D13*
X744910Y842940D03*
X744910Y609940D03*
D14*
X858520Y977900D03*
D15*
X858520Y952500D03*
X858520Y927100D03*
X858520Y901700D03*
X858520Y876300D03*
X858520Y850900D03*
X858520Y825500D03*
D16*
X831850Y754380D03*
D17*
X857600Y780130D03*
X806100Y780130D03*
X806100Y728630D03*
X857600Y728630D03*
D18*
X80895Y586926D03*
D19*
X51054Y616767D01*
D18*
X351790Y838200D03*
D20*
X308610Y838200D01*
D18*
X308610Y838200D03*
X504190Y891540D03*
D20*
X571500Y891540D01*
D18*
X571500Y891540D03*
X207010Y491490D03*
D20*
X207010Y509270D01*
D18*
X207010Y509270D03*
X51054Y617220D03*
D19*
X51054Y616767D01*
D18*
X279400Y808990D03*
D19*
X302260Y808990D02*
X321310Y828040D01*
X302260Y808990D02*
X279400Y808990D01*
D18*
X321310Y828040D03*
X81280Y784860D03*
D19*
X95250Y770890D01*
X130810Y770890D01*
D18*
X130810Y770890D03*
X182880Y759460D03*
X485140Y862330D03*
D19*
X506730Y883920D01*
X660400Y883920D02*
X665480Y889000D01*
X660400Y883920D02*
X506730Y883920D01*
D18*
X665480Y889000D03*
X318770Y782094D03*
D19*
X205514Y782094D02*
X182880Y759460D01*
X205514Y782094D02*
X318770Y782094D01*
D18*
X715010Y974090D03*
X700866Y872664D03*
D19*
X715010Y916940D02*
X715010Y974090D01*
X715010Y916940D02*
X715010Y880586D01*
X707089Y872664D01*
X700866Y872664D01*
D18*
X180340Y749300D03*
D19*
X491490Y749300D01*
X492760Y750570D01*
D18*
X492760Y750570D03*
D19*
X516890Y750570D01*
X636444Y870124D01*
X698326Y870124D02*
X700866Y872664D01*
X698326Y870124D02*
X636444Y870124D01*
X180340Y749300D02*
X125730Y694690D01*
X125730Y640080D01*
D18*
X125730Y640080D03*
X312420Y576580D03*
D19*
X293370Y557530D01*
X223520Y557530D01*
X140970Y640080D01*
D18*
X140970Y640080D03*
X715010Y916940D03*
X720090Y981710D03*
X701266Y864293D03*
D19*
X706813Y864293D01*
X720090Y976514D02*
X720090Y981710D01*
X720090Y976514D02*
X720316Y976288D01*
X720316Y922166D01*
X720316Y877796D01*
X706813Y864293D01*
X492760Y741680D02*
X491490Y740410D01*
D18*
X492760Y741680D03*
D19*
X514350Y741680D01*
X637540Y864870D01*
X700689Y864870D01*
X701266Y864293D01*
D18*
X177107Y738563D03*
D19*
X178954Y740410D02*
X491490Y740410D01*
X178954Y740410D02*
X177107Y738563D01*
D18*
X125730Y631190D03*
D19*
X132657Y638117D01*
X132657Y694113D02*
X177107Y738563D01*
X132657Y694113D02*
X132657Y638117D01*
D18*
X308610Y552450D03*
D19*
X222250Y552450D01*
X143510Y631190D01*
X125730Y631190D01*
D18*
X720316Y922166D03*
X256540Y944880D03*
D19*
X256540Y981710D02*
X260350Y985520D01*
X256540Y981710D02*
X256540Y944880D01*
D18*
X260350Y985520D03*
X400050Y787400D03*
X450850Y769620D03*
D19*
X417830Y769620D01*
X400050Y787400D01*
D18*
X575310Y946150D03*
X580390Y987016D03*
D19*
X580390Y951230D01*
X575310Y946150D01*
D18*
X600710Y808990D03*
D19*
X654050Y808990D01*
X655320Y807720D01*
D18*
X655320Y807720D03*
X751840Y880110D03*
D19*
X655320Y762000D02*
X557530Y762000D01*
D18*
X557530Y762000D03*
D19*
X741680Y869950D02*
X751840Y880110D01*
X741680Y869950D02*
X727710Y869950D01*
X687070Y829310D01*
X687070Y793750D01*
X655320Y762000D01*
D18*
X608330Y698500D03*
D19*
X650380Y698782D02*
X695538Y743940D01*
X608612Y698782D02*
X608330Y698500D01*
X608612Y698782D02*
X650380Y698782D01*
X695538Y743940D02*
X712410Y743940D01*
D18*
X582930Y698500D03*
D19*
X588236Y693194D01*
X651803Y693194D01*
X697549Y738940D02*
X712410Y738940D01*
X697549Y738940D02*
X651803Y693194D01*
D18*
X532130Y699770D03*
D19*
X543024Y688876D01*
X653591Y688876D01*
X698656Y733940D02*
X712410Y733940D01*
X698656Y733940D02*
X653591Y688876D01*
D18*
X506730Y699770D03*
D19*
X521942Y684558D01*
X655380Y684558D01*
X699762Y728940D02*
X712410Y728940D01*
X699762Y728940D02*
X655380Y684558D01*
D18*
X481330Y699770D03*
D19*
X500860Y680240D01*
X700869Y723940D02*
X712410Y723940D01*
X700869Y723940D02*
X657169Y680240D01*
X500860Y680240D01*
D18*
X455930Y699770D03*
D19*
X479778Y675922D01*
X701975Y718940D02*
X712410Y718940D01*
X701975Y718940D02*
X658957Y675922D01*
X479778Y675922D01*
D18*
X405130Y699770D03*
D19*
X433297Y671604D01*
X704352Y713940D02*
X712410Y713940D01*
X704352Y713940D02*
X662016Y671604D01*
X433297Y671604D01*
D18*
X379730Y699770D03*
D19*
X412215Y667285D01*
X705459Y708940D02*
X712410Y708940D01*
X705459Y708940D02*
X663804Y667285D01*
X412215Y667285D01*
D18*
X455980Y499110D03*
D21*
X712410Y783940D02*
X718488Y783940D01*
X455980Y499110D02*
X466112Y488978D01*
X691555Y488978D01*
X775716Y726712D02*
X718488Y783940D01*
X775716Y726712D02*
X775716Y573139D01*
X691555Y488978D01*
D18*
X506780Y499110D03*
D21*
X712410Y773940D02*
X718488Y773940D01*
X689240Y494566D02*
X511324Y494566D01*
X506780Y499110D01*
X770128Y722300D02*
X718488Y773940D01*
X770128Y722300D02*
X770128Y575454D01*
X689240Y494566D01*
D18*
X532180Y499110D03*
D21*
X712410Y768940D02*
X718488Y768940D01*
X539750Y499110D02*
X532180Y499110D01*
X539750Y499110D02*
X541020Y497840D01*
X767334Y720094D02*
X718488Y768940D01*
X767334Y720094D02*
X767334Y576693D01*
X688481Y497840D01*
X541020Y497840D01*
D18*
X762000Y901700D03*
X582930Y502694D03*
D21*
X689384Y502694D01*
X764540Y577850D01*
X764540Y716280D01*
X726880Y753940D01*
X712410Y753940D01*
X701480Y753940D01*
X694690Y760730D01*
X694690Y829310D01*
X728980Y863600D01*
X745490Y863600D01*
X760730Y878840D01*
X760730Y900430D01*
X762000Y901700D01*
D18*
X283210Y617220D03*
D19*
X283210Y687070D02*
X256540Y713740D01*
D18*
X256540Y713740D03*
D19*
X283210Y687070D02*
X283210Y617220D01*
D18*
X643890Y530860D03*
X561340Y529590D03*
X393700Y530860D03*
D19*
X393700Y487680D01*
X377190Y471170D01*
X328930Y471170D01*
D18*
X328930Y471170D03*
X106680Y481330D03*
D19*
X109220Y483870D02*
X109220Y568960D01*
X109220Y483870D02*
X106680Y481330D01*
X109220Y568960D02*
X63500Y614680D01*
D18*
X63500Y614680D03*
D19*
X642620Y529590D02*
X643890Y530860D01*
X642620Y529590D02*
X561340Y529590D01*
D18*
X229870Y942340D03*
X289560Y909320D03*
X276860Y800100D03*
X31750Y772160D03*
X143510Y749300D03*
X547370Y943610D03*
X607060Y908050D03*
X351790Y772160D03*
X699770Y943610D03*
X789940Y982980D03*
X726031Y901700D03*
X710874Y836720D03*
X462280Y754606D03*
X563935Y783761D03*
X243840Y755650D03*
X168910Y713740D03*
X194310Y675640D03*
X214630Y675640D03*
X233680Y675640D03*
X99060Y640080D03*
X87630Y674370D03*
X63500Y673100D03*
X50800Y632460D03*
X162560Y655320D03*
X293370Y711200D03*
X228600Y622300D03*
X259080Y593090D03*
X53340Y556260D03*
X811530Y497840D03*
X817880Y497840D03*
X805180Y497840D03*
X811530Y504190D03*
X205740Y521970D03*
X165100Y494030D03*
X253307Y676217D03*
X430530Y497840D03*
X430530Y699770D03*
X557530Y698500D03*
X826770Y698500D03*
X173990Y580390D03*
D19*
X177479Y494979D02*
X176530Y494030D01*
D18*
X821533Y869950D03*
X101826Y514350D03*
X684530Y650240D03*
X751840Y758190D03*
X725170Y840740D03*
X285859Y516999D03*
X557530Y506194D03*
X684702Y515084D03*
X121920Y570230D03*
D22*
X121920Y554990D01*
D18*
X121920Y554990D03*
X862330Y497840D03*
X855980Y497840D03*
X868680Y497840D03*
X862330Y504190D03*
D22*
X862330Y497840D02*
X826770Y462280D01*
X156210Y462280D02*
X121920Y496570D01*
X156210Y462280D02*
X826770Y462280D01*
X121920Y496570D02*
X121920Y554990D01*
X855980Y497840D02*
X862330Y497840D01*
X868680Y497840D01*
X862330Y497840D02*
X862330Y504190D01*
D19*
X794148Y818940D02*
X712410Y818940D01*
D18*
X798447Y942340D03*
D19*
X803662Y828454D02*
X794148Y818940D01*
X803662Y828454D02*
X803662Y937125D01*
X798447Y942340D01*
D18*
X803910Y951230D03*
D19*
X803684Y951456D01*
X796516Y951456D01*
X799344Y830243D02*
X793041Y823940D01*
X712410Y823940D01*
X799344Y830243D02*
X799344Y930396D01*
X787400Y942340D01*
X796516Y951456D01*
D18*
X824230Y918436D03*
D19*
X797632Y808940D02*
X712410Y808940D01*
X824230Y918436D02*
X831850Y910816D01*
X831850Y902970D02*
X826770Y902970D01*
X831850Y902970D02*
X831850Y910816D01*
X826770Y902970D02*
X813377Y889577D01*
X813377Y824685D02*
X797632Y808940D01*
X813377Y824685D02*
X813377Y889577D01*
D18*
X336550Y664210D03*
D19*
X712410Y798940D02*
X766970Y798940D01*
X767080Y798830D01*
D18*
X767080Y798830D03*
D19*
X761970Y793940D02*
X712410Y793940D01*
X761970Y793940D02*
X766970Y798940D01*
D18*
X717550Y609600D03*
D19*
X712410Y633940D02*
X712797Y634327D01*
X712410Y633940D02*
X712410Y638940D01*
D18*
X336550Y657860D03*
X336550Y580390D03*
X336550Y574040D03*
D22*
X336550Y657860D02*
X336550Y664210D01*
X336550Y657860D02*
X336550Y603250D01*
X336550Y580390D01*
X336550Y574040D01*
D18*
X336550Y603250D03*
D19*
X712410Y633940D02*
X724960Y633940D01*
X727710Y631190D01*
X727710Y619760D01*
X717550Y609600D01*
D18*
X260350Y571500D03*
D19*
X256540Y571500D01*
X248920Y579120D01*
X248920Y673100D02*
X246380Y675640D01*
X248920Y673100D02*
X248920Y579120D01*
D18*
X246380Y675640D03*
D19*
X712410Y813940D02*
X796525Y813940D01*
D18*
X825500Y908276D03*
D19*
X825500Y908050D01*
X809059Y891609D01*
X809059Y826474D02*
X796525Y813940D01*
X809059Y826474D02*
X809059Y891609D01*
D18*
X726440Y876300D03*
D19*
X680720Y830580D01*
X680720Y800100D01*
D18*
X680720Y800100D03*
X256540Y726440D03*
D19*
X179070Y648970D01*
X140970Y648970D01*
D18*
X140970Y648970D03*
X30480Y588010D03*
D19*
X30480Y557530D01*
X43180Y544830D01*
D18*
X43180Y544830D03*
X212090Y844550D03*
D19*
X220980Y835660D01*
X220980Y800100D01*
D18*
X220980Y800100D03*
X63500Y787400D03*
D19*
X76200Y800100D01*
X127000Y800100D01*
X139700Y787400D01*
X154940Y787400D01*
D18*
X154940Y787400D03*
X529590Y844550D03*
X541020Y798830D03*
X474980Y786130D03*
X386080Y787400D03*
D19*
X396240Y801370D02*
X447040Y801370D01*
X396240Y801370D02*
X386080Y791210D01*
X386080Y787400D01*
X462280Y786130D02*
X474980Y786130D01*
X462280Y786130D02*
X447040Y801370D01*
X529590Y844550D02*
X541020Y833120D01*
X541020Y798830D01*
X220980Y800100D02*
X167640Y800100D01*
X154940Y787400D01*
X487680Y798830D02*
X541020Y798830D01*
X487680Y798830D02*
X474980Y786130D01*
X386080Y787400D02*
X379730Y793750D01*
X227330Y793750D01*
X220980Y800100D01*
D18*
X13970Y632460D03*
X43180Y556486D03*
X101374Y546100D03*
D22*
X53566Y546100D01*
X43180Y556486D01*
X42954Y556712D01*
X42954Y603476D01*
X13970Y632460D01*
D18*
X732790Y650240D03*
D19*
X727980Y663940D02*
X712410Y663940D01*
X727980Y663940D02*
X732790Y659130D01*
X732790Y650240D01*
D18*
X481380Y499110D03*
D21*
X712410Y778940D02*
X718488Y778940D01*
X690397Y491772D02*
X488718Y491772D01*
X481380Y499110D01*
X718488Y778940D02*
X772922Y724506D01*
X772922Y574297D01*
X690397Y491772D01*
M02*
