G04 EAGLE Gerber RS-274X export*
G75*
%MOMM*%
%FSLAX34Y34*%
%LPD*%
%INSolderpaste Top*%
%IPPOS*%
%AMOC8*
5,1,8,0,0,1.08239X$1,22.5*%
G01*
G04 Define Apertures*
%ADD10R,1.465300X1.164600*%
%ADD11R,1.164600X1.465300*%
%ADD12R,0.773900X0.985400*%
%ADD13R,1.200000X0.600000*%
%ADD14R,1.528000X0.435000*%
%ADD15R,0.650000X0.300000*%
%ADD16R,1.100000X2.750000*%
%ADD17R,0.850000X0.300000*%
%ADD18R,1.050000X0.550000*%
%ADD19R,1.420200X1.031200*%
%ADD20R,1.031200X1.420200*%
%ADD21R,1.450000X0.300000*%
%ADD22R,1.700000X3.500000*%
%ADD23R,3.500000X1.700000*%
%ADD24R,0.355600X1.422400*%
%ADD25R,1.473200X0.558800*%
%ADD26R,1.050000X0.500000*%
G36*
X792877Y906347D02*
X791389Y904859D01*
X788237Y904859D01*
X786749Y906347D01*
X786749Y909499D01*
X788237Y910987D01*
X791389Y910987D01*
X792877Y909499D01*
X792877Y906347D01*
G37*
G36*
X792877Y914221D02*
X791389Y912733D01*
X788237Y912733D01*
X786749Y914221D01*
X786749Y917373D01*
X788237Y918861D01*
X791389Y918861D01*
X792877Y917373D01*
X792877Y914221D01*
G37*
G36*
X800751Y906347D02*
X799263Y904859D01*
X796111Y904859D01*
X794623Y906347D01*
X794623Y909499D01*
X796111Y910987D01*
X799263Y910987D01*
X800751Y909499D01*
X800751Y906347D01*
G37*
G36*
X800751Y914221D02*
X799263Y912733D01*
X796111Y912733D01*
X794623Y914221D01*
X794623Y917373D01*
X796111Y918861D01*
X799263Y918861D01*
X800751Y917373D01*
X800751Y914221D01*
G37*
G36*
X785003Y906347D02*
X783515Y904859D01*
X780872Y904859D01*
X780872Y910987D01*
X783515Y910987D01*
X785003Y909499D01*
X785003Y906347D01*
G37*
G36*
X785003Y914221D02*
X783515Y912733D01*
X780872Y912733D01*
X780872Y918861D01*
X783515Y918861D01*
X785003Y917373D01*
X785003Y914221D01*
G37*
G36*
X792877Y901625D02*
X792877Y898982D01*
X786749Y898982D01*
X786749Y901625D01*
X788237Y903113D01*
X791389Y903113D01*
X792877Y901625D01*
G37*
G36*
X792877Y922095D02*
X791389Y920607D01*
X788237Y920607D01*
X786749Y922095D01*
X786749Y924738D01*
X792877Y924738D01*
X792877Y922095D01*
G37*
G36*
X800751Y901625D02*
X800751Y898982D01*
X794623Y898982D01*
X794623Y901625D01*
X796111Y903113D01*
X799263Y903113D01*
X800751Y901625D01*
G37*
G36*
X800751Y922095D02*
X799263Y920607D01*
X796111Y920607D01*
X794623Y922095D01*
X794623Y924738D01*
X800751Y924738D01*
X800751Y922095D01*
G37*
G36*
X806628Y910987D02*
X806628Y904859D01*
X803985Y904859D01*
X802497Y906347D01*
X802497Y909499D01*
X803985Y910987D01*
X806628Y910987D01*
G37*
G36*
X806628Y918861D02*
X806628Y912733D01*
X803985Y912733D01*
X802497Y914221D01*
X802497Y917373D01*
X803985Y918861D01*
X806628Y918861D01*
G37*
G36*
X778127Y903137D02*
X778127Y900583D01*
X769873Y900583D01*
X769873Y903137D01*
X778127Y903137D01*
G37*
G36*
X778127Y908137D02*
X778127Y905583D01*
X769873Y905583D01*
X769873Y908137D01*
X778127Y908137D01*
G37*
G36*
X778127Y913137D02*
X778127Y910583D01*
X769873Y910583D01*
X769873Y913137D01*
X778127Y913137D01*
G37*
G36*
X778127Y918137D02*
X778127Y915583D01*
X769873Y915583D01*
X769873Y918137D01*
X778127Y918137D01*
G37*
G36*
X778127Y923137D02*
X778127Y920583D01*
X769873Y920583D01*
X769873Y923137D01*
X778127Y923137D01*
G37*
G36*
X785024Y896237D02*
X785024Y887983D01*
X782470Y887983D01*
X782470Y896237D01*
X785024Y896237D01*
G37*
G36*
X785024Y935737D02*
X785024Y927483D01*
X782470Y927483D01*
X782470Y935737D01*
X785024Y935737D01*
G37*
G36*
X790026Y896237D02*
X790026Y887983D01*
X787472Y887983D01*
X787472Y896237D01*
X790026Y896237D01*
G37*
G36*
X790026Y935737D02*
X790026Y927483D01*
X787472Y927483D01*
X787472Y935737D01*
X790026Y935737D01*
G37*
G36*
X795027Y896237D02*
X795027Y887983D01*
X792473Y887983D01*
X792473Y896237D01*
X795027Y896237D01*
G37*
G36*
X795027Y935737D02*
X795027Y927483D01*
X792473Y927483D01*
X792473Y935737D01*
X795027Y935737D01*
G37*
G36*
X800028Y896237D02*
X800028Y887983D01*
X797474Y887983D01*
X797474Y896237D01*
X800028Y896237D01*
G37*
G36*
X800028Y935737D02*
X800028Y927483D01*
X797474Y927483D01*
X797474Y935737D01*
X800028Y935737D01*
G37*
G36*
X805030Y896237D02*
X805030Y887983D01*
X802476Y887983D01*
X802476Y896237D01*
X805030Y896237D01*
G37*
G36*
X805030Y935737D02*
X805030Y927483D01*
X802476Y927483D01*
X802476Y935737D01*
X805030Y935737D01*
G37*
G36*
X817627Y903137D02*
X817627Y900583D01*
X809373Y900583D01*
X809373Y903137D01*
X817627Y903137D01*
G37*
G36*
X817627Y908137D02*
X817627Y905583D01*
X809373Y905583D01*
X809373Y908137D01*
X817627Y908137D01*
G37*
G36*
X817627Y913137D02*
X817627Y910583D01*
X809373Y910583D01*
X809373Y913137D01*
X817627Y913137D01*
G37*
G36*
X817627Y918137D02*
X817627Y915583D01*
X809373Y915583D01*
X809373Y918137D01*
X817627Y918137D01*
G37*
G36*
X817627Y923137D02*
X817627Y920583D01*
X809373Y920583D01*
X809373Y923137D01*
X817627Y923137D01*
G37*
G36*
X785003Y901625D02*
X785003Y898982D01*
X780872Y898982D01*
X780872Y903113D01*
X783515Y903113D01*
X785003Y901625D01*
G37*
G36*
X785003Y922095D02*
X783515Y920607D01*
X780872Y920607D01*
X780872Y924738D01*
X785003Y924738D01*
X785003Y922095D01*
G37*
G36*
X806628Y903113D02*
X806628Y898982D01*
X802497Y898982D01*
X802497Y901625D01*
X803985Y903113D01*
X806628Y903113D01*
G37*
G36*
X806628Y924738D02*
X806628Y920607D01*
X803985Y920607D01*
X802497Y922095D01*
X802497Y924738D01*
X806628Y924738D01*
G37*
D10*
X187960Y962524D03*
X187960Y945016D03*
X505460Y962524D03*
X505460Y945016D03*
X619760Y962524D03*
X619760Y945016D03*
X594360Y926964D03*
X594360Y909456D03*
X504190Y873624D03*
X504190Y856116D03*
X500380Y798966D03*
X500380Y816474D03*
X556260Y816474D03*
X556260Y798966D03*
X351702Y815204D03*
X351702Y797696D03*
X351790Y741816D03*
X351790Y759324D03*
X426720Y741816D03*
X426720Y759324D03*
X751840Y796154D03*
X751840Y778646D03*
X300990Y962524D03*
X300990Y945016D03*
X162560Y684394D03*
X162560Y666886D03*
D11*
X175124Y629920D03*
X157616Y629920D03*
D10*
X198120Y582794D03*
X198120Y565286D03*
X234950Y582794D03*
X234950Y565286D03*
D11*
X776106Y843280D03*
X793614Y843280D03*
X776106Y868680D03*
X793614Y868680D03*
X776106Y817880D03*
X793614Y817880D03*
X679586Y838200D03*
X697094Y838200D03*
X175124Y603250D03*
X157616Y603250D03*
X275726Y698500D03*
X293234Y698500D03*
D10*
X276860Y926964D03*
X276860Y909456D03*
D11*
X275726Y673100D03*
X293234Y673100D03*
D10*
X33020Y700904D03*
X33020Y683396D03*
D11*
X199536Y713740D03*
X182028Y713740D03*
D10*
X181610Y476386D03*
X181610Y493894D03*
X246380Y476386D03*
X246380Y493894D03*
D11*
X226196Y525780D03*
X243704Y525780D03*
D10*
X62230Y700904D03*
X62230Y683396D03*
X38100Y650104D03*
X38100Y632596D03*
D11*
X95386Y585470D03*
X112894Y585470D03*
D10*
X17780Y590414D03*
X17780Y572906D03*
X186690Y873624D03*
X186690Y856116D03*
X17780Y551044D03*
X17780Y533536D03*
X148590Y487544D03*
X148590Y470036D03*
X121920Y487544D03*
X121920Y470036D03*
D11*
X175396Y521970D03*
X192904Y521970D03*
X762136Y982980D03*
X779644Y982980D03*
D10*
X180340Y800236D03*
X180340Y817744D03*
X236220Y817744D03*
X236220Y800236D03*
X31750Y816474D03*
X31750Y798966D03*
X31750Y741816D03*
X31750Y759324D03*
X106680Y741816D03*
X106680Y759324D03*
D12*
X233680Y925050D03*
X233680Y903750D03*
X254000Y907560D03*
X254000Y928860D03*
X57150Y743730D03*
X57150Y765030D03*
X551180Y925050D03*
X551180Y903750D03*
X571500Y906290D03*
X571500Y927590D03*
X378460Y743730D03*
X378460Y765030D03*
D13*
X211890Y904900D03*
X211890Y914400D03*
X211890Y923900D03*
X186890Y923900D03*
X186890Y914400D03*
X186890Y904900D03*
X534870Y963270D03*
X534870Y953770D03*
X534870Y944270D03*
X559870Y944270D03*
X559870Y963270D03*
D14*
X738310Y857890D03*
X738310Y864230D03*
X738310Y870590D03*
X738310Y876930D03*
X738310Y883290D03*
X738310Y889630D03*
X738310Y895990D03*
X738310Y902330D03*
X684090Y902330D03*
X684090Y895990D03*
X684090Y889630D03*
X684090Y883290D03*
X684090Y876930D03*
X684090Y870590D03*
X684090Y864230D03*
X684090Y857890D03*
D13*
X87830Y649580D03*
X87830Y640080D03*
X87830Y630580D03*
X112830Y630580D03*
X112830Y640080D03*
X112830Y649580D03*
D15*
X42840Y590350D03*
X42840Y585350D03*
X42840Y580350D03*
X42840Y575350D03*
X42840Y570350D03*
X42840Y565350D03*
X63840Y565350D03*
X63840Y570350D03*
X63840Y575350D03*
X63840Y580350D03*
X63840Y585350D03*
X63840Y590350D03*
D16*
X53340Y577850D03*
D13*
X123390Y523850D03*
X123390Y514350D03*
X123390Y504850D03*
X148390Y504850D03*
X148390Y523850D03*
D14*
X684090Y987420D03*
X684090Y981080D03*
X684090Y974720D03*
X684090Y968380D03*
X684090Y962020D03*
X684090Y955680D03*
X684090Y949320D03*
X684090Y942980D03*
X738310Y942980D03*
X738310Y949320D03*
X738310Y955680D03*
X738310Y962020D03*
X738310Y968380D03*
X738310Y974720D03*
X738310Y981080D03*
X738310Y987420D03*
D17*
X243080Y734180D03*
X243080Y739180D03*
X243080Y744180D03*
X243080Y749180D03*
X211580Y749180D03*
X211580Y744180D03*
X211580Y739180D03*
X211580Y734180D03*
D18*
X244810Y874370D03*
X244810Y864870D03*
X244810Y855370D03*
X270810Y855370D03*
X270810Y874370D03*
D13*
X81480Y817220D03*
X81480Y807720D03*
X81480Y798220D03*
X106480Y798220D03*
X106480Y817220D03*
X131010Y758800D03*
X131010Y749300D03*
X131010Y739800D03*
X156010Y739800D03*
X156010Y749300D03*
X156010Y758800D03*
X217370Y962000D03*
X217370Y952500D03*
X217370Y943000D03*
X242370Y943000D03*
X242370Y962000D03*
D18*
X564850Y874370D03*
X564850Y864870D03*
X564850Y855370D03*
X590850Y855370D03*
X590850Y874370D03*
D13*
X529390Y904900D03*
X529390Y914400D03*
X529390Y923900D03*
X504390Y923900D03*
X504390Y914400D03*
X504390Y904900D03*
X400250Y817220D03*
X400250Y807720D03*
X400250Y798220D03*
X425250Y798220D03*
X425250Y817220D03*
X451050Y760070D03*
X451050Y750570D03*
X451050Y741070D03*
X476050Y741070D03*
X476050Y750570D03*
X476050Y760070D03*
D19*
X276860Y962965D03*
X276860Y944575D03*
D20*
X103175Y838962D03*
X84785Y838962D03*
D19*
X81280Y759765D03*
X81280Y741375D03*
X57150Y798525D03*
X57150Y816915D03*
X594360Y962965D03*
X594360Y944575D03*
X619760Y909015D03*
X619760Y927405D03*
X529590Y855675D03*
X529590Y874065D03*
X600710Y741375D03*
X600710Y759765D03*
X619760Y855675D03*
X619760Y874065D03*
X627380Y741375D03*
X627380Y759765D03*
X525780Y798525D03*
X525780Y816915D03*
X300990Y909015D03*
X300990Y927405D03*
X474980Y798525D03*
X474980Y816915D03*
X449580Y816915D03*
X449580Y798525D03*
D20*
X421945Y842010D03*
X403555Y842010D03*
D19*
X401320Y759765D03*
X401320Y741375D03*
X377190Y798525D03*
X377190Y816915D03*
D20*
X767385Y711200D03*
X748995Y711200D03*
X274015Y600710D03*
X292405Y600710D03*
X292405Y552450D03*
X274015Y552450D03*
X292405Y576580D03*
X274015Y576580D03*
X244145Y713740D03*
X225755Y713740D03*
D19*
X212090Y855675D03*
X212090Y874065D03*
D20*
X225095Y477520D03*
X206705Y477520D03*
D19*
X63500Y650545D03*
X63500Y632155D03*
X133350Y701345D03*
X133350Y682955D03*
D20*
X62535Y506730D03*
X44145Y506730D03*
X102413Y558800D03*
X84023Y558800D03*
X101905Y532130D03*
X83515Y532130D03*
X62535Y532130D03*
X44145Y532130D03*
D19*
X284480Y741375D03*
X284480Y759765D03*
X299720Y855675D03*
X299720Y874065D03*
X309880Y741375D03*
X309880Y759765D03*
X205740Y799795D03*
X205740Y818185D03*
X154940Y799795D03*
X154940Y818185D03*
X129540Y818185D03*
X129540Y799795D03*
D21*
X263500Y818990D03*
X263500Y813990D03*
X263500Y808990D03*
X263500Y803990D03*
X263500Y798990D03*
X308000Y798990D03*
X308000Y803990D03*
X308000Y808990D03*
X308000Y813990D03*
X308000Y818990D03*
X583540Y818990D03*
X583540Y813990D03*
X583540Y808990D03*
X583540Y803990D03*
X583540Y798990D03*
X628040Y798990D03*
X628040Y803990D03*
X628040Y808990D03*
X628040Y813990D03*
X628040Y818990D03*
D22*
X862380Y674380D03*
X836980Y674380D03*
X811580Y674380D03*
X786180Y674380D03*
X760780Y674380D03*
X735380Y674380D03*
X709980Y674380D03*
X684580Y674380D03*
X659180Y674380D03*
X633780Y674380D03*
X608380Y674380D03*
X582980Y674380D03*
X557580Y674380D03*
X532180Y674380D03*
X506780Y674380D03*
X481380Y674380D03*
X455980Y674380D03*
X430580Y674380D03*
X405180Y674380D03*
X379780Y674380D03*
X379780Y474380D03*
X405180Y474380D03*
X430580Y474380D03*
X455980Y474380D03*
X481380Y474380D03*
X506780Y474380D03*
X532180Y474380D03*
X557580Y474380D03*
X582980Y474380D03*
X608380Y474380D03*
X633780Y474380D03*
X659180Y474380D03*
X684580Y474380D03*
X709980Y474380D03*
X735380Y474380D03*
X760780Y474380D03*
X786180Y474380D03*
X811580Y474380D03*
X836980Y474380D03*
X862380Y474380D03*
D23*
X371830Y599780D03*
X371830Y574380D03*
X371830Y548980D03*
D24*
X259270Y662178D03*
X252770Y662178D03*
X246270Y662178D03*
X239770Y662178D03*
X233270Y662178D03*
X226770Y662178D03*
X220270Y662178D03*
X213770Y662178D03*
X207270Y662178D03*
X200770Y662178D03*
X194270Y662178D03*
X187770Y662178D03*
X187770Y605282D03*
X194270Y605282D03*
X200770Y605282D03*
X207270Y605282D03*
X213770Y605282D03*
X220270Y605282D03*
X226770Y605282D03*
X233270Y605282D03*
X239770Y605282D03*
X246270Y605282D03*
X252770Y605282D03*
X259270Y605282D03*
D25*
X311912Y511150D03*
X311912Y501650D03*
X311912Y492150D03*
X335788Y492150D03*
X335788Y511150D03*
X110236Y682650D03*
X110236Y692150D03*
X110236Y701650D03*
X87884Y701650D03*
X87884Y692150D03*
X87884Y682650D03*
D26*
X288630Y495150D03*
X288630Y508150D03*
X267630Y501650D03*
M02*
