G04 EAGLE Gerber RS-274X export*
G75*
%MOMM*%
%FSLAX34Y34*%
%LPD*%
%INSoldermask Top*%
%IPPOS*%
%AMOC8*
5,1,8,0,0,1.08239X$1,22.5*%
G01*
G04 Define Apertures*
%ADD10R,1.668500X1.367800*%
%ADD11R,1.367800X1.668500*%
%ADD12R,0.977100X1.188600*%
%ADD13R,1.403200X0.803200*%
%ADD14R,1.731200X0.638200*%
%ADD15R,0.853200X0.503200*%
%ADD16R,1.303200X2.953200*%
%ADD17R,1.053200X0.503200*%
%ADD18R,1.253200X0.753200*%
%ADD19C,1.985200*%
%ADD20C,3.860800*%
%ADD21R,1.623400X1.234400*%
%ADD22R,1.234400X1.623400*%
%ADD23R,1.653200X0.503200*%
%ADD24R,1.903200X3.703200*%
%ADD25C,2.003200*%
%ADD26C,1.703200*%
%ADD27R,3.703200X1.903200*%
%ADD28R,0.558800X1.625600*%
%ADD29R,1.053200X0.483200*%
%ADD30R,0.483200X1.053200*%
%ADD31R,1.676400X0.762000*%
%ADD32R,2.093200X2.093200*%
%ADD33C,2.093200*%
%ADD34C,3.083200*%
%ADD35C,3.623200*%
%ADD36R,1.253200X0.703200*%
%ADD37C,0.705600*%
G36*
X784003Y926122D02*
X784003Y897598D01*
X779488Y897598D01*
X779488Y926122D01*
X784003Y926122D01*
G37*
G36*
X808012Y902113D02*
X808012Y897598D01*
X779488Y897598D01*
X779488Y902113D01*
X808012Y902113D01*
G37*
G36*
X808012Y926122D02*
X808012Y921607D01*
X779488Y921607D01*
X779488Y926122D01*
X808012Y926122D01*
G37*
G36*
X808012Y926122D02*
X808012Y897598D01*
X803497Y897598D01*
X803497Y926122D01*
X808012Y926122D01*
G37*
G36*
X791877Y926122D02*
X791877Y897598D01*
X787749Y897598D01*
X787749Y926122D01*
X791877Y926122D01*
G37*
G36*
X808012Y909987D02*
X808012Y905859D01*
X779488Y905859D01*
X779488Y909987D01*
X808012Y909987D01*
G37*
G36*
X808012Y917861D02*
X808012Y913733D01*
X779488Y913733D01*
X779488Y917861D01*
X808012Y917861D01*
G37*
G36*
X799751Y926122D02*
X799751Y897598D01*
X795623Y897598D01*
X795623Y926122D01*
X799751Y926122D01*
G37*
G36*
X778877Y903887D02*
X778877Y899833D01*
X769123Y899833D01*
X769123Y903887D01*
X778877Y903887D01*
G37*
G36*
X778877Y908887D02*
X778877Y904833D01*
X769123Y904833D01*
X769123Y908887D01*
X778877Y908887D01*
G37*
G36*
X778877Y913887D02*
X778877Y909833D01*
X769123Y909833D01*
X769123Y913887D01*
X778877Y913887D01*
G37*
G36*
X778877Y918887D02*
X778877Y914833D01*
X769123Y914833D01*
X769123Y918887D01*
X778877Y918887D01*
G37*
G36*
X778877Y923887D02*
X778877Y919833D01*
X769123Y919833D01*
X769123Y923887D01*
X778877Y923887D01*
G37*
G36*
X785774Y896987D02*
X785774Y887233D01*
X781720Y887233D01*
X781720Y896987D01*
X785774Y896987D01*
G37*
G36*
X785774Y936487D02*
X785774Y926733D01*
X781720Y926733D01*
X781720Y936487D01*
X785774Y936487D01*
G37*
G36*
X790776Y896987D02*
X790776Y887233D01*
X786722Y887233D01*
X786722Y896987D01*
X790776Y896987D01*
G37*
G36*
X790776Y936487D02*
X790776Y926733D01*
X786722Y926733D01*
X786722Y936487D01*
X790776Y936487D01*
G37*
G36*
X795777Y896987D02*
X795777Y887233D01*
X791723Y887233D01*
X791723Y896987D01*
X795777Y896987D01*
G37*
G36*
X795777Y936487D02*
X795777Y926733D01*
X791723Y926733D01*
X791723Y936487D01*
X795777Y936487D01*
G37*
G36*
X800778Y896987D02*
X800778Y887233D01*
X796724Y887233D01*
X796724Y896987D01*
X800778Y896987D01*
G37*
G36*
X800778Y936487D02*
X800778Y926733D01*
X796724Y926733D01*
X796724Y936487D01*
X800778Y936487D01*
G37*
G36*
X805780Y896987D02*
X805780Y887233D01*
X801726Y887233D01*
X801726Y896987D01*
X805780Y896987D01*
G37*
G36*
X805780Y936487D02*
X805780Y926733D01*
X801726Y926733D01*
X801726Y936487D01*
X805780Y936487D01*
G37*
G36*
X818377Y903887D02*
X818377Y899833D01*
X808623Y899833D01*
X808623Y903887D01*
X818377Y903887D01*
G37*
G36*
X818377Y908887D02*
X818377Y904833D01*
X808623Y904833D01*
X808623Y908887D01*
X818377Y908887D01*
G37*
G36*
X818377Y913887D02*
X818377Y909833D01*
X808623Y909833D01*
X808623Y913887D01*
X818377Y913887D01*
G37*
G36*
X818377Y918887D02*
X818377Y914833D01*
X808623Y914833D01*
X808623Y918887D01*
X818377Y918887D01*
G37*
G36*
X818377Y923887D02*
X818377Y919833D01*
X808623Y919833D01*
X808623Y923887D01*
X818377Y923887D01*
G37*
D10*
X187960Y962524D03*
X187960Y945016D03*
X505460Y962524D03*
X505460Y945016D03*
X619760Y962524D03*
X619760Y945016D03*
X594360Y926964D03*
X594360Y909456D03*
X504190Y873624D03*
X504190Y856116D03*
X500380Y798966D03*
X500380Y816474D03*
X556260Y816474D03*
X556260Y798966D03*
X351702Y815204D03*
X351702Y797696D03*
X351790Y741816D03*
X351790Y759324D03*
X426720Y741816D03*
X426720Y759324D03*
X751840Y796154D03*
X751840Y778646D03*
X300990Y962524D03*
X300990Y945016D03*
X162560Y684394D03*
X162560Y666886D03*
D11*
X175124Y629920D03*
X157616Y629920D03*
D10*
X198120Y582794D03*
X198120Y565286D03*
X234950Y582794D03*
X234950Y565286D03*
D11*
X776106Y843280D03*
X793614Y843280D03*
X776106Y868680D03*
X793614Y868680D03*
X776106Y817880D03*
X793614Y817880D03*
X679586Y838200D03*
X697094Y838200D03*
X175124Y603250D03*
X157616Y603250D03*
X275726Y698500D03*
X293234Y698500D03*
D10*
X276860Y926964D03*
X276860Y909456D03*
D11*
X275726Y673100D03*
X293234Y673100D03*
D10*
X33020Y700904D03*
X33020Y683396D03*
D11*
X199536Y713740D03*
X182028Y713740D03*
D10*
X181610Y476386D03*
X181610Y493894D03*
X246380Y476386D03*
X246380Y493894D03*
D11*
X226196Y525780D03*
X243704Y525780D03*
D10*
X62230Y700904D03*
X62230Y683396D03*
X38100Y650104D03*
X38100Y632596D03*
D11*
X95386Y585470D03*
X112894Y585470D03*
D10*
X17780Y590414D03*
X17780Y572906D03*
X186690Y873624D03*
X186690Y856116D03*
X17780Y551044D03*
X17780Y533536D03*
X148590Y487544D03*
X148590Y470036D03*
X121920Y487544D03*
X121920Y470036D03*
D11*
X175396Y521970D03*
X192904Y521970D03*
X762136Y982980D03*
X779644Y982980D03*
D10*
X180340Y800236D03*
X180340Y817744D03*
X236220Y817744D03*
X236220Y800236D03*
X31750Y816474D03*
X31750Y798966D03*
X31750Y741816D03*
X31750Y759324D03*
X106680Y741816D03*
X106680Y759324D03*
D12*
X233680Y925050D03*
X233680Y903750D03*
X254000Y907560D03*
X254000Y928860D03*
X57150Y743730D03*
X57150Y765030D03*
X551180Y925050D03*
X551180Y903750D03*
X571500Y906290D03*
X571500Y927590D03*
X378460Y743730D03*
X378460Y765030D03*
D13*
X211890Y904900D03*
X211890Y914400D03*
X211890Y923900D03*
X186890Y923900D03*
X186890Y914400D03*
X186890Y904900D03*
X534870Y963270D03*
X534870Y953770D03*
X534870Y944270D03*
X559870Y944270D03*
X559870Y963270D03*
D14*
X738310Y857890D03*
X738310Y864230D03*
X738310Y870590D03*
X738310Y876930D03*
X738310Y883290D03*
X738310Y889630D03*
X738310Y895990D03*
X738310Y902330D03*
X684090Y902330D03*
X684090Y895990D03*
X684090Y889630D03*
X684090Y883290D03*
X684090Y876930D03*
X684090Y870590D03*
X684090Y864230D03*
X684090Y857890D03*
D13*
X87830Y649580D03*
X87830Y640080D03*
X87830Y630580D03*
X112830Y630580D03*
X112830Y640080D03*
X112830Y649580D03*
D15*
X42840Y590350D03*
X42840Y585350D03*
X42840Y580350D03*
X42840Y575350D03*
X42840Y570350D03*
X42840Y565350D03*
X63840Y565350D03*
X63840Y570350D03*
X63840Y575350D03*
X63840Y580350D03*
X63840Y585350D03*
X63840Y590350D03*
D16*
X53340Y577850D03*
D13*
X123390Y523850D03*
X123390Y514350D03*
X123390Y504850D03*
X148390Y504850D03*
X148390Y523850D03*
D14*
X684090Y987420D03*
X684090Y981080D03*
X684090Y974720D03*
X684090Y968380D03*
X684090Y962020D03*
X684090Y955680D03*
X684090Y949320D03*
X684090Y942980D03*
X738310Y942980D03*
X738310Y949320D03*
X738310Y955680D03*
X738310Y962020D03*
X738310Y968380D03*
X738310Y974720D03*
X738310Y981080D03*
X738310Y987420D03*
D17*
X243080Y734180D03*
X243080Y739180D03*
X243080Y744180D03*
X243080Y749180D03*
X211580Y749180D03*
X211580Y744180D03*
X211580Y739180D03*
X211580Y734180D03*
D18*
X244810Y874370D03*
X244810Y864870D03*
X244810Y855370D03*
X270810Y855370D03*
X270810Y874370D03*
D13*
X81480Y817220D03*
X81480Y807720D03*
X81480Y798220D03*
X106480Y798220D03*
X106480Y817220D03*
X131010Y758800D03*
X131010Y749300D03*
X131010Y739800D03*
X156010Y739800D03*
X156010Y749300D03*
X156010Y758800D03*
X217370Y962000D03*
X217370Y952500D03*
X217370Y943000D03*
X242370Y943000D03*
X242370Y962000D03*
D18*
X564850Y874370D03*
X564850Y864870D03*
X564850Y855370D03*
X590850Y855370D03*
X590850Y874370D03*
D13*
X529390Y904900D03*
X529390Y914400D03*
X529390Y923900D03*
X504390Y923900D03*
X504390Y914400D03*
X504390Y904900D03*
X400250Y817220D03*
X400250Y807720D03*
X400250Y798220D03*
X425250Y798220D03*
X425250Y817220D03*
X451050Y760070D03*
X451050Y750570D03*
X451050Y741070D03*
X476050Y741070D03*
X476050Y750570D03*
X476050Y760070D03*
D19*
X88900Y876300D03*
X63500Y876300D03*
D20*
X139700Y927100D03*
X38100Y927100D03*
D19*
X406400Y876300D03*
X381000Y876300D03*
D20*
X457200Y927100D03*
X355600Y927100D03*
D21*
X276860Y962965D03*
X276860Y944575D03*
D22*
X103175Y838962D03*
X84785Y838962D03*
D21*
X81280Y759765D03*
X81280Y741375D03*
X57150Y798525D03*
X57150Y816915D03*
X594360Y962965D03*
X594360Y944575D03*
X619760Y909015D03*
X619760Y927405D03*
X529590Y855675D03*
X529590Y874065D03*
X600710Y741375D03*
X600710Y759765D03*
X619760Y855675D03*
X619760Y874065D03*
X627380Y741375D03*
X627380Y759765D03*
X525780Y798525D03*
X525780Y816915D03*
X300990Y909015D03*
X300990Y927405D03*
X474980Y798525D03*
X474980Y816915D03*
X449580Y816915D03*
X449580Y798525D03*
D22*
X421945Y842010D03*
X403555Y842010D03*
D21*
X401320Y759765D03*
X401320Y741375D03*
X377190Y798525D03*
X377190Y816915D03*
D22*
X767385Y711200D03*
X748995Y711200D03*
X274015Y600710D03*
X292405Y600710D03*
X292405Y552450D03*
X274015Y552450D03*
X292405Y576580D03*
X274015Y576580D03*
X244145Y713740D03*
X225755Y713740D03*
D21*
X212090Y855675D03*
X212090Y874065D03*
D22*
X225095Y477520D03*
X206705Y477520D03*
D21*
X63500Y650545D03*
X63500Y632155D03*
X133350Y701345D03*
X133350Y682955D03*
D22*
X62535Y506730D03*
X44145Y506730D03*
X102413Y558800D03*
X84023Y558800D03*
X101905Y532130D03*
X83515Y532130D03*
X62535Y532130D03*
X44145Y532130D03*
D21*
X284480Y741375D03*
X284480Y759765D03*
X299720Y855675D03*
X299720Y874065D03*
X309880Y741375D03*
X309880Y759765D03*
X205740Y799795D03*
X205740Y818185D03*
X154940Y799795D03*
X154940Y818185D03*
X129540Y818185D03*
X129540Y799795D03*
D23*
X263500Y818990D03*
X263500Y813990D03*
X263500Y808990D03*
X263500Y803990D03*
X263500Y798990D03*
X308000Y798990D03*
X308000Y803990D03*
X308000Y808990D03*
X308000Y813990D03*
X308000Y818990D03*
X583540Y818990D03*
X583540Y813990D03*
X583540Y808990D03*
X583540Y803990D03*
X583540Y798990D03*
X628040Y798990D03*
X628040Y803990D03*
X628040Y808990D03*
X628040Y813990D03*
X628040Y818990D03*
D24*
X862380Y674380D03*
X836980Y674380D03*
X811580Y674380D03*
X786180Y674380D03*
X760780Y674380D03*
X735380Y674380D03*
X709980Y674380D03*
X684580Y674380D03*
X659180Y674380D03*
X633780Y674380D03*
X608380Y674380D03*
X582980Y674380D03*
X557580Y674380D03*
X532180Y674380D03*
X506780Y674380D03*
X481380Y674380D03*
X455980Y674380D03*
X430580Y674380D03*
X405180Y674380D03*
X379780Y674380D03*
X379780Y474380D03*
X405180Y474380D03*
X430580Y474380D03*
X455980Y474380D03*
X481380Y474380D03*
X506780Y474380D03*
X532180Y474380D03*
X557580Y474380D03*
X582980Y474380D03*
X608380Y474380D03*
X633780Y474380D03*
X659180Y474380D03*
X684580Y474380D03*
X709980Y474380D03*
X735380Y474380D03*
X760780Y474380D03*
X786180Y474380D03*
X811580Y474380D03*
X836980Y474380D03*
X862380Y474380D03*
D25*
X861080Y601630D03*
X861080Y547130D03*
D26*
X830780Y598630D03*
X830780Y550130D03*
D27*
X371830Y599780D03*
X371830Y574380D03*
X371830Y548980D03*
D28*
X259270Y662178D03*
X252770Y662178D03*
X246270Y662178D03*
X239770Y662178D03*
X233270Y662178D03*
X226770Y662178D03*
X220270Y662178D03*
X213770Y662178D03*
X207270Y662178D03*
X200770Y662178D03*
X194270Y662178D03*
X187770Y662178D03*
X187770Y605282D03*
X194270Y605282D03*
X200770Y605282D03*
X207270Y605282D03*
X213770Y605282D03*
X220270Y605282D03*
X226770Y605282D03*
X233270Y605282D03*
X239770Y605282D03*
X246270Y605282D03*
X252770Y605282D03*
X259270Y605282D03*
D29*
X774000Y921860D03*
X774000Y916860D03*
X774000Y911860D03*
X774000Y906860D03*
X774000Y901860D03*
D30*
X783747Y892110D03*
X788749Y892110D03*
X793750Y892110D03*
X798751Y892110D03*
X803753Y892110D03*
D29*
X813500Y901860D03*
X813500Y906860D03*
X813500Y911860D03*
X813500Y916860D03*
X813500Y921860D03*
D30*
X803753Y931610D03*
X798751Y931610D03*
X793750Y931610D03*
X788749Y931610D03*
X783747Y931610D03*
D31*
X311912Y511150D03*
X311912Y501650D03*
X311912Y492150D03*
X335788Y492150D03*
X335788Y511150D03*
X110236Y682650D03*
X110236Y692150D03*
X110236Y701650D03*
X87884Y701650D03*
X87884Y692150D03*
X87884Y682650D03*
D32*
X858520Y977900D03*
D33*
X858520Y952500D03*
X858520Y927100D03*
X858520Y901700D03*
X858520Y876300D03*
X858520Y850900D03*
X858520Y825500D03*
D34*
X831850Y754380D03*
D35*
X857600Y780130D03*
X806100Y780130D03*
X806100Y728630D03*
X857600Y728630D03*
D36*
X288630Y495150D03*
X288630Y508150D03*
X267630Y501650D03*
D37*
X80895Y586926D03*
X351790Y838200D03*
X308610Y838200D03*
X504190Y891540D03*
X571500Y891540D03*
X207010Y491490D03*
X207010Y509270D03*
X51054Y617220D03*
X279400Y808990D03*
X321310Y828040D03*
X81280Y784860D03*
X130810Y770890D03*
X182880Y759460D03*
X485140Y862330D03*
X665480Y889000D03*
X318770Y782094D03*
X715010Y974090D03*
X700866Y872664D03*
X180340Y749300D03*
X492760Y750570D03*
X125730Y640080D03*
X312420Y576580D03*
X140970Y640080D03*
X715010Y916940D03*
X720090Y981710D03*
X701266Y864293D03*
X492760Y741680D03*
X177107Y738563D03*
X125730Y631190D03*
X308610Y552450D03*
X720316Y922166D03*
X256540Y944880D03*
X260350Y985520D03*
X400050Y787400D03*
X450850Y769620D03*
X575310Y946150D03*
X580390Y987016D03*
X600710Y808990D03*
X655320Y807720D03*
X751840Y880110D03*
X557530Y762000D03*
X608330Y698500D03*
X582930Y698500D03*
X532130Y699770D03*
X506730Y699770D03*
X481330Y699770D03*
X455930Y699770D03*
X405130Y699770D03*
X379730Y699770D03*
X455980Y499110D03*
X506780Y499110D03*
X532180Y499110D03*
X762000Y901700D03*
X582930Y502694D03*
X283210Y617220D03*
X256540Y713740D03*
X643890Y530860D03*
X561340Y529590D03*
X393700Y530860D03*
X328930Y471170D03*
X106680Y481330D03*
X63500Y614680D03*
X229870Y942340D03*
X289560Y909320D03*
X276860Y800100D03*
X31750Y772160D03*
X143510Y749300D03*
X547370Y943610D03*
X607060Y908050D03*
X351790Y772160D03*
X699770Y943610D03*
X789940Y982980D03*
X726031Y901700D03*
X710874Y836720D03*
X462280Y754606D03*
X563935Y783761D03*
X243840Y755650D03*
X168910Y713740D03*
X194310Y675640D03*
X214630Y675640D03*
X233680Y675640D03*
X99060Y640080D03*
X87630Y674370D03*
X63500Y673100D03*
X50800Y632460D03*
X162560Y655320D03*
X293370Y711200D03*
X228600Y622300D03*
X259080Y593090D03*
X53340Y556260D03*
X811530Y497840D03*
X817880Y497840D03*
X805180Y497840D03*
X811530Y504190D03*
X205740Y521970D03*
X165100Y494030D03*
X253307Y676217D03*
X430530Y497840D03*
X430530Y699770D03*
X557530Y698500D03*
X826770Y698500D03*
X173990Y580390D03*
X821533Y869950D03*
X101826Y514350D03*
X684530Y650240D03*
X751840Y758190D03*
X725170Y840740D03*
X285859Y516999D03*
X557530Y506194D03*
X684702Y515084D03*
X121920Y570230D03*
X121920Y554990D03*
X862330Y497840D03*
X855980Y497840D03*
X868680Y497840D03*
X862330Y504190D03*
X798447Y942340D03*
X803910Y951230D03*
X824230Y918436D03*
X336550Y664210D03*
X767080Y798830D03*
X717550Y609600D03*
X336550Y657860D03*
X336550Y580390D03*
X336550Y574040D03*
X336550Y603250D03*
X260350Y571500D03*
X246380Y675640D03*
X825500Y908276D03*
X726440Y876300D03*
X680720Y800100D03*
X256540Y726440D03*
X140970Y648970D03*
X30480Y588010D03*
X43180Y544830D03*
X212090Y844550D03*
X220980Y800100D03*
X63500Y787400D03*
X154940Y787400D03*
X529590Y844550D03*
X541020Y798830D03*
X474980Y786130D03*
X386080Y787400D03*
X13970Y632460D03*
X43180Y556486D03*
X101374Y546100D03*
X732790Y650240D03*
X481380Y499110D03*
M02*
