G04 EAGLE Gerber RS-274X export*
G75*
%MOMM*%
%FSLAX34Y34*%
%LPD*%
%INSoldermask Bottom*%
%IPPOS*%
%AMOC8*
5,1,8,0,0,1.08239X$1,22.5*%
G01*
G04 Define Apertures*
%ADD10C,1.985200*%
%ADD11C,3.860800*%
%ADD12R,1.503200X0.503200*%
%ADD13R,2.403200X2.003200*%
%ADD14C,2.003200*%
%ADD15C,1.703200*%
%ADD16R,2.093200X2.093200*%
%ADD17C,2.093200*%
%ADD18C,3.083200*%
%ADD19C,3.623200*%
%ADD20C,0.705600*%
D10*
X88900Y876300D03*
X63500Y876300D03*
D11*
X139700Y927100D03*
X38100Y927100D03*
D10*
X406400Y876300D03*
X381000Y876300D03*
D11*
X457200Y927100D03*
X355600Y927100D03*
D12*
X712410Y823940D03*
X712410Y818940D03*
X712410Y813940D03*
X712410Y808940D03*
X712410Y803940D03*
X712410Y798940D03*
X712410Y793940D03*
X712410Y788940D03*
X712410Y783940D03*
X712410Y778940D03*
X712410Y773940D03*
X712410Y768940D03*
X712410Y763940D03*
X712410Y758940D03*
X712410Y753940D03*
X712410Y748940D03*
X712410Y743940D03*
X712410Y738940D03*
X712410Y733940D03*
X712410Y728940D03*
X712410Y723940D03*
X712410Y718940D03*
X712410Y713940D03*
X712410Y708940D03*
X712410Y703940D03*
X712410Y698940D03*
X712410Y693940D03*
X712410Y688940D03*
X712410Y683940D03*
X712410Y678940D03*
X712410Y673940D03*
X712410Y668940D03*
X712410Y663940D03*
X712410Y658940D03*
X712410Y653940D03*
X712410Y648940D03*
X712410Y643940D03*
X712410Y638940D03*
X712410Y633940D03*
X712410Y628940D03*
D13*
X744910Y842940D03*
X744910Y609940D03*
D14*
X861080Y601630D03*
X861080Y547130D03*
D15*
X830780Y598630D03*
X830780Y550130D03*
D16*
X858520Y977900D03*
D17*
X858520Y952500D03*
X858520Y927100D03*
X858520Y901700D03*
X858520Y876300D03*
X858520Y850900D03*
X858520Y825500D03*
D18*
X831850Y754380D03*
D19*
X857600Y780130D03*
X806100Y780130D03*
X806100Y728630D03*
X857600Y728630D03*
D20*
X80895Y586926D03*
X351790Y838200D03*
X308610Y838200D03*
X504190Y891540D03*
X571500Y891540D03*
X207010Y491490D03*
X207010Y509270D03*
X51054Y617220D03*
X279400Y808990D03*
X321310Y828040D03*
X81280Y784860D03*
X130810Y770890D03*
X182880Y759460D03*
X485140Y862330D03*
X665480Y889000D03*
X318770Y782094D03*
X715010Y974090D03*
X700866Y872664D03*
X180340Y749300D03*
X492760Y750570D03*
X125730Y640080D03*
X312420Y576580D03*
X140970Y640080D03*
X715010Y916940D03*
X720090Y981710D03*
X701266Y864293D03*
X492760Y741680D03*
X177107Y738563D03*
X125730Y631190D03*
X308610Y552450D03*
X720316Y922166D03*
X256540Y944880D03*
X260350Y985520D03*
X400050Y787400D03*
X450850Y769620D03*
X575310Y946150D03*
X580390Y987016D03*
X600710Y808990D03*
X655320Y807720D03*
X751840Y880110D03*
X557530Y762000D03*
X608330Y698500D03*
X582930Y698500D03*
X532130Y699770D03*
X506730Y699770D03*
X481330Y699770D03*
X455930Y699770D03*
X405130Y699770D03*
X379730Y699770D03*
X455980Y499110D03*
X506780Y499110D03*
X532180Y499110D03*
X762000Y901700D03*
X582930Y502694D03*
X283210Y617220D03*
X256540Y713740D03*
X643890Y530860D03*
X561340Y529590D03*
X393700Y530860D03*
X328930Y471170D03*
X106680Y481330D03*
X63500Y614680D03*
X229870Y942340D03*
X289560Y909320D03*
X276860Y800100D03*
X31750Y772160D03*
X143510Y749300D03*
X547370Y943610D03*
X607060Y908050D03*
X351790Y772160D03*
X699770Y943610D03*
X789940Y982980D03*
X726031Y901700D03*
X710874Y836720D03*
X462280Y754606D03*
X563935Y783761D03*
X243840Y755650D03*
X168910Y713740D03*
X194310Y675640D03*
X214630Y675640D03*
X233680Y675640D03*
X99060Y640080D03*
X87630Y674370D03*
X63500Y673100D03*
X50800Y632460D03*
X162560Y655320D03*
X293370Y711200D03*
X228600Y622300D03*
X259080Y593090D03*
X53340Y556260D03*
X811530Y497840D03*
X817880Y497840D03*
X805180Y497840D03*
X811530Y504190D03*
X205740Y521970D03*
X165100Y494030D03*
X253307Y676217D03*
X430530Y497840D03*
X430530Y699770D03*
X557530Y698500D03*
X826770Y698500D03*
X173990Y580390D03*
X821533Y869950D03*
X101826Y514350D03*
X684530Y650240D03*
X751840Y758190D03*
X725170Y840740D03*
X285859Y516999D03*
X557530Y506194D03*
X684702Y515084D03*
X121920Y570230D03*
X121920Y554990D03*
X862330Y497840D03*
X855980Y497840D03*
X868680Y497840D03*
X862330Y504190D03*
X798447Y942340D03*
X803910Y951230D03*
X824230Y918436D03*
X336550Y664210D03*
X767080Y798830D03*
X717550Y609600D03*
X336550Y657860D03*
X336550Y580390D03*
X336550Y574040D03*
X336550Y603250D03*
X260350Y571500D03*
X246380Y675640D03*
X825500Y908276D03*
X726440Y876300D03*
X680720Y800100D03*
X256540Y726440D03*
X140970Y648970D03*
X30480Y588010D03*
X43180Y544830D03*
X212090Y844550D03*
X220980Y800100D03*
X63500Y787400D03*
X154940Y787400D03*
X529590Y844550D03*
X541020Y798830D03*
X474980Y786130D03*
X386080Y787400D03*
X13970Y632460D03*
X43180Y556486D03*
X101374Y546100D03*
X732790Y650240D03*
X481380Y499110D03*
M02*
