M48
;GenerationSoftware,Autodesk,EAGLE,9.7.0*%
;CreationDate,2024-01-30T15:04:57Z*%
FMAT,2
ICI,OFF
METRIC,TZ,000.000
T8C0.350
T7C0.990
T6C1.050
T5C1.500
T4C1.600
T3C1.800
T2C1.900
T1C2.032
%
G90
M71
T1
X13970Y92710
X3810Y92710
X45720Y92710
X35560Y92710
T2
X85760Y72863
X85760Y78013
X80610Y78013
X80610Y72863
T3
X86108Y60163
X86108Y54713
T4
X83185Y75438
T5
X83078Y59863
X83078Y55013
T6
X85852Y97790
X85852Y95250
X85852Y92710
X85852Y90170
X85852Y87630
X85852Y85090
X85852Y82550
T7
X8890Y87630
X6350Y87630
X40640Y87630
X38100Y87630
T8
X72009Y98171
X70127Y86429
X49276Y74168
X17711Y73856
X12573Y63119
X30861Y55245
X72032Y92217
X25654Y94488
X26035Y98552
X40005Y78740
X45085Y76962
X57531Y94615
X58039Y98702
X60071Y80899
X65532Y80772
X75184Y88011
X55753Y76200
X60833Y69850
X58293Y69850
X53213Y69977
X50673Y69977
X48133Y69977
X45593Y69977
X40513Y69977
X37973Y69977
X76962Y78740
X77216Y77216
X45593Y50165
X50673Y51054
X53213Y51562
X58293Y50292
X76200Y90170
X28321Y61722
X25654Y71374
X64389Y53086
X56134Y52959
X39370Y53086
X32893Y47117
X10668Y48133
X6350Y61468
X22987Y94234
X28956Y90932
X27686Y80010
X3175Y77216
X14351Y74930
X54737Y94361
X60706Y90805
X35179Y77216
X69977Y94361
X78994Y98298
X72603Y90170
X71087Y83672
X46228Y75461
X56393Y78376
X24384Y75565
X16891Y71374
X19431Y67564
X21463Y67564
X23368Y67564
X9906Y64008
X8763Y67437
X6350Y67310
X31242Y57658
X16256Y65532
X29337Y71120
X22860Y62230
X25908Y59309
X5334Y55626
X81153Y49784
X81788Y49784
X80518Y49784
X81153Y50419
X20574Y52197
X16510Y49403
X25331Y67622
X43053Y49784
X55753Y49784
X43053Y69977
X55753Y69850
X68453Y49761
X82677Y69850
X17399Y58039
X82153Y86995
X10183Y51435
X68453Y65024
X75184Y75819
X72517Y84074
X28586Y51700
X12192Y57023
X12192Y55499
X86233Y49784
X85598Y49784
X86868Y49784
X86233Y50419
X79845Y94234
X80391Y95123
X82423Y91844
X33655Y66421
X76708Y79883
X72898Y60960
X33655Y65786
X33655Y58039
X33655Y57404
X33655Y60325
X26035Y57150
X24638Y67564
X8090Y58693
X72644Y87630
X68072Y80010
X25654Y72644
X14097Y64897
X3048Y58801
X4318Y54483
X21209Y84455
X22098Y80010
X6350Y78740
X15494Y78740
X52959Y84455
X54102Y79883
X47498Y78613
X38608Y78740
X1397Y63246
X4318Y55649
X10137Y54610
X73279Y65024
X35179Y83820
X30861Y83820
X5080Y63246
X50419Y89154
X57150Y89154
X20701Y49149
X20701Y50927
X5105Y61722
X27940Y80899
X32131Y82804
X8128Y78486
X13081Y77089
X18288Y75946
X48514Y86233
X66548Y88900
X31877Y78209
X71501Y97409
X70087Y87266
X18034Y74930
X49276Y75057
X12573Y64008
X14097Y64008
X71501Y91694
X82550Y90828
M30