G04 EAGLE Gerber RS-274X export*
G75*
%MOMM*%
%FSLAX34Y34*%
%LPD*%
%INSilkscreen Bottom*%
%IPPOS*%
%AMOC8*
5,1,8,0,0,1.08239X$1,22.5*%
G01*
G04 Define Apertures*
%ADD10C,0.508000*%
%ADD11C,0.152400*%
%ADD12C,0.200000*%
%ADD13C,0.100000*%
G36*
X682530Y726348D02*
X681304Y726348D01*
X681304Y732164D01*
X678510Y732164D01*
X678510Y733653D01*
X681304Y733653D01*
X681304Y735387D01*
X682548Y735387D01*
X682548Y733653D01*
X690851Y733653D01*
X690851Y731998D01*
X682530Y726348D01*
G37*
%LPC*%
G36*
X682548Y727802D02*
X682723Y727942D01*
X683371Y728415D01*
X688031Y731577D01*
X688609Y731919D01*
X689073Y732164D01*
X682548Y732164D01*
X682548Y727802D01*
G37*
%LPD*%
G36*
X681575Y717248D02*
X681183Y717331D01*
X680816Y717435D01*
X680474Y717558D01*
X680158Y717701D01*
X679867Y717864D01*
X679601Y718047D01*
X679360Y718249D01*
X679145Y718472D01*
X678955Y718715D01*
X678791Y718977D01*
X678651Y719260D01*
X678537Y719562D01*
X678449Y719884D01*
X678385Y720226D01*
X678348Y720589D01*
X678335Y720970D01*
X678351Y721382D01*
X678399Y721771D01*
X678480Y722137D01*
X678592Y722481D01*
X678737Y722803D01*
X678914Y723102D01*
X679123Y723379D01*
X679364Y723633D01*
X679633Y723861D01*
X679926Y724058D01*
X680244Y724226D01*
X680585Y724362D01*
X680950Y724469D01*
X681339Y724545D01*
X681752Y724590D01*
X682189Y724605D01*
X690851Y724605D01*
X690851Y720568D01*
X689484Y720568D01*
X689484Y722941D01*
X682154Y722941D01*
X681860Y722933D01*
X681586Y722908D01*
X681329Y722867D01*
X681090Y722810D01*
X680870Y722736D01*
X680668Y722646D01*
X680484Y722539D01*
X680319Y722416D01*
X680172Y722278D01*
X680045Y722129D01*
X679937Y721967D01*
X679849Y721794D01*
X679780Y721608D01*
X679732Y721411D01*
X679702Y721201D01*
X679692Y720979D01*
X679701Y720776D01*
X679728Y720581D01*
X679772Y720395D01*
X679835Y720217D01*
X679915Y720049D01*
X680013Y719889D01*
X680128Y719738D01*
X680262Y719595D01*
X680411Y719464D01*
X680574Y719344D01*
X680752Y719237D01*
X680943Y719142D01*
X681148Y719060D01*
X681367Y718989D01*
X681600Y718932D01*
X681847Y718886D01*
X681575Y717248D01*
G37*
D10*
X657860Y806450D02*
X657860Y832866D01*
X657855Y833268D01*
X657840Y833670D01*
X657816Y834071D01*
X657782Y834472D01*
X657738Y834871D01*
X657684Y835270D01*
X657621Y835667D01*
X657548Y836062D01*
X657465Y836456D01*
X657373Y836847D01*
X657271Y837236D01*
X657160Y837623D01*
X657039Y838006D01*
X656910Y838387D01*
X656771Y838764D01*
X656622Y839138D01*
X656465Y839508D01*
X656299Y839874D01*
X656124Y840236D01*
X655940Y840593D01*
X655748Y840946D01*
X655547Y841294D01*
X655337Y841638D01*
X655119Y841976D01*
X654893Y842308D01*
X654659Y842635D01*
X654418Y842956D01*
X654168Y843272D01*
X653911Y843581D01*
X653646Y843883D01*
X653374Y844180D01*
X653095Y844469D01*
X652809Y844752D01*
X652516Y845027D01*
X652217Y845295D01*
X651911Y845556D01*
X651599Y845810D01*
X651281Y846056D01*
X650956Y846293D01*
X650627Y846523D01*
X650291Y846745D01*
X649951Y846959D01*
X649605Y847164D01*
X649254Y847361D01*
X648899Y847549D01*
X648539Y847729D01*
X648175Y847899D01*
X647807Y848061D01*
X647435Y848214D01*
X647060Y848357D01*
X646681Y848492D01*
X646299Y848617D01*
X645914Y848733D01*
X645526Y848839D01*
X645136Y848936D01*
X644743Y849024D01*
X644349Y849101D01*
X643953Y849170D01*
X643555Y849228D01*
X643156Y849277D01*
X642756Y849316D01*
X642355Y849345D01*
X641953Y849365D01*
X641551Y849375D01*
X641149Y849375D01*
X640747Y849365D01*
X640345Y849345D01*
X639944Y849316D01*
X639544Y849277D01*
X639145Y849228D01*
X638747Y849170D01*
X638351Y849101D01*
X637957Y849024D01*
X637564Y848936D01*
X637174Y848839D01*
X636786Y848733D01*
X636401Y848617D01*
X636019Y848492D01*
X635640Y848357D01*
X635265Y848214D01*
X634893Y848061D01*
X634525Y847899D01*
X634161Y847729D01*
X633801Y847549D01*
X633446Y847361D01*
X633095Y847164D01*
X632749Y846959D01*
X632409Y846745D01*
X632073Y846523D01*
X631744Y846293D01*
X631419Y846056D01*
X631101Y845810D01*
X630789Y845556D01*
X630483Y845295D01*
X630184Y845027D01*
X629891Y844752D01*
X629605Y844469D01*
X629326Y844180D01*
X629054Y843883D01*
X628789Y843581D01*
X628532Y843272D01*
X628282Y842956D01*
X628041Y842635D01*
X627807Y842308D01*
X627581Y841976D01*
X627363Y841638D01*
X627153Y841294D01*
X626952Y840946D01*
X626760Y840593D01*
X626576Y840236D01*
X626401Y839874D01*
X626235Y839508D01*
X626078Y839138D01*
X625929Y838764D01*
X625790Y838387D01*
X625661Y838006D01*
X625540Y837623D01*
X625429Y837236D01*
X625327Y836847D01*
X625235Y836456D01*
X625152Y836062D01*
X625079Y835667D01*
X625016Y835270D01*
X624962Y834871D01*
X624918Y834472D01*
X624884Y834071D01*
X624860Y833670D01*
X624845Y833268D01*
X624840Y832866D01*
X624840Y806450D01*
X624845Y806048D01*
X624860Y805646D01*
X624884Y805245D01*
X624918Y804844D01*
X624962Y804445D01*
X625016Y804046D01*
X625079Y803649D01*
X625152Y803254D01*
X625235Y802860D01*
X625327Y802469D01*
X625429Y802080D01*
X625540Y801693D01*
X625661Y801310D01*
X625790Y800929D01*
X625929Y800552D01*
X626078Y800178D01*
X626235Y799808D01*
X626401Y799442D01*
X626576Y799080D01*
X626760Y798723D01*
X626952Y798370D01*
X627153Y798022D01*
X627363Y797678D01*
X627581Y797340D01*
X627807Y797008D01*
X628041Y796681D01*
X628282Y796360D01*
X628532Y796044D01*
X628789Y795735D01*
X629054Y795433D01*
X629326Y795136D01*
X629605Y794847D01*
X629891Y794564D01*
X630184Y794289D01*
X630483Y794021D01*
X630789Y793760D01*
X631101Y793506D01*
X631419Y793260D01*
X631744Y793023D01*
X632073Y792793D01*
X632409Y792571D01*
X632749Y792357D01*
X633095Y792152D01*
X633446Y791955D01*
X633801Y791767D01*
X634161Y791587D01*
X634525Y791417D01*
X634893Y791255D01*
X635265Y791102D01*
X635640Y790959D01*
X636019Y790824D01*
X636401Y790699D01*
X636786Y790583D01*
X637174Y790477D01*
X637564Y790380D01*
X637957Y790292D01*
X638351Y790215D01*
X638747Y790146D01*
X639145Y790088D01*
X639544Y790039D01*
X639944Y790000D01*
X640345Y789971D01*
X640747Y789951D01*
X641149Y789941D01*
X641551Y789941D01*
X641953Y789951D01*
X642355Y789971D01*
X642756Y790000D01*
X643156Y790039D01*
X643555Y790088D01*
X643953Y790146D01*
X644349Y790215D01*
X644743Y790292D01*
X645136Y790380D01*
X645526Y790477D01*
X645914Y790583D01*
X646299Y790699D01*
X646681Y790824D01*
X647060Y790959D01*
X647435Y791102D01*
X647807Y791255D01*
X648175Y791417D01*
X648539Y791587D01*
X648899Y791767D01*
X649254Y791955D01*
X649605Y792152D01*
X649951Y792357D01*
X650291Y792571D01*
X650627Y792793D01*
X650956Y793023D01*
X651281Y793260D01*
X651599Y793506D01*
X651911Y793760D01*
X652217Y794021D01*
X652516Y794289D01*
X652809Y794564D01*
X653095Y794847D01*
X653374Y795136D01*
X653646Y795433D01*
X653911Y795735D01*
X654168Y796044D01*
X654418Y796360D01*
X654659Y796681D01*
X654893Y797008D01*
X655119Y797340D01*
X655337Y797678D01*
X655547Y798022D01*
X655748Y798370D01*
X655940Y798723D01*
X656124Y799080D01*
X656299Y799442D01*
X656465Y799808D01*
X656622Y800178D01*
X656771Y800552D01*
X656910Y800929D01*
X657039Y801310D01*
X657160Y801693D01*
X657271Y802080D01*
X657373Y802469D01*
X657465Y802860D01*
X657548Y803254D01*
X657621Y803649D01*
X657684Y804046D01*
X657738Y804445D01*
X657782Y804844D01*
X657816Y805245D01*
X657840Y805646D01*
X657855Y806048D01*
X657860Y806450D01*
X604444Y813054D02*
X587934Y806450D01*
X604444Y813053D02*
X604636Y813133D01*
X604827Y813218D01*
X605015Y813307D01*
X605202Y813400D01*
X605386Y813498D01*
X605567Y813601D01*
X605746Y813708D01*
X605922Y813819D01*
X606096Y813935D01*
X606266Y814054D01*
X606434Y814178D01*
X606599Y814306D01*
X606760Y814438D01*
X606918Y814574D01*
X607073Y814713D01*
X607225Y814856D01*
X607372Y815003D01*
X607517Y815154D01*
X607657Y815308D01*
X607794Y815465D01*
X607927Y815626D01*
X608056Y815789D01*
X608181Y815956D01*
X608301Y816126D01*
X608418Y816299D01*
X608530Y816475D01*
X608638Y816653D01*
X608742Y816834D01*
X608841Y817017D01*
X608936Y817202D01*
X609027Y817390D01*
X609112Y817580D01*
X609193Y817772D01*
X609269Y817966D01*
X609341Y818162D01*
X609408Y818360D01*
X609470Y818559D01*
X609527Y818759D01*
X609579Y818961D01*
X609626Y819164D01*
X609668Y819368D01*
X609706Y819573D01*
X609738Y819779D01*
X609765Y819986D01*
X609788Y820193D01*
X609805Y820401D01*
X609817Y820609D01*
X609824Y820817D01*
X609826Y821026D01*
X609823Y821234D01*
X609815Y821442D01*
X609801Y821650D01*
X609783Y821858D01*
X609760Y822065D01*
X609732Y822272D01*
X609698Y822477D01*
X609660Y822682D01*
X609616Y822886D01*
X609568Y823089D01*
X609515Y823290D01*
X609457Y823490D01*
X609394Y823689D01*
X609326Y823886D01*
X609253Y824082D01*
X609176Y824275D01*
X609094Y824467D01*
X609007Y824656D01*
X608916Y824844D01*
X608820Y825029D01*
X608720Y825212D01*
X608615Y825392D01*
X608506Y825570D01*
X608393Y825745D01*
X608276Y825917D01*
X608154Y826086D01*
X608028Y826252D01*
X607898Y826415D01*
X607765Y826575D01*
X607627Y826732D01*
X607486Y826885D01*
X607341Y827035D01*
X607192Y827181D01*
X607040Y827323D01*
X606884Y827462D01*
X606725Y827597D01*
X606563Y827728D01*
X606398Y827855D01*
X606230Y827978D01*
X606058Y828097D01*
X605884Y828211D01*
X605708Y828322D01*
X605528Y828428D01*
X605346Y828529D01*
X605162Y828626D01*
X604975Y828719D01*
X604786Y828807D01*
X604595Y828890D01*
X604402Y828969D01*
X604207Y829043D01*
X604011Y829113D01*
X603812Y829177D01*
X603613Y829237D01*
X603411Y829291D01*
X603209Y829341D01*
X603005Y829386D01*
X602801Y829426D01*
X602595Y829461D01*
X602389Y829491D01*
X602182Y829516D01*
X601975Y829535D01*
X601767Y829550D01*
X601559Y829560D01*
X601350Y829565D01*
X601142Y829564D01*
X601141Y829564D02*
X600240Y829540D01*
X599340Y829495D01*
X598440Y829428D01*
X597543Y829339D01*
X596648Y829229D01*
X595756Y829098D01*
X594868Y828945D01*
X593983Y828770D01*
X593103Y828575D01*
X592228Y828358D01*
X591358Y828120D01*
X590494Y827862D01*
X589637Y827583D01*
X588787Y827283D01*
X587944Y826963D01*
X587109Y826622D01*
X586282Y826262D01*
X587934Y806451D02*
X587742Y806371D01*
X587551Y806286D01*
X587363Y806197D01*
X587176Y806104D01*
X586992Y806006D01*
X586811Y805903D01*
X586632Y805796D01*
X586456Y805685D01*
X586282Y805569D01*
X586112Y805450D01*
X585944Y805326D01*
X585779Y805198D01*
X585618Y805066D01*
X585460Y804930D01*
X585305Y804791D01*
X585153Y804648D01*
X585006Y804501D01*
X584861Y804350D01*
X584721Y804196D01*
X584584Y804039D01*
X584451Y803878D01*
X584322Y803715D01*
X584197Y803548D01*
X584077Y803378D01*
X583960Y803205D01*
X583848Y803029D01*
X583740Y802851D01*
X583636Y802670D01*
X583537Y802487D01*
X583442Y802302D01*
X583351Y802114D01*
X583266Y801924D01*
X583185Y801732D01*
X583109Y801538D01*
X583037Y801342D01*
X582970Y801144D01*
X582908Y800945D01*
X582851Y800745D01*
X582799Y800543D01*
X582752Y800340D01*
X582710Y800136D01*
X582672Y799931D01*
X582640Y799725D01*
X582613Y799518D01*
X582590Y799311D01*
X582573Y799103D01*
X582561Y798895D01*
X582554Y798687D01*
X582552Y798478D01*
X582555Y798270D01*
X582563Y798062D01*
X582577Y797854D01*
X582595Y797646D01*
X582618Y797439D01*
X582646Y797232D01*
X582680Y797027D01*
X582718Y796822D01*
X582762Y796618D01*
X582810Y796415D01*
X582863Y796214D01*
X582921Y796014D01*
X582984Y795815D01*
X583052Y795618D01*
X583125Y795422D01*
X583202Y795229D01*
X583284Y795037D01*
X583371Y794848D01*
X583462Y794660D01*
X583558Y794475D01*
X583658Y794292D01*
X583763Y794112D01*
X583872Y793934D01*
X583985Y793759D01*
X584102Y793587D01*
X584224Y793418D01*
X584350Y793252D01*
X584480Y793089D01*
X584613Y792929D01*
X584751Y792772D01*
X584892Y792619D01*
X585037Y792469D01*
X585186Y792323D01*
X585338Y792181D01*
X585494Y792042D01*
X585653Y791907D01*
X585815Y791776D01*
X585980Y791649D01*
X586148Y791526D01*
X586320Y791407D01*
X586494Y791293D01*
X586670Y791182D01*
X586850Y791076D01*
X587032Y790975D01*
X587216Y790878D01*
X587403Y790785D01*
X587592Y790697D01*
X587783Y790614D01*
X587976Y790535D01*
X588171Y790461D01*
X588367Y790391D01*
X588566Y790327D01*
X588765Y790267D01*
X588967Y790213D01*
X589169Y790163D01*
X589373Y790118D01*
X589577Y790078D01*
X589783Y790043D01*
X589989Y790013D01*
X590196Y789988D01*
X590403Y789969D01*
X590611Y789954D01*
X590819Y789944D01*
X591028Y789939D01*
X591236Y789940D01*
X591236Y789941D02*
X592560Y789975D01*
X593883Y790041D01*
X595204Y790138D01*
X596522Y790267D01*
X597837Y790426D01*
X599147Y790617D01*
X600453Y790838D01*
X601753Y791091D01*
X603047Y791374D01*
X604334Y791687D01*
X605613Y792031D01*
X606884Y792405D01*
X608145Y792809D01*
X609397Y793243D01*
X566052Y789940D02*
X566052Y849376D01*
X549542Y849376D01*
X549140Y849371D01*
X548738Y849356D01*
X548337Y849332D01*
X547936Y849298D01*
X547537Y849254D01*
X547138Y849200D01*
X546741Y849137D01*
X546346Y849064D01*
X545952Y848981D01*
X545561Y848889D01*
X545172Y848787D01*
X544785Y848676D01*
X544402Y848555D01*
X544021Y848426D01*
X543644Y848287D01*
X543270Y848138D01*
X542900Y847981D01*
X542534Y847815D01*
X542172Y847640D01*
X541815Y847456D01*
X541462Y847264D01*
X541114Y847063D01*
X540770Y846853D01*
X540432Y846635D01*
X540100Y846409D01*
X539773Y846175D01*
X539452Y845934D01*
X539136Y845684D01*
X538827Y845427D01*
X538525Y845162D01*
X538228Y844890D01*
X537939Y844611D01*
X537656Y844325D01*
X537381Y844032D01*
X537113Y843733D01*
X536852Y843427D01*
X536598Y843115D01*
X536352Y842797D01*
X536115Y842472D01*
X535885Y842143D01*
X535663Y841807D01*
X535449Y841467D01*
X535244Y841121D01*
X535047Y840770D01*
X534859Y840415D01*
X534679Y840055D01*
X534509Y839691D01*
X534347Y839323D01*
X534194Y838951D01*
X534051Y838576D01*
X533916Y838197D01*
X533791Y837815D01*
X533675Y837430D01*
X533569Y837042D01*
X533472Y836652D01*
X533384Y836259D01*
X533307Y835865D01*
X533238Y835469D01*
X533180Y835071D01*
X533131Y834672D01*
X533092Y834272D01*
X533063Y833871D01*
X533043Y833469D01*
X533033Y833067D01*
X533033Y832665D01*
X533043Y832263D01*
X533063Y831861D01*
X533092Y831460D01*
X533131Y831060D01*
X533180Y830661D01*
X533238Y830263D01*
X533307Y829867D01*
X533384Y829473D01*
X533472Y829080D01*
X533569Y828690D01*
X533675Y828302D01*
X533791Y827917D01*
X533916Y827535D01*
X534051Y827156D01*
X534194Y826781D01*
X534347Y826409D01*
X534509Y826041D01*
X534679Y825677D01*
X534859Y825317D01*
X535047Y824962D01*
X535244Y824611D01*
X535449Y824265D01*
X535663Y823925D01*
X535885Y823589D01*
X536115Y823260D01*
X536352Y822935D01*
X536598Y822617D01*
X536852Y822305D01*
X537113Y821999D01*
X537381Y821700D01*
X537656Y821407D01*
X537939Y821121D01*
X538228Y820842D01*
X538525Y820570D01*
X538827Y820305D01*
X539136Y820048D01*
X539452Y819798D01*
X539773Y819557D01*
X540100Y819323D01*
X540432Y819097D01*
X540770Y818879D01*
X541114Y818669D01*
X541462Y818468D01*
X541815Y818276D01*
X542172Y818092D01*
X542534Y817917D01*
X542900Y817751D01*
X543270Y817594D01*
X543644Y817445D01*
X544021Y817306D01*
X544402Y817177D01*
X544785Y817056D01*
X545172Y816945D01*
X545561Y816843D01*
X545952Y816751D01*
X546346Y816668D01*
X546741Y816595D01*
X547138Y816532D01*
X547537Y816478D01*
X547936Y816434D01*
X548337Y816400D01*
X548738Y816376D01*
X549140Y816361D01*
X549542Y816356D01*
X566052Y816356D01*
X517157Y829564D02*
X517157Y789940D01*
X518808Y846074D02*
X518808Y849376D01*
X515506Y849376D01*
X515506Y846074D01*
X518808Y846074D01*
X472503Y849376D02*
X472503Y789940D01*
X472503Y849376D02*
X455993Y849376D01*
X455591Y849371D01*
X455189Y849356D01*
X454788Y849332D01*
X454387Y849298D01*
X453988Y849254D01*
X453589Y849200D01*
X453192Y849137D01*
X452797Y849064D01*
X452403Y848981D01*
X452012Y848889D01*
X451623Y848787D01*
X451236Y848676D01*
X450853Y848555D01*
X450472Y848426D01*
X450095Y848287D01*
X449721Y848138D01*
X449351Y847981D01*
X448985Y847815D01*
X448623Y847640D01*
X448266Y847456D01*
X447913Y847264D01*
X447565Y847063D01*
X447221Y846853D01*
X446883Y846635D01*
X446551Y846409D01*
X446224Y846175D01*
X445903Y845934D01*
X445587Y845684D01*
X445278Y845427D01*
X444976Y845162D01*
X444679Y844890D01*
X444390Y844611D01*
X444107Y844325D01*
X443832Y844032D01*
X443564Y843733D01*
X443303Y843427D01*
X443049Y843115D01*
X442803Y842797D01*
X442566Y842472D01*
X442336Y842143D01*
X442114Y841807D01*
X441900Y841467D01*
X441695Y841121D01*
X441498Y840770D01*
X441310Y840415D01*
X441130Y840055D01*
X440960Y839691D01*
X440798Y839323D01*
X440645Y838951D01*
X440502Y838576D01*
X440367Y838197D01*
X440242Y837815D01*
X440126Y837430D01*
X440020Y837042D01*
X439923Y836652D01*
X439835Y836259D01*
X439758Y835865D01*
X439689Y835469D01*
X439631Y835071D01*
X439582Y834672D01*
X439543Y834272D01*
X439514Y833871D01*
X439494Y833469D01*
X439484Y833067D01*
X439484Y832665D01*
X439494Y832263D01*
X439514Y831861D01*
X439543Y831460D01*
X439582Y831060D01*
X439631Y830661D01*
X439689Y830263D01*
X439758Y829867D01*
X439835Y829473D01*
X439923Y829080D01*
X440020Y828690D01*
X440126Y828302D01*
X440242Y827917D01*
X440367Y827535D01*
X440502Y827156D01*
X440645Y826781D01*
X440798Y826409D01*
X440960Y826041D01*
X441130Y825677D01*
X441310Y825317D01*
X441498Y824962D01*
X441695Y824611D01*
X441900Y824265D01*
X442114Y823925D01*
X442336Y823589D01*
X442566Y823260D01*
X442803Y822935D01*
X443049Y822617D01*
X443303Y822305D01*
X443564Y821999D01*
X443832Y821700D01*
X444107Y821407D01*
X444390Y821121D01*
X444679Y820842D01*
X444976Y820570D01*
X445278Y820305D01*
X445587Y820048D01*
X445903Y819798D01*
X446224Y819557D01*
X446551Y819323D01*
X446883Y819097D01*
X447221Y818879D01*
X447565Y818669D01*
X447913Y818468D01*
X448266Y818276D01*
X448623Y818092D01*
X448985Y817917D01*
X449351Y817751D01*
X449721Y817594D01*
X450095Y817445D01*
X450472Y817306D01*
X450853Y817177D01*
X451236Y817056D01*
X451623Y816945D01*
X452012Y816843D01*
X452403Y816751D01*
X452797Y816668D01*
X453192Y816595D01*
X453589Y816532D01*
X453988Y816478D01*
X454387Y816434D01*
X454788Y816400D01*
X455189Y816376D01*
X455591Y816361D01*
X455993Y816356D01*
X472503Y816356D01*
X423608Y829564D02*
X423608Y789940D01*
X425259Y846074D02*
X425259Y849376D01*
X421957Y849376D01*
X421957Y846074D01*
X425259Y846074D01*
X396281Y789940D02*
X383073Y789940D01*
X396281Y789940D02*
X396520Y789943D01*
X396760Y789952D01*
X396999Y789966D01*
X397237Y789986D01*
X397475Y790012D01*
X397712Y790044D01*
X397949Y790081D01*
X398184Y790125D01*
X398419Y790173D01*
X398652Y790228D01*
X398883Y790288D01*
X399114Y790354D01*
X399342Y790425D01*
X399569Y790502D01*
X399794Y790584D01*
X400017Y790671D01*
X400237Y790764D01*
X400455Y790863D01*
X400671Y790966D01*
X400885Y791075D01*
X401095Y791188D01*
X401303Y791307D01*
X401508Y791431D01*
X401710Y791560D01*
X401908Y791694D01*
X402104Y791832D01*
X402296Y791975D01*
X402484Y792123D01*
X402669Y792275D01*
X402850Y792431D01*
X403027Y792592D01*
X403200Y792757D01*
X403370Y792927D01*
X403535Y793100D01*
X403696Y793277D01*
X403852Y793458D01*
X404004Y793643D01*
X404152Y793831D01*
X404295Y794023D01*
X404433Y794219D01*
X404567Y794417D01*
X404696Y794619D01*
X404820Y794824D01*
X404939Y795032D01*
X405052Y795242D01*
X405161Y795456D01*
X405264Y795672D01*
X405363Y795890D01*
X405456Y796110D01*
X405543Y796333D01*
X405625Y796558D01*
X405702Y796785D01*
X405773Y797013D01*
X405839Y797244D01*
X405899Y797475D01*
X405954Y797708D01*
X406002Y797943D01*
X406046Y798178D01*
X406083Y798415D01*
X406115Y798652D01*
X406141Y798890D01*
X406161Y799128D01*
X406175Y799367D01*
X406184Y799607D01*
X406187Y799846D01*
X406187Y819658D01*
X406184Y819897D01*
X406175Y820137D01*
X406161Y820376D01*
X406141Y820614D01*
X406115Y820852D01*
X406083Y821089D01*
X406046Y821326D01*
X406002Y821561D01*
X405954Y821796D01*
X405899Y822029D01*
X405839Y822260D01*
X405773Y822491D01*
X405702Y822719D01*
X405625Y822946D01*
X405543Y823171D01*
X405456Y823394D01*
X405363Y823614D01*
X405264Y823832D01*
X405161Y824048D01*
X405052Y824262D01*
X404939Y824472D01*
X404820Y824680D01*
X404696Y824885D01*
X404567Y825087D01*
X404433Y825285D01*
X404295Y825481D01*
X404152Y825673D01*
X404004Y825861D01*
X403852Y826046D01*
X403696Y826227D01*
X403535Y826404D01*
X403370Y826577D01*
X403200Y826747D01*
X403027Y826912D01*
X402850Y827073D01*
X402669Y827229D01*
X402484Y827381D01*
X402296Y827529D01*
X402104Y827672D01*
X401908Y827810D01*
X401710Y827944D01*
X401508Y828073D01*
X401303Y828197D01*
X401095Y828316D01*
X400885Y828429D01*
X400671Y828538D01*
X400455Y828641D01*
X400237Y828740D01*
X400017Y828833D01*
X399794Y828920D01*
X399569Y829002D01*
X399342Y829079D01*
X399114Y829150D01*
X398883Y829216D01*
X398652Y829276D01*
X398419Y829331D01*
X398184Y829379D01*
X397949Y829423D01*
X397712Y829460D01*
X397475Y829492D01*
X397237Y829518D01*
X396999Y829538D01*
X396760Y829552D01*
X396520Y829561D01*
X396281Y829564D01*
X383073Y829564D01*
X369075Y816356D02*
X369075Y803148D01*
X369075Y816356D02*
X369071Y816678D01*
X369059Y816999D01*
X369040Y817320D01*
X369012Y817641D01*
X368977Y817960D01*
X368934Y818279D01*
X368884Y818597D01*
X368825Y818913D01*
X368759Y819228D01*
X368685Y819541D01*
X368604Y819852D01*
X368515Y820161D01*
X368419Y820468D01*
X368315Y820773D01*
X368203Y821074D01*
X368085Y821373D01*
X367959Y821669D01*
X367826Y821962D01*
X367686Y822252D01*
X367539Y822538D01*
X367385Y822820D01*
X367224Y823099D01*
X367057Y823373D01*
X366882Y823644D01*
X366702Y823910D01*
X366515Y824171D01*
X366321Y824428D01*
X366121Y824681D01*
X365916Y824928D01*
X365704Y825170D01*
X365486Y825407D01*
X365263Y825638D01*
X365034Y825864D01*
X364800Y826085D01*
X364561Y826300D01*
X364316Y826508D01*
X364066Y826711D01*
X363811Y826908D01*
X363552Y827098D01*
X363288Y827282D01*
X363020Y827459D01*
X362748Y827630D01*
X362471Y827794D01*
X362191Y827952D01*
X361906Y828102D01*
X361618Y828246D01*
X361327Y828383D01*
X361033Y828512D01*
X360735Y828634D01*
X360435Y828749D01*
X360132Y828857D01*
X359826Y828957D01*
X359518Y829049D01*
X359208Y829135D01*
X358896Y829212D01*
X358582Y829282D01*
X358266Y829344D01*
X357949Y829399D01*
X357631Y829446D01*
X357312Y829485D01*
X356991Y829516D01*
X356671Y829540D01*
X356349Y829555D01*
X356028Y829563D01*
X355706Y829563D01*
X355385Y829555D01*
X355063Y829540D01*
X354743Y829516D01*
X354422Y829485D01*
X354103Y829446D01*
X353785Y829399D01*
X353468Y829344D01*
X353152Y829282D01*
X352838Y829212D01*
X352526Y829135D01*
X352216Y829049D01*
X351908Y828957D01*
X351602Y828857D01*
X351299Y828749D01*
X350999Y828634D01*
X350701Y828512D01*
X350407Y828383D01*
X350116Y828246D01*
X349828Y828102D01*
X349543Y827952D01*
X349263Y827794D01*
X348986Y827630D01*
X348714Y827459D01*
X348446Y827282D01*
X348182Y827098D01*
X347923Y826908D01*
X347668Y826711D01*
X347418Y826508D01*
X347173Y826300D01*
X346934Y826085D01*
X346700Y825864D01*
X346471Y825638D01*
X346248Y825407D01*
X346030Y825170D01*
X345818Y824928D01*
X345613Y824681D01*
X345413Y824428D01*
X345219Y824171D01*
X345032Y823910D01*
X344852Y823644D01*
X344677Y823373D01*
X344510Y823099D01*
X344349Y822820D01*
X344195Y822538D01*
X344048Y822252D01*
X343908Y821962D01*
X343775Y821669D01*
X343649Y821373D01*
X343531Y821074D01*
X343419Y820773D01*
X343315Y820468D01*
X343219Y820161D01*
X343130Y819852D01*
X343049Y819541D01*
X342975Y819228D01*
X342909Y818913D01*
X342850Y818597D01*
X342800Y818279D01*
X342757Y817960D01*
X342722Y817641D01*
X342694Y817320D01*
X342675Y816999D01*
X342663Y816678D01*
X342659Y816356D01*
X342659Y803148D01*
X342663Y802826D01*
X342675Y802505D01*
X342694Y802184D01*
X342722Y801863D01*
X342757Y801544D01*
X342800Y801225D01*
X342850Y800907D01*
X342909Y800591D01*
X342975Y800276D01*
X343049Y799963D01*
X343130Y799652D01*
X343219Y799343D01*
X343315Y799036D01*
X343419Y798731D01*
X343531Y798430D01*
X343649Y798131D01*
X343775Y797835D01*
X343908Y797542D01*
X344048Y797252D01*
X344195Y796966D01*
X344349Y796684D01*
X344510Y796405D01*
X344677Y796131D01*
X344852Y795860D01*
X345032Y795594D01*
X345219Y795333D01*
X345413Y795076D01*
X345613Y794823D01*
X345818Y794576D01*
X346030Y794334D01*
X346248Y794097D01*
X346471Y793866D01*
X346700Y793640D01*
X346934Y793419D01*
X347173Y793204D01*
X347418Y792996D01*
X347668Y792793D01*
X347923Y792596D01*
X348182Y792406D01*
X348446Y792222D01*
X348714Y792045D01*
X348986Y791874D01*
X349263Y791710D01*
X349543Y791552D01*
X349828Y791402D01*
X350116Y791258D01*
X350407Y791121D01*
X350701Y790992D01*
X350999Y790870D01*
X351299Y790755D01*
X351602Y790647D01*
X351908Y790547D01*
X352216Y790455D01*
X352526Y790369D01*
X352838Y790292D01*
X353152Y790222D01*
X353468Y790160D01*
X353785Y790105D01*
X354103Y790058D01*
X354422Y790019D01*
X354743Y789988D01*
X355063Y789964D01*
X355385Y789949D01*
X355706Y789941D01*
X356028Y789941D01*
X356349Y789949D01*
X356671Y789964D01*
X356991Y789988D01*
X357312Y790019D01*
X357631Y790058D01*
X357949Y790105D01*
X358266Y790160D01*
X358582Y790222D01*
X358896Y790292D01*
X359208Y790369D01*
X359518Y790455D01*
X359826Y790547D01*
X360132Y790647D01*
X360435Y790755D01*
X360735Y790870D01*
X361033Y790992D01*
X361327Y791121D01*
X361618Y791258D01*
X361906Y791402D01*
X362191Y791552D01*
X362471Y791710D01*
X362748Y791874D01*
X363020Y792045D01*
X363288Y792222D01*
X363552Y792406D01*
X363811Y792596D01*
X364066Y792793D01*
X364316Y792996D01*
X364561Y793204D01*
X364800Y793419D01*
X365034Y793640D01*
X365263Y793866D01*
X365486Y794097D01*
X365704Y794334D01*
X365916Y794576D01*
X366121Y794823D01*
X366321Y795076D01*
X366515Y795333D01*
X366702Y795594D01*
X366882Y795860D01*
X367057Y796131D01*
X367224Y796405D01*
X367385Y796684D01*
X367539Y796966D01*
X367686Y797252D01*
X367826Y797542D01*
X367959Y797835D01*
X368085Y798131D01*
X368203Y798430D01*
X368315Y798731D01*
X368419Y799036D01*
X368515Y799343D01*
X368604Y799652D01*
X368685Y799963D01*
X368759Y800276D01*
X368825Y800591D01*
X368884Y800907D01*
X368934Y801225D01*
X368977Y801544D01*
X369012Y801863D01*
X369040Y802184D01*
X369059Y802505D01*
X369071Y802826D01*
X369075Y803148D01*
D11*
X248089Y806415D02*
X248021Y807878D01*
X248089Y806415D02*
X248336Y804932D01*
X248021Y807878D02*
X248116Y809311D01*
X248336Y804932D02*
X248776Y803442D01*
X248116Y809311D02*
X248358Y810700D01*
X248732Y812036D01*
X248776Y803442D02*
X249426Y801955D01*
X248732Y812036D02*
X249223Y813305D01*
X249426Y801955D02*
X250300Y800484D01*
X249223Y813305D02*
X249814Y814497D01*
X250300Y800484D02*
X251415Y799039D01*
X249814Y814497D02*
X250490Y815599D01*
X250607Y809462D02*
X250509Y808265D01*
X250543Y807080D01*
X250607Y809462D02*
X250846Y810656D01*
X250543Y807080D02*
X250700Y805921D01*
X250892Y849419D02*
X250842Y849849D01*
X251234Y811831D02*
X250846Y810656D01*
X250842Y849849D02*
X250884Y850232D01*
X250892Y849419D02*
X251050Y848923D01*
X250700Y805921D02*
X250971Y804804D01*
X250884Y850232D02*
X251004Y850588D01*
X251139Y852038D02*
X251048Y852751D01*
X251050Y848923D02*
X251751Y847654D01*
X251415Y851297D02*
X251139Y852038D01*
X251048Y852751D02*
X251141Y853409D01*
X251780Y812973D02*
X251234Y811831D01*
X250490Y815599D02*
X251237Y816600D01*
X250971Y804804D02*
X251348Y803744D01*
X251415Y799039D02*
X251723Y797413D01*
X251004Y850588D02*
X251415Y851297D01*
X251141Y853409D02*
X251420Y853986D01*
X251425Y846686D02*
X251502Y846294D01*
X251425Y846686D02*
X251441Y847052D01*
X251502Y846294D02*
X251673Y845886D01*
X251441Y847052D02*
X251550Y847378D01*
X251673Y845886D02*
X251936Y845474D01*
X251723Y797413D02*
X252121Y795940D01*
X251550Y847378D02*
X251751Y847654D01*
X252493Y814066D02*
X251780Y812973D01*
X251348Y803744D02*
X251822Y802756D01*
X251420Y853986D02*
X251885Y854454D01*
X251936Y845474D02*
X252294Y845069D01*
X252038Y817489D02*
X251237Y816600D01*
X252121Y795940D02*
X253069Y793084D01*
X252746Y844683D02*
X252294Y845069D01*
X251822Y802756D02*
X252385Y801854D01*
X252493Y814066D02*
X253381Y815096D01*
X251885Y854454D02*
X252536Y854787D01*
X252625Y843750D02*
X252668Y843319D01*
X252785Y842908D01*
X252625Y843750D02*
X252746Y844683D01*
X252785Y842908D02*
X252979Y842511D01*
X252877Y818254D02*
X252038Y817489D01*
X253255Y842126D02*
X252979Y842511D01*
X252385Y801854D02*
X253027Y801053D01*
X253069Y793084D02*
X253315Y791705D01*
X253069Y849644D02*
X254722Y849644D01*
X253255Y842126D02*
X254064Y841375D01*
X253315Y791705D02*
X253671Y790419D01*
X253362Y849082D02*
X253069Y849644D01*
X252536Y854787D02*
X253374Y854958D01*
X254453Y816048D02*
X253381Y815096D01*
X253405Y852615D02*
X257371Y852615D01*
X253671Y790419D02*
X254122Y789223D01*
X253721Y848625D02*
X253362Y849082D01*
X253027Y801053D02*
X253741Y800370D01*
X252877Y818254D02*
X253741Y818883D01*
X254235Y846813D02*
X253741Y846995D01*
X254043Y840785D02*
X254191Y840253D01*
X254043Y840785D02*
X254064Y841375D01*
X254068Y851376D02*
X253405Y852615D01*
X253741Y800370D02*
X254078Y800304D01*
X254122Y789223D02*
X254653Y788117D01*
X254463Y839776D02*
X254191Y840253D01*
X254729Y846753D02*
X254235Y846813D01*
X253741Y846995D02*
X254292Y846109D01*
X254399Y819878D02*
X253741Y818883D01*
X254399Y854940D02*
X253374Y854958D01*
X254408Y800351D02*
X254078Y800304D01*
X254428Y850571D02*
X254068Y851376D01*
X254438Y821255D02*
X254399Y819878D01*
X255717Y816907D02*
X254453Y816048D01*
X254811Y839349D02*
X254463Y839776D01*
X254524Y847946D02*
X253721Y848625D01*
X254550Y822536D02*
X254438Y821255D01*
X254653Y788117D02*
X255250Y787100D01*
X254722Y843688D02*
X256376Y843688D01*
X254722Y849644D02*
X254428Y850571D01*
X254729Y846753D02*
X255223Y846813D01*
X254731Y800503D02*
X254408Y800351D01*
X254550Y822536D02*
X254733Y823726D01*
X255555Y838630D02*
X254811Y839349D01*
X254399Y854940D02*
X254842Y855472D01*
X254292Y846109D02*
X254937Y845346D01*
X254983Y824830D02*
X254733Y823726D01*
X255044Y800753D02*
X254731Y800503D01*
X255223Y846813D02*
X255717Y846995D01*
X255250Y787100D02*
X255899Y786171D01*
X255262Y847454D02*
X254524Y847946D01*
X255298Y825852D02*
X254983Y824830D01*
X254842Y855472D02*
X255392Y855844D01*
X255262Y847454D02*
X255538Y847230D01*
X255555Y838630D02*
X256053Y838068D01*
X255640Y801515D02*
X255044Y800753D01*
X255643Y844580D02*
X254937Y845346D01*
X255673Y826798D02*
X255298Y825852D01*
X256100Y816971D02*
X255717Y816907D01*
X255717Y846995D02*
X255538Y847230D01*
X255910Y796332D02*
X255804Y794989D01*
X255899Y786171D02*
X256584Y785329D01*
X255910Y796332D02*
X256217Y797481D01*
X255804Y794989D02*
X255915Y793491D01*
X255392Y855844D02*
X256003Y856084D01*
X256053Y838068D02*
X256328Y837327D01*
X256053Y841040D02*
X257001Y841081D01*
X256100Y816971D02*
X256444Y816923D01*
X255673Y826798D02*
X256105Y827672D01*
X256186Y802578D02*
X255640Y801515D01*
X256215Y842531D02*
X254722Y843688D01*
X256709Y798396D02*
X256217Y797481D01*
X255915Y793491D02*
X256259Y791878D01*
X256793Y836618D02*
X256328Y837327D01*
X256376Y843688D02*
X255643Y844580D01*
X256376Y853946D02*
X257606Y854077D01*
X256444Y816923D02*
X256749Y816770D01*
X256584Y785329D02*
X257292Y784573D01*
X256105Y827672D02*
X256591Y828479D01*
X256003Y856084D02*
X256630Y856219D01*
X256674Y803881D02*
X256186Y802578D01*
X257020Y798754D02*
X256709Y798396D01*
X257016Y816520D02*
X256749Y816770D01*
X257153Y836285D02*
X256793Y836618D01*
X256259Y791878D02*
X256851Y790187D01*
X257001Y841081D02*
X257399Y841181D01*
X257016Y816520D02*
X257443Y815756D01*
X257371Y799039D02*
X257020Y798754D01*
X257043Y840357D02*
X256053Y841040D01*
X257061Y821987D02*
X257048Y820537D01*
X257061Y821987D02*
X257222Y823355D01*
X257096Y805365D02*
X256674Y803881D01*
X257123Y820277D02*
X257048Y820537D01*
X257630Y835971D02*
X257153Y836285D01*
X257522Y824638D02*
X257222Y823355D01*
X257123Y820277D02*
X257282Y820114D01*
X257292Y784573D02*
X258716Y783315D01*
X257371Y799039D02*
X257886Y799304D01*
X257371Y852615D02*
X256376Y853946D01*
X257707Y841375D02*
X257399Y841181D01*
X257442Y806969D02*
X257096Y805365D01*
X257734Y814691D02*
X257443Y815756D01*
X257521Y820043D02*
X257282Y820114D01*
X257522Y824638D02*
X257954Y825832D01*
X258774Y854025D02*
X257606Y854077D01*
X257630Y835971D02*
X258246Y835682D01*
X257704Y808633D02*
X257442Y806969D01*
X256851Y790187D02*
X257707Y788459D01*
X257707Y841375D02*
X256215Y842531D01*
X257711Y829911D02*
X256591Y828479D01*
X257734Y814691D02*
X257896Y813387D01*
X256630Y856219D02*
X257744Y856285D01*
X257832Y820057D02*
X257521Y820043D01*
X257872Y810298D02*
X257704Y808633D01*
X258436Y799479D02*
X257886Y799304D01*
X257940Y811902D02*
X257896Y813387D01*
X257940Y811902D02*
X257872Y810298D01*
X257954Y825832D02*
X258510Y826933D01*
X258036Y839762D02*
X257043Y840357D01*
X258246Y835682D02*
X259025Y835420D01*
X259192Y838444D02*
X258366Y838404D01*
X258366Y856258D02*
X257744Y856285D01*
X257707Y788459D02*
X258406Y787519D01*
X258436Y799479D02*
X259015Y799569D01*
X258510Y826933D02*
X259182Y827936D01*
X258645Y820318D02*
X257832Y820057D01*
X258366Y856258D02*
X258689Y856550D01*
X258716Y783315D02*
X260054Y782390D01*
X258768Y838060D02*
X258366Y838404D01*
X259819Y853849D02*
X258774Y854025D01*
X259005Y831134D02*
X257711Y829911D01*
X259015Y799569D02*
X259621Y799577D01*
X259195Y834859D02*
X259025Y835420D01*
X258406Y787519D02*
X259137Y786684D01*
X259182Y827936D02*
X259963Y828839D01*
X259192Y838444D02*
X260019Y838727D01*
X259195Y834859D02*
X259445Y834408D01*
X258689Y856550D02*
X259196Y856840D01*
X258768Y838060D02*
X259225Y837766D01*
X259445Y834408D02*
X259766Y834050D01*
X259621Y799577D02*
X260891Y799365D01*
X258645Y820318D02*
X259674Y820852D01*
X262617Y848411D02*
X259683Y849980D01*
X259766Y834050D02*
X260144Y833769D01*
X260678Y853610D02*
X259819Y853849D01*
X259137Y786684D02*
X259894Y785951D01*
X259196Y856840D02*
X259950Y857003D01*
X260844Y829637D02*
X259963Y828839D01*
X260019Y838727D02*
X258036Y839762D01*
X263662Y853946D02*
X260019Y854940D01*
X260054Y782390D02*
X261191Y781790D01*
X261028Y833378D02*
X260144Y833769D01*
X260270Y837283D02*
X259225Y837766D01*
X259950Y857003D02*
X260439Y856999D01*
X260447Y832187D02*
X259005Y831134D01*
X260493Y854638D02*
X260019Y854940D01*
X259894Y785951D02*
X260669Y785314D01*
X260678Y853610D02*
X260866Y853749D01*
X260843Y854275D02*
X260493Y854638D01*
X261819Y830326D02*
X260844Y829637D01*
X260866Y853749D02*
X260946Y853912D01*
X260868Y821613D02*
X259674Y820852D01*
X260891Y799365D02*
X262211Y798875D01*
X260933Y854090D02*
X260843Y854275D01*
X260933Y854090D02*
X260946Y853912D01*
X261014Y856917D02*
X260439Y856999D01*
X261028Y833378D02*
X262009Y833107D01*
X261162Y811792D02*
X261148Y810843D01*
X261162Y811792D02*
X261259Y812754D01*
X261191Y781790D02*
X262009Y781508D01*
X261216Y809916D02*
X261148Y810843D01*
X261259Y812754D02*
X261438Y813725D01*
X261337Y835756D02*
X261781Y835811D01*
X261216Y809916D02*
X261365Y809015D01*
X261014Y856917D02*
X261402Y857244D01*
X261700Y814698D02*
X261438Y813725D01*
X260669Y785314D02*
X261456Y784771D01*
X261595Y808148D02*
X261365Y809015D01*
X261700Y814698D02*
X262046Y815667D01*
X261781Y835811D02*
X262128Y835959D01*
X261402Y857244D02*
X261816Y857482D01*
X262880Y830903D02*
X261819Y830326D01*
X261595Y808148D02*
X261905Y807321D01*
X261969Y835551D02*
X261337Y835756D01*
X262009Y781508D02*
X263816Y780086D01*
X260447Y832187D02*
X262009Y833107D01*
X262025Y849187D02*
X259683Y849980D01*
X262476Y816625D02*
X262046Y815667D01*
X262128Y835959D02*
X262668Y836414D01*
X262176Y822555D02*
X260868Y821613D01*
X262211Y798875D02*
X263546Y798135D01*
X261456Y784771D02*
X262249Y784317D01*
X261816Y857482D02*
X262252Y857634D01*
X261905Y807321D02*
X262295Y806539D01*
X262476Y816625D02*
X262991Y817566D01*
X262609Y835420D02*
X261969Y835551D01*
X265230Y846929D02*
X262617Y848411D01*
X260270Y837283D02*
X262668Y836414D01*
X264123Y855292D02*
X262668Y855599D01*
X262252Y857634D02*
X262708Y857705D01*
X262295Y806539D02*
X262764Y805810D01*
X262880Y830903D02*
X264017Y831364D01*
X263637Y818401D02*
X262991Y817566D01*
X262764Y805810D02*
X263313Y805140D01*
X263546Y798135D02*
X264861Y797179D01*
X263637Y818401D02*
X264332Y819172D01*
X263659Y854772D02*
X262668Y855599D01*
X262708Y857705D02*
X263661Y857618D01*
X263836Y854179D02*
X263662Y853946D01*
X263811Y854585D02*
X263659Y854772D01*
X263816Y780086D02*
X265810Y778785D01*
X263821Y783661D02*
X262249Y784317D01*
X263821Y835300D02*
X262609Y835420D01*
X263836Y854179D02*
X263878Y854389D01*
X263811Y854585D01*
X263313Y805140D02*
X263939Y804535D01*
X264017Y831364D02*
X265225Y831704D01*
X265145Y854893D02*
X264123Y855292D01*
X265066Y834594D02*
X264321Y834102D01*
X264324Y848303D02*
X262025Y849187D01*
X265070Y819876D02*
X264332Y819172D01*
X263939Y804535D02*
X264644Y804000D01*
X264644Y857253D02*
X263661Y857618D01*
X263821Y835300D02*
X264785Y835243D01*
X264861Y797179D02*
X266122Y796036D01*
X262176Y822555D02*
X264938Y824797D01*
X265066Y834594D02*
X265253Y834845D01*
X265845Y820509D02*
X265070Y819876D01*
X265117Y835191D02*
X264785Y835243D01*
X265920Y854435D02*
X265145Y854893D01*
X266495Y831921D02*
X265225Y831704D01*
X267540Y845524D02*
X265230Y846929D01*
X265316Y835097D02*
X265253Y834845D01*
X265316Y835097D02*
X265117Y835191D01*
X263821Y783661D02*
X265331Y783316D01*
X265412Y803554D02*
X264644Y804000D01*
X264644Y857253D02*
X265436Y857703D01*
X264321Y834102D02*
X265496Y834016D01*
X265436Y857703D02*
X265720Y857854D01*
X265810Y778785D02*
X268051Y777606D01*
X265845Y820509D02*
X266651Y821068D01*
X266634Y853946D02*
X265920Y854435D01*
X265720Y857854D02*
X265975Y857912D01*
X266122Y796036D02*
X267293Y794737D01*
X266219Y803207D02*
X265412Y803554D01*
X267374Y855103D02*
X266298Y855599D01*
X267819Y832010D02*
X266495Y831921D01*
X266567Y847326D02*
X264324Y848303D01*
X266634Y853946D02*
X266822Y854179D01*
X267482Y821551D02*
X266651Y821068D01*
X266663Y857854D02*
X265975Y857912D01*
X265331Y783316D02*
X266725Y783250D01*
X266822Y854179D02*
X266907Y854389D01*
X266839Y854772D02*
X266298Y855599D01*
X266839Y854772D02*
X266907Y854389D01*
X266957Y834043D02*
X265496Y834016D01*
X266219Y803207D02*
X267057Y802958D01*
X267257Y857703D02*
X266663Y857854D01*
X267293Y794737D02*
X268219Y793497D01*
X268204Y854604D02*
X267374Y855103D01*
X268333Y821955D02*
X267482Y821551D01*
X269568Y844188D02*
X267540Y845524D01*
X267561Y827209D02*
X264938Y824797D01*
X267819Y832010D02*
X269190Y831967D01*
X267057Y802958D02*
X267920Y802805D01*
X267948Y783433D02*
X266725Y783250D01*
X268051Y777606D02*
X270600Y776547D01*
X269605Y853610D02*
X268204Y854604D01*
X268219Y793497D02*
X268994Y792058D01*
X268288Y857253D02*
X267257Y857703D01*
X269197Y822276D02*
X268333Y821955D01*
X266957Y834043D02*
X268588Y834233D01*
X268744Y846256D02*
X266567Y847326D01*
X267920Y802805D02*
X268800Y802747D01*
X268946Y783834D02*
X267948Y783433D01*
X268288Y857253D02*
X268960Y857427D01*
X268994Y792058D02*
X269590Y790503D01*
X270600Y831789D02*
X269190Y831967D01*
X270069Y822512D02*
X269197Y822276D01*
X269338Y784249D02*
X268946Y783834D01*
X268960Y857427D02*
X269504Y857473D01*
X269568Y844188D02*
X271333Y842915D01*
X269590Y790503D02*
X269980Y788912D01*
X269605Y853610D02*
X269847Y853870D01*
X269645Y829424D02*
X267561Y827209D01*
X269648Y784748D02*
X269338Y784249D01*
X268800Y802747D02*
X269690Y802783D01*
X269847Y853870D02*
X270025Y854189D01*
X269879Y785319D02*
X269648Y784748D01*
X271097Y854233D02*
X269941Y855263D01*
X269946Y857419D02*
X269504Y857473D01*
X269980Y788912D02*
X270138Y787369D01*
X270025Y854189D02*
X270078Y854632D01*
X270036Y785953D02*
X269879Y785319D01*
X270069Y822512D02*
X270942Y822660D01*
X270078Y854632D02*
X269941Y855263D01*
X270138Y787369D02*
X270036Y785953D01*
X268588Y834233D02*
X270274Y834636D01*
X270314Y857292D02*
X269946Y857419D01*
X270360Y830343D02*
X269645Y829424D01*
X270582Y802911D02*
X269690Y802783D01*
X270600Y776547D02*
X271855Y775399D01*
X270795Y831718D02*
X270600Y831789D01*
X270791Y831074D02*
X270360Y830343D01*
X270888Y831571D02*
X270795Y831718D01*
X270844Y845092D02*
X268744Y846256D01*
X270884Y831354D02*
X270791Y831074D01*
X270884Y831354D02*
X270888Y831571D01*
X270938Y856926D02*
X270314Y857292D01*
X271812Y822717D02*
X270942Y822660D01*
X271707Y853639D02*
X271097Y854233D01*
X271101Y834934D02*
X270274Y834636D01*
X272853Y841695D02*
X271333Y842915D01*
X271470Y803130D02*
X270582Y802911D01*
X271595Y856594D02*
X270938Y856926D01*
X271707Y853639D02*
X272254Y852951D01*
X271812Y822717D02*
X272672Y822680D01*
X271855Y775399D02*
X273138Y774429D01*
X271101Y834934D02*
X271897Y835303D01*
X271998Y780223D02*
X271931Y779854D01*
X271931Y795732D02*
X271980Y796650D01*
X272125Y797540D01*
X271931Y779854D02*
X271984Y779574D01*
X271984Y794814D02*
X271931Y795732D01*
X272194Y780582D02*
X271998Y780223D01*
X272125Y797540D02*
X272361Y798398D01*
X271984Y779574D02*
X272139Y779235D01*
X272140Y793924D02*
X271984Y794814D01*
X272505Y780929D02*
X272194Y780582D01*
X272254Y852951D02*
X272457Y853091D01*
X272282Y856656D02*
X271595Y856594D01*
X272347Y803438D02*
X271470Y803130D01*
X272684Y799220D02*
X272361Y798398D01*
X272140Y793924D02*
X272392Y793066D01*
X272457Y853091D02*
X272584Y853258D01*
X272921Y781263D02*
X272505Y780929D01*
X272584Y853258D02*
X272669Y853656D01*
X272639Y828590D02*
X272590Y828146D01*
X274035Y853114D02*
X272590Y854605D01*
X272590Y828146D02*
X272632Y827709D01*
X272639Y828590D02*
X272783Y829051D01*
X271897Y835303D02*
X272650Y835751D01*
X272669Y853656D02*
X272590Y854605D01*
X272672Y822680D02*
X273516Y822545D01*
X273087Y800001D02*
X272684Y799220D01*
X272139Y779235D02*
X272731Y778426D01*
X272736Y792244D02*
X272392Y793066D01*
X272756Y827269D02*
X272632Y827709D01*
X272783Y829051D02*
X273334Y830000D01*
X272853Y843835D02*
X270844Y845092D01*
X272853Y841695D02*
X274148Y840521D01*
X272863Y856610D02*
X272282Y856656D01*
X274021Y781881D02*
X272921Y781263D01*
X273087Y800001D02*
X273567Y800737D01*
X273138Y774429D02*
X274444Y773630D01*
X273165Y791463D02*
X272736Y792244D01*
X272347Y803438D02*
X273205Y803833D01*
X273240Y826395D02*
X272756Y827269D01*
X273334Y830000D02*
X274195Y830940D01*
X272650Y835751D02*
X273343Y836284D01*
X273360Y856472D02*
X272863Y856610D01*
X273516Y822545D02*
X274339Y822311D01*
X274119Y801423D02*
X273567Y800737D01*
X272731Y778426D02*
X273656Y777515D01*
X273673Y790727D02*
X273165Y791463D01*
X273789Y856256D02*
X273360Y856472D01*
X273963Y836907D02*
X273343Y836284D01*
X273240Y826395D02*
X274018Y825560D01*
X275399Y782422D02*
X274021Y781881D01*
X275238Y851633D02*
X274035Y853114D01*
X274036Y804315D02*
X273205Y803833D01*
X274737Y802056D02*
X274119Y801423D01*
X275238Y839386D02*
X274148Y840521D01*
X275319Y831823D02*
X274195Y830940D01*
X273673Y790727D02*
X274255Y790041D01*
X275135Y821974D02*
X274339Y822311D01*
X274444Y773630D02*
X275769Y772994D01*
X273963Y836907D02*
X274495Y837628D01*
X274529Y855658D02*
X273789Y856256D01*
X275418Y802630D02*
X274737Y802056D01*
X274761Y842484D02*
X272853Y843835D01*
X274834Y804881D02*
X274036Y804315D01*
X273656Y777515D02*
X274863Y776592D01*
X274905Y789408D02*
X274255Y790041D01*
X274495Y837628D02*
X274925Y838452D01*
X274018Y825560D02*
X275067Y824798D01*
X275135Y821974D02*
X275897Y821532D01*
X274925Y838452D02*
X275238Y839386D01*
X275238Y851633D02*
X275425Y851746D01*
X275238Y854940D02*
X274529Y855658D01*
X276660Y832598D02*
X275319Y831823D01*
X276965Y782869D02*
X275399Y782422D01*
X275418Y802630D02*
X276156Y803143D01*
X275425Y851746D02*
X275521Y852045D01*
X275561Y852951D01*
X276595Y851787D01*
X275592Y805531D02*
X274834Y804881D01*
X274905Y789408D02*
X275617Y788834D01*
X275769Y772994D02*
X277110Y772513D01*
X276602Y820997D02*
X275897Y821532D01*
X276946Y803588D02*
X276156Y803143D01*
X276220Y854940D02*
X275238Y854940D01*
X276302Y806263D02*
X275592Y805531D01*
X274863Y776592D02*
X276303Y775747D01*
X276364Y824145D02*
X275067Y824798D01*
X275617Y788834D02*
X276385Y788321D01*
X276556Y841040D02*
X274761Y842484D01*
X277624Y850345D02*
X276595Y851787D01*
X276602Y820997D02*
X277229Y820392D01*
X276660Y832598D02*
X278171Y833213D01*
X277784Y803962D02*
X276946Y803588D01*
X276302Y806263D02*
X276957Y807075D01*
X278624Y783208D02*
X276965Y782869D01*
X277110Y772513D02*
X278461Y772180D01*
X277204Y787876D02*
X276385Y788321D01*
X277777Y819721D02*
X277229Y820392D01*
X277370Y854234D02*
X276220Y854940D01*
X277500Y841581D02*
X276556Y841040D01*
X277550Y807966D02*
X276957Y807075D01*
X278521Y848716D02*
X277624Y850345D01*
X277777Y819721D02*
X278246Y818992D01*
X278665Y804260D02*
X277784Y803962D01*
X277887Y823635D02*
X276364Y824145D01*
X276303Y775747D02*
X277926Y775069D01*
X277550Y807966D02*
X278065Y808907D01*
X277204Y787876D02*
X278068Y787502D01*
X278171Y833213D02*
X279805Y833619D01*
X277500Y841581D02*
X278235Y842203D01*
X278246Y818992D02*
X278636Y818211D01*
X278350Y853384D02*
X277370Y854234D01*
X278461Y772180D02*
X279819Y771985D01*
X278065Y808907D02*
X278495Y809865D01*
X278881Y847861D02*
X278521Y848716D01*
X280284Y783423D02*
X278624Y783208D01*
X278947Y817384D02*
X278636Y818211D01*
X279584Y804479D02*
X278665Y804260D01*
X278235Y842203D02*
X278778Y842895D01*
X277926Y775069D02*
X278790Y774820D01*
X278495Y809865D02*
X278841Y810834D01*
X279159Y846995D02*
X278881Y847861D01*
X278947Y817384D02*
X279176Y816517D01*
X278068Y787502D02*
X278970Y787204D01*
X278841Y810834D02*
X279103Y811806D01*
X278778Y842895D02*
X279144Y843645D01*
X279340Y846129D02*
X279159Y846995D01*
X279175Y852433D02*
X278350Y853384D01*
X279176Y816517D02*
X279325Y815616D01*
X279283Y812778D02*
X279103Y811806D01*
X279393Y814689D02*
X279325Y815616D01*
X279409Y845274D02*
X279340Y846129D01*
X279349Y844442D02*
X279144Y843645D01*
X279379Y813740D02*
X279283Y812778D01*
X279379Y813740D02*
X279393Y814689D01*
X279349Y844442D02*
X279409Y845274D01*
X280536Y804613D02*
X279584Y804479D01*
X279612Y823303D02*
X277887Y823635D01*
X278790Y774820D02*
X279680Y774647D01*
X279805Y833619D02*
X281517Y833766D01*
X279819Y771985D02*
X281181Y771922D01*
X279861Y851423D02*
X279175Y852433D01*
X278970Y787204D02*
X279905Y786985D01*
X280284Y783423D02*
X281853Y783498D01*
X280423Y850398D02*
X279861Y851423D01*
X281517Y804659D02*
X280536Y804613D01*
X279680Y774647D02*
X280591Y774560D01*
X280868Y786851D02*
X279905Y786985D01*
X280876Y849399D02*
X280423Y850398D01*
X282546Y771985D02*
X281181Y771922D01*
X281517Y774571D02*
X280591Y774560D01*
X281517Y804659D02*
X282554Y804613D01*
X281517Y823185D02*
X279612Y823303D01*
X281517Y833766D02*
X283039Y833633D01*
X281517Y847654D02*
X280876Y849399D01*
X281853Y783498D02*
X283389Y783534D01*
X281853Y786805D02*
X280868Y786851D01*
X281517Y847654D02*
X282202Y849258D01*
X282386Y774619D02*
X281517Y774571D01*
X282546Y771985D02*
X283908Y772180D01*
X283556Y804479D02*
X282554Y804613D01*
X282202Y849258D02*
X282695Y850250D01*
X282831Y786851D02*
X281853Y786805D01*
X284585Y833255D02*
X283039Y833633D01*
X283256Y774758D02*
X282386Y774619D01*
X282695Y850250D02*
X283293Y851297D01*
X283389Y783534D02*
X284971Y783402D01*
X283421Y823276D02*
X281517Y823185D01*
X283454Y845274D02*
X283525Y846129D01*
X283582Y815826D02*
X283501Y814885D01*
X283507Y813929D01*
X283508Y844442D02*
X283454Y845274D01*
X283525Y846129D02*
X283707Y846995D01*
X283556Y804479D02*
X284519Y804260D01*
X283582Y815826D02*
X283749Y816744D01*
X283507Y813929D02*
X283602Y812965D01*
X283701Y843645D02*
X283508Y844442D01*
X283707Y846995D02*
X283985Y847861D01*
X283998Y817631D02*
X283749Y816744D01*
X283782Y786985D02*
X282831Y786851D01*
X283788Y812001D02*
X283602Y812965D01*
X285262Y772513D02*
X283908Y772180D01*
X283985Y847861D02*
X284347Y848716D01*
X284329Y818479D02*
X283998Y817631D01*
X283293Y851297D02*
X284000Y852344D01*
X283701Y843645D02*
X284047Y842895D01*
X283788Y812001D02*
X284068Y811045D01*
X284329Y818479D02*
X284740Y819281D01*
X284347Y848716D02*
X285262Y850345D01*
X284068Y811045D02*
X284442Y810105D01*
X284519Y804260D02*
X285438Y803962D01*
X284559Y842203D02*
X284047Y842895D01*
X284585Y833255D02*
X286084Y832668D01*
X284699Y787204D02*
X283782Y786985D01*
X284740Y819281D02*
X285228Y820029D01*
X284000Y852344D02*
X284819Y853337D01*
X284442Y810105D02*
X284913Y809188D01*
X284966Y775263D02*
X283256Y774758D01*
X284971Y783402D02*
X286522Y783123D01*
X283421Y823276D02*
X285146Y823537D01*
X285791Y820714D02*
X285228Y820029D01*
X285253Y841581D02*
X284559Y842203D01*
X286604Y772994D02*
X285262Y772513D01*
X285262Y850345D02*
X286342Y851787D01*
X285438Y803962D02*
X286308Y803588D01*
X285483Y808302D02*
X284913Y809188D01*
X285580Y787502D02*
X284699Y787204D01*
X284819Y853337D02*
X285756Y854220D01*
X286428Y821330D02*
X285791Y820714D01*
X285483Y808302D02*
X286076Y807470D01*
X287467Y831907D02*
X286084Y832668D01*
X286142Y841040D02*
X285253Y841581D01*
X286308Y803588D02*
X287126Y803143D01*
X286342Y851787D02*
X287473Y852951D01*
X286417Y787876D02*
X285580Y787502D01*
X286428Y821330D02*
X287137Y821868D01*
X286522Y783123D02*
X287965Y782716D01*
X286582Y776001D02*
X284966Y775263D01*
X286604Y772994D02*
X287930Y773630D01*
X285146Y823537D02*
X286669Y823953D01*
X286076Y807470D02*
X286731Y806709D01*
X285756Y854220D02*
X286814Y854940D01*
X287126Y803143D02*
X287886Y802630D01*
X287137Y821868D02*
X287902Y822312D01*
X287208Y788321D02*
X286417Y787876D01*
X287441Y806021D02*
X286731Y806709D01*
X288665Y831006D02*
X287467Y831907D01*
X287473Y839386D02*
X288562Y840521D01*
X287523Y852512D02*
X287473Y852951D01*
X287523Y852512D02*
X287634Y852166D01*
X287796Y851633D01*
X287473Y839386D02*
X287783Y838455D01*
X287796Y851633D02*
X289120Y853114D01*
X287796Y854940D02*
X286814Y854940D01*
X287886Y802630D02*
X288585Y802056D01*
X287902Y822312D02*
X288707Y822657D01*
X289236Y774429D02*
X287930Y773630D01*
X286142Y841040D02*
X287941Y842471D01*
X287946Y788834D02*
X287208Y788321D01*
X287965Y782716D02*
X289221Y782200D01*
X286669Y823953D02*
X287966Y824509D01*
X288044Y776886D02*
X286582Y776001D01*
X288199Y805406D02*
X287441Y806021D01*
X288211Y837641D02*
X287783Y838455D01*
X287796Y854940D02*
X288505Y855658D01*
X289856Y841695D02*
X288562Y840521D01*
X288585Y802056D02*
X289218Y801423D01*
X288627Y789408D02*
X287946Y788834D01*
X289606Y830000D02*
X288665Y831006D01*
X289545Y822904D02*
X288707Y822657D01*
X288742Y836936D02*
X288211Y837641D01*
X288199Y805406D02*
X288997Y804867D01*
X287966Y824509D02*
X289016Y825188D01*
X289120Y853114D02*
X290444Y854605D01*
X289218Y801423D02*
X289781Y800737D01*
X289221Y782200D02*
X290215Y781594D01*
X290519Y775399D02*
X289236Y774429D01*
X288505Y855658D02*
X289244Y856256D01*
X289246Y790041D02*
X288627Y789408D01*
X289289Y777833D02*
X288044Y776886D01*
X289362Y836331D02*
X288742Y836936D01*
X290407Y823055D02*
X289545Y822904D01*
X289960Y829468D02*
X289606Y830000D01*
X289244Y856256D02*
X289674Y856472D01*
X289781Y800737D02*
X290269Y800001D01*
X289016Y825188D02*
X289794Y825976D01*
X289799Y790727D02*
X289246Y790041D01*
X289829Y804405D02*
X288997Y804867D01*
X287941Y842471D02*
X289852Y843788D01*
X291374Y842915D02*
X289856Y841695D01*
X289960Y829468D02*
X290223Y828923D01*
X290055Y835819D02*
X289362Y836331D01*
X290074Y826405D02*
X289794Y825976D01*
X289674Y856472D02*
X290170Y856610D01*
X290215Y781594D02*
X290589Y781263D01*
X290387Y828369D02*
X290223Y828923D01*
X290255Y778756D02*
X289289Y777833D01*
X290679Y799220D02*
X290269Y800001D01*
X290074Y826405D02*
X290277Y826855D01*
X290279Y791463D02*
X289799Y790727D01*
X290449Y853394D02*
X290365Y853778D01*
X290387Y828369D02*
X290444Y827810D01*
X290401Y827324D02*
X290277Y826855D01*
X290407Y823055D02*
X291286Y823112D01*
X290401Y827324D02*
X290444Y827810D01*
X290365Y853778D02*
X290444Y854605D01*
X290449Y853394D02*
X290780Y852951D01*
X291775Y776547D02*
X290519Y775399D01*
X290868Y780917D02*
X290589Y781263D01*
X291004Y798398D02*
X290679Y799220D01*
X290684Y792244D02*
X290279Y791463D01*
X290686Y804021D02*
X289829Y804405D01*
X290170Y856610D02*
X290752Y856656D01*
X291284Y853639D02*
X290780Y852951D01*
X290055Y835819D02*
X290807Y835392D01*
X290868Y780917D02*
X291042Y780559D01*
X290880Y779571D02*
X290255Y778756D01*
X291243Y797540D02*
X291004Y798398D01*
X291007Y793066D02*
X290684Y792244D01*
X291042Y780559D02*
X291103Y780190D01*
X291046Y779910D02*
X290880Y779571D01*
X291046Y779910D02*
X291103Y780190D01*
X291151Y831236D02*
X291243Y831382D01*
X291151Y831236D02*
X291154Y831019D01*
X291243Y797540D02*
X291389Y796650D01*
X291243Y793924D02*
X291007Y793066D01*
X291243Y831382D02*
X291439Y831454D01*
X291154Y831019D02*
X291247Y830738D01*
X291284Y853639D02*
X291852Y854233D01*
X291286Y823112D02*
X292176Y823075D01*
X291374Y842915D02*
X293136Y844188D01*
X291389Y796650D02*
X291439Y795732D01*
X291389Y794814D02*
X291243Y793924D01*
X291389Y794814D02*
X291439Y795732D01*
X291439Y831454D02*
X292848Y831635D01*
X291439Y856594D02*
X290752Y856656D01*
X290686Y804021D02*
X291563Y803718D01*
X291604Y835042D02*
X290807Y835392D01*
X291247Y830738D02*
X291678Y830008D01*
X294323Y777606D02*
X291775Y776547D01*
X291852Y854233D02*
X292546Y854764D01*
X291863Y845004D02*
X289852Y843788D01*
X291439Y856594D02*
X292095Y856926D01*
X292176Y823075D02*
X293069Y822946D01*
X292368Y787945D02*
X292343Y787144D01*
X292368Y787945D02*
X292634Y789658D01*
X292393Y829090D02*
X291678Y830008D01*
X292343Y787144D02*
X292394Y786397D01*
X292432Y834762D02*
X291604Y835042D01*
X291563Y803718D02*
X292451Y803495D01*
X292394Y786397D02*
X292524Y785713D01*
X292546Y854764D02*
X293428Y855263D01*
X293163Y791449D02*
X292634Y789658D01*
X292095Y856926D02*
X292719Y857292D01*
X292524Y785713D02*
X292738Y785105D01*
X292848Y831635D02*
X294219Y831688D01*
X292738Y785105D02*
X293038Y784582D01*
X293958Y822727D02*
X293069Y822946D01*
X292719Y857292D02*
X293088Y857419D01*
X295162Y845524D02*
X293136Y844188D01*
X293150Y854391D02*
X293150Y854632D01*
X293150Y854391D02*
X293217Y854189D01*
X293930Y793228D02*
X293163Y791449D01*
X293470Y853870D02*
X293217Y854189D01*
X293150Y854632D02*
X293236Y854920D01*
X292451Y803495D02*
X293344Y803355D01*
X293038Y784582D02*
X293428Y784157D01*
X293236Y854920D02*
X293428Y855263D01*
X293470Y853870D02*
X293751Y853610D01*
X293088Y857419D02*
X293530Y857473D01*
X295158Y854604D02*
X293751Y853610D01*
X293428Y784157D02*
X293840Y783867D01*
X293930Y793228D02*
X294905Y794904D01*
X294835Y822418D02*
X293958Y822727D01*
X291863Y845004D02*
X293963Y846130D01*
X294074Y857427D02*
X293530Y857473D01*
X292432Y834762D02*
X294118Y834380D01*
X294219Y831688D02*
X295544Y831614D01*
X294234Y803300D02*
X293344Y803355D01*
X296564Y778785D02*
X294323Y777606D01*
X294330Y783622D02*
X293840Y783867D01*
X294478Y826877D02*
X292393Y829090D01*
X294746Y857253D02*
X294074Y857427D01*
X294835Y822418D02*
X295693Y822022D01*
X296064Y796391D02*
X294905Y794904D01*
X294234Y803300D02*
X295113Y803330D01*
X295158Y854604D02*
X295984Y855103D01*
X297470Y846929D02*
X295162Y845524D01*
X294746Y857253D02*
X295502Y857574D01*
X294330Y783622D02*
X295516Y783294D01*
X296814Y831416D02*
X295544Y831614D01*
X295693Y822022D02*
X296526Y821540D01*
X295751Y834184D02*
X294118Y834380D01*
X295976Y803447D02*
X295113Y803330D01*
X295984Y855103D02*
X297059Y855599D01*
X297331Y797814D02*
X296064Y796391D01*
X293963Y846130D02*
X296139Y847178D01*
X295502Y857574D02*
X296320Y857868D01*
X296457Y854389D02*
X296543Y854179D01*
X296457Y854389D02*
X296524Y854772D01*
X296526Y821540D02*
X297325Y820974D01*
X296736Y853946D02*
X296543Y854179D01*
X298558Y780086D02*
X296564Y778785D01*
X296736Y853946D02*
X297444Y854389D01*
X296772Y857917D02*
X296320Y857868D01*
X296814Y831416D02*
X298022Y831096D01*
X296814Y803653D02*
X295976Y803447D01*
X295516Y783294D02*
X296927Y783221D01*
X296524Y854772D02*
X297059Y855599D01*
X294478Y826877D02*
X297102Y824467D01*
X297262Y857854D02*
X296772Y857917D01*
X297325Y820974D02*
X298083Y820324D01*
X298634Y799072D02*
X297331Y797814D01*
X297502Y834845D02*
X297394Y835097D01*
X297444Y854389D02*
X298219Y854772D01*
X300081Y848411D02*
X297470Y846929D01*
X297502Y834845D02*
X297766Y834594D01*
X297621Y803949D02*
X296814Y803653D01*
X297699Y783296D02*
X296927Y783221D01*
X297394Y835097D02*
X297714Y835288D01*
X297766Y834594D02*
X298389Y834102D01*
X297799Y857645D02*
X297262Y857854D01*
X298022Y831096D02*
X299160Y830656D01*
X298083Y820324D02*
X298794Y819592D01*
X297714Y835288D02*
X298162Y835390D01*
X298219Y854772D02*
X299244Y855155D01*
X298381Y848161D02*
X296139Y847178D01*
X298389Y804336D02*
X297621Y803949D01*
X298389Y834102D02*
X295751Y834184D01*
X298389Y857253D02*
X297799Y857645D01*
X298505Y783454D02*
X297699Y783296D01*
X300366Y781508D02*
X298558Y780086D01*
X298634Y799072D02*
X299944Y800128D01*
X299449Y818780D02*
X298794Y819592D01*
X299094Y804870D02*
X298389Y804336D01*
X300220Y830100D02*
X299160Y830656D01*
X299244Y855155D02*
X300702Y855599D01*
X299334Y835466D02*
X298162Y835390D01*
X299339Y783701D02*
X298505Y783454D01*
X298389Y857253D02*
X299382Y857618D01*
X299449Y818780D02*
X300043Y817889D01*
X299707Y853946D02*
X299639Y854179D01*
X299673Y854389D01*
X299707Y853946D02*
X303350Y854940D01*
X299721Y805475D02*
X299094Y804870D01*
X299865Y822228D02*
X297102Y824467D01*
X299382Y857618D02*
X299889Y857698D01*
X301236Y800943D02*
X299944Y800128D01*
X299673Y854389D02*
X299952Y854772D01*
X300043Y817889D02*
X300557Y816948D01*
X300081Y848411D02*
X303014Y849980D01*
X300192Y784044D02*
X299339Y783701D01*
X301196Y829428D02*
X300220Y830100D01*
X300269Y806145D02*
X299721Y805475D01*
X299952Y854772D02*
X300357Y855155D01*
X301184Y781790D02*
X300366Y781508D01*
X299889Y857698D02*
X300408Y857705D01*
X300557Y816948D02*
X300987Y815990D01*
X299334Y835466D02*
X300692Y835603D01*
X301235Y836288D02*
X300702Y836750D01*
X300357Y855155D02*
X300702Y855599D01*
X300738Y806873D02*
X300269Y806145D01*
X300942Y857634D02*
X300408Y857705D01*
X300987Y815990D02*
X301333Y815023D01*
X301025Y833107D02*
X302005Y833378D01*
X301059Y784489D02*
X300192Y784044D01*
X300738Y806873D02*
X301128Y807654D01*
X301175Y821287D02*
X299865Y822228D01*
X302320Y782390D02*
X301184Y781790D01*
X302078Y828645D02*
X301196Y829428D01*
X301581Y836136D02*
X301235Y836288D01*
X302481Y801479D02*
X301236Y800943D01*
X301595Y814050D02*
X301333Y815023D01*
X300692Y835603D02*
X301373Y835781D01*
X301439Y808480D02*
X301128Y807654D01*
X301496Y857482D02*
X300942Y857634D01*
X301581Y836136D02*
X302020Y836079D01*
X301595Y814050D02*
X301775Y813080D01*
X301668Y809346D02*
X301439Y808480D01*
X300702Y836750D02*
X301737Y837050D01*
X301775Y813080D02*
X301871Y812119D01*
X301817Y810245D02*
X301668Y809346D01*
X301885Y811171D02*
X301871Y812119D01*
X301885Y811171D02*
X301817Y810245D01*
X301930Y785041D02*
X301059Y784489D01*
X302005Y833378D02*
X302890Y833769D01*
X302020Y836079D02*
X301373Y835781D01*
X302078Y828645D02*
X302860Y827751D01*
X303658Y783315D02*
X302320Y782390D01*
X302370Y820527D02*
X301175Y821287D01*
X302490Y853736D02*
X302411Y853865D01*
X303078Y801630D02*
X302481Y801479D01*
X302678Y853610D02*
X302490Y853736D01*
X301025Y833107D02*
X302494Y832200D01*
X302411Y853865D02*
X302515Y854149D01*
X302678Y853610D02*
X303679Y853896D01*
X302678Y856917D02*
X301496Y857482D01*
X302800Y785708D02*
X301930Y785041D01*
X301737Y837050D02*
X302806Y837446D01*
X302860Y827751D02*
X303533Y826750D01*
X302890Y833769D02*
X303268Y834050D01*
X298381Y848161D02*
X303014Y849980D01*
X303652Y801698D02*
X303078Y801630D01*
X303268Y834050D02*
X303588Y834408D01*
X303645Y838399D02*
X303350Y838727D01*
X302515Y854149D02*
X303350Y854940D01*
X302370Y820527D02*
X303400Y819994D01*
X304090Y825643D02*
X303533Y826750D01*
X303588Y834408D02*
X303839Y834859D01*
X304004Y838318D02*
X303645Y838399D01*
X303652Y801698D02*
X304201Y801676D01*
X305081Y784573D02*
X303658Y783315D01*
X302800Y785708D02*
X303661Y786496D01*
X303679Y853896D02*
X304708Y854151D01*
X303744Y857048D02*
X302678Y856917D01*
X303814Y837908D02*
X302806Y837446D01*
X304009Y835420D02*
X303839Y834859D01*
X302494Y832200D02*
X303892Y831180D01*
X304000Y813502D02*
X303958Y811998D01*
X304000Y813502D02*
X304169Y814833D01*
X304004Y838318D02*
X304668Y838404D01*
X304787Y835682D02*
X304009Y835420D01*
X303958Y811998D02*
X304033Y810382D01*
X304524Y824434D02*
X304090Y825643D01*
X304475Y815931D02*
X304169Y814833D01*
X304201Y801676D02*
X304722Y801560D01*
X304216Y819733D02*
X303400Y819994D01*
X304033Y810382D02*
X304216Y808714D01*
X304475Y815931D02*
X304930Y816737D01*
X304216Y808714D02*
X304495Y807054D01*
X304501Y856961D02*
X303744Y857048D01*
X304506Y787411D02*
X303661Y786496D01*
X304825Y823124D02*
X304524Y824434D01*
X304216Y819733D02*
X304527Y819719D01*
X303814Y837908D02*
X304668Y838404D01*
X304708Y854151D02*
X305797Y854218D01*
X304722Y801560D02*
X305210Y801346D01*
X304527Y819719D02*
X304767Y819791D01*
X304787Y835682D02*
X305403Y835971D01*
X304825Y823124D02*
X304988Y821717D01*
X304495Y807054D02*
X304861Y805461D01*
X304767Y819791D02*
X304928Y819954D01*
X305215Y817011D02*
X304930Y816737D01*
X305004Y820214D02*
X304988Y821717D01*
X305004Y820214D02*
X304928Y819954D01*
X305009Y856686D02*
X304501Y856961D01*
X305788Y785329D02*
X305081Y784573D01*
X305181Y829996D02*
X303892Y831180D01*
X305210Y801346D02*
X305663Y801029D01*
X305215Y817011D02*
X305542Y817190D01*
X304861Y805461D02*
X305304Y803996D01*
X305327Y788459D02*
X304506Y787411D01*
X305327Y856258D02*
X305009Y856686D01*
X305880Y836285D02*
X305403Y835971D01*
X303350Y838727D02*
X305454Y839762D01*
X305910Y817265D02*
X305542Y817190D01*
X305663Y801029D02*
X306245Y799987D01*
X305964Y841181D02*
X305663Y841375D01*
X306473Y786171D02*
X305788Y785329D01*
X306375Y854134D02*
X305797Y854218D01*
X305304Y803996D02*
X305813Y802719D01*
X305840Y789228D02*
X305327Y788459D01*
X305880Y836285D02*
X306241Y836618D01*
X305910Y817265D02*
X306322Y817230D01*
X305327Y856258D02*
X305950Y856285D01*
X305964Y841181D02*
X306363Y841081D01*
X305986Y852951D02*
X309965Y852951D01*
X306705Y837327D02*
X306241Y836618D01*
X306245Y799987D02*
X306727Y798647D01*
X306266Y790043D02*
X305840Y789228D01*
X306321Y828600D02*
X305181Y829996D01*
X306322Y817230D02*
X307586Y816426D01*
X307316Y841040D02*
X306363Y841081D01*
X306980Y853946D02*
X306375Y854134D01*
X305813Y802719D02*
X306378Y801690D01*
X305454Y839762D02*
X306462Y840357D01*
X307120Y787100D02*
X306473Y786171D01*
X306266Y790043D02*
X306607Y790893D01*
X306705Y837327D02*
X306980Y838068D01*
X306727Y798647D02*
X307070Y797081D01*
X306824Y827806D02*
X306321Y828600D01*
X306871Y791771D02*
X306607Y790893D01*
X306980Y838068D02*
X307619Y838447D01*
X307240Y843835D02*
X306980Y844024D01*
X305986Y852951D02*
X306980Y853946D01*
X306378Y801690D02*
X306990Y800970D01*
X307067Y856219D02*
X305950Y856285D01*
X307070Y797081D02*
X307234Y795364D01*
X307716Y788117D02*
X307120Y787100D01*
X305663Y841375D02*
X307148Y842699D01*
X307180Y793569D02*
X306871Y791771D01*
X307180Y793569D02*
X307234Y795364D01*
X307560Y843772D02*
X307240Y843835D01*
X306824Y827806D02*
X307275Y826940D01*
X306990Y800970D02*
X307310Y800744D01*
X306462Y840357D02*
X307316Y841040D01*
X307560Y843772D02*
X308003Y843835D01*
X307586Y816426D02*
X308658Y815516D01*
X307619Y838447D02*
X308383Y839101D01*
X307310Y800744D02*
X307637Y800617D01*
X307952Y846813D02*
X307639Y846995D01*
X307275Y826940D02*
X307671Y825995D01*
X307695Y856084D02*
X307067Y856219D01*
X308246Y789223D02*
X307716Y788117D01*
X308387Y846753D02*
X307952Y846813D01*
X307637Y800617D02*
X307972Y800598D01*
X308003Y843835D02*
X308634Y844024D01*
X307671Y825995D02*
X308005Y824966D01*
X307639Y846995D02*
X308050Y847460D01*
X308695Y790419D02*
X308246Y789223D01*
X308273Y823846D02*
X308005Y824966D01*
X308306Y855844D02*
X307695Y856084D01*
X308311Y800693D02*
X307972Y800598D01*
X308311Y849980D02*
X309965Y849980D01*
X308735Y839543D02*
X308383Y839101D01*
X308387Y846753D02*
X308945Y846813D01*
X308430Y845388D02*
X306980Y844024D01*
X308273Y823846D02*
X308470Y822629D01*
X308592Y821308D01*
X308311Y849980D02*
X308611Y850860D01*
X308592Y821308D02*
X308634Y819878D01*
X307148Y842699D02*
X308634Y844024D01*
X308658Y815516D02*
X309546Y814514D01*
X308050Y847460D02*
X308676Y847988D01*
X309049Y791705D02*
X308695Y790419D01*
X308735Y839543D02*
X309024Y840066D01*
X308854Y855472D02*
X308306Y855844D01*
X309629Y846995D02*
X308945Y846813D01*
X308611Y850860D02*
X309007Y851586D01*
X309022Y801380D02*
X308311Y800693D01*
X309024Y840066D02*
X309220Y840675D01*
X309293Y793084D02*
X309049Y791705D01*
X308430Y845388D02*
X309077Y846115D01*
X309293Y841375D02*
X309220Y840675D01*
X310292Y795940D02*
X309293Y793084D01*
X309293Y818883D02*
X308634Y819878D01*
X309293Y841375D02*
X309966Y841932D01*
X309293Y854940D02*
X308854Y855472D01*
X309365Y848767D02*
X308676Y847988D01*
X309546Y814514D02*
X310259Y813437D01*
X309077Y846115D02*
X309629Y846995D01*
X309663Y802190D02*
X309022Y801380D01*
X309365Y848767D02*
X309685Y849307D01*
X309965Y849980D01*
X309007Y851586D02*
X309965Y852951D01*
X310452Y842614D02*
X309966Y841932D01*
X309293Y854940D02*
X310208Y854958D01*
X309293Y818883D02*
X310212Y818254D01*
X310223Y803107D02*
X309663Y802190D01*
X310805Y812303D02*
X310259Y813437D01*
X311282Y799039D02*
X310292Y795940D01*
X310452Y842614D02*
X310607Y843001D01*
X310692Y843419D01*
X310624Y844347D02*
X311244Y845287D01*
X310700Y843868D02*
X310692Y843419D01*
X310696Y804114D02*
X310223Y803107D01*
X310700Y843868D02*
X310624Y844347D01*
X310805Y812303D02*
X311193Y811126D01*
X310964Y854787D02*
X310208Y854958D01*
X311072Y805195D02*
X310696Y804114D01*
X311101Y817489D02*
X310212Y818254D01*
X311193Y811126D02*
X311432Y809924D01*
X311244Y845287D02*
X311615Y846131D01*
X312513Y800484D02*
X311282Y799039D01*
X311072Y805195D02*
X311342Y806333D01*
X311531Y808714D02*
X311432Y809924D01*
X311498Y807511D02*
X311342Y806333D01*
X311498Y807511D02*
X311531Y808714D01*
X311557Y854454D02*
X310964Y854787D01*
X311739Y846910D02*
X311615Y846131D01*
X311618Y847654D02*
X312024Y848244D01*
X311618Y847654D02*
X311739Y846910D01*
X311941Y851297D02*
X312222Y852038D01*
X311101Y817489D02*
X311942Y816600D01*
X311983Y853986D02*
X311557Y854454D01*
X312272Y848781D02*
X312024Y848244D01*
X312218Y850541D02*
X311941Y851297D01*
X312222Y852038D02*
X312319Y852751D01*
X312239Y853409D02*
X311983Y853986D01*
X312388Y849271D02*
X312272Y848781D01*
X312319Y852751D02*
X312239Y853409D01*
X312400Y849723D02*
X312388Y849271D01*
X312400Y849723D02*
X312218Y850541D01*
X313488Y801955D02*
X312513Y800484D01*
X312719Y815599D02*
X311942Y816600D01*
X312719Y815599D02*
X313417Y814497D01*
X314224Y803442D02*
X313488Y801955D01*
X314020Y813305D02*
X313417Y814497D01*
X314737Y804932D02*
X314224Y803442D01*
X314511Y812036D02*
X314020Y813305D01*
X315043Y806415D02*
X314737Y804932D01*
X314875Y810700D02*
X314511Y812036D01*
X315157Y807878D02*
X315043Y806415D01*
X315096Y809311D02*
X314875Y810700D01*
X315096Y809311D02*
X315157Y807878D01*
X243176Y711200D02*
X660400Y711200D01*
X243176Y711200D02*
X243176Y763703D01*
X243757Y713869D02*
X244770Y712072D01*
X245406Y721183D02*
X243879Y721183D01*
X243879Y722146D01*
X244408Y715219D02*
X243757Y713869D01*
X244770Y712072D02*
X247513Y711305D01*
X245588Y717770D02*
X244797Y719656D01*
X244977Y713687D02*
X244978Y713686D01*
X246474Y714599D01*
X244797Y719656D02*
X245406Y721183D01*
X245588Y717770D02*
X247514Y717076D01*
X244977Y713687D02*
X245620Y712639D01*
X245940Y719687D02*
X247514Y721414D01*
X246351Y715641D02*
X244408Y715219D01*
X243879Y722146D02*
X246458Y722146D01*
X246474Y714599D02*
X247758Y714599D01*
X247329Y712174D02*
X245620Y712639D01*
X247513Y711305D02*
X249729Y711823D01*
X248625Y717334D02*
X247514Y717076D01*
X246458Y722146D02*
X247514Y722326D01*
X245940Y719687D02*
X247514Y717917D01*
X249087Y719687D02*
X247514Y721414D01*
X248718Y714722D02*
X247758Y714599D01*
X247788Y715641D02*
X246351Y715641D01*
X248625Y717334D02*
X249101Y716449D01*
X248718Y714722D02*
X249482Y713472D01*
X247514Y717917D02*
X249087Y719687D01*
X249101Y716449D02*
X247788Y715641D01*
X249345Y717689D02*
X250308Y719687D01*
X249345Y717689D02*
X249345Y717626D01*
X249477Y721614D02*
X247514Y722326D01*
X249482Y713472D02*
X247329Y712174D01*
X249498Y714984D02*
X249498Y715044D01*
X250153Y716250D01*
X250583Y713304D02*
X249729Y711823D01*
X250153Y716250D02*
X249345Y717626D01*
X250308Y719687D02*
X249477Y721614D01*
X250583Y713304D02*
X250584Y713303D01*
X249498Y714984D01*
X253542Y723672D02*
X252671Y724481D01*
X252931Y714724D02*
X254183Y714724D01*
X252931Y714724D02*
X252931Y722146D01*
X253542Y723672D02*
X254411Y724481D01*
X253542Y725291D02*
X252671Y724481D01*
X254183Y722146D02*
X254183Y714724D01*
X254183Y722146D02*
X254183Y722146D01*
X252931Y722146D01*
X254411Y724481D02*
X253542Y725291D01*
X256446Y714722D02*
X262065Y714722D01*
X256446Y714722D02*
X256446Y715748D01*
X260475Y715748D02*
X256566Y721471D01*
X256566Y722146D01*
X258156Y721122D02*
X261636Y721122D01*
X260475Y715748D02*
X256446Y715748D01*
X261636Y721122D02*
X261636Y722146D01*
X256566Y722146D01*
X258156Y721122D02*
X262065Y715393D01*
X262065Y714722D01*
X262065Y715393D02*
X262065Y715393D01*
X264418Y715596D02*
X263450Y718540D01*
X264200Y721298D01*
X264418Y715596D02*
X266657Y714542D01*
X264748Y718540D02*
X265199Y720520D01*
X264750Y718540D02*
X264748Y718540D01*
X265199Y720520D02*
X266705Y721275D01*
X264750Y718540D02*
X265353Y716381D01*
X264200Y721298D02*
X266381Y722327D01*
X268720Y715395D02*
X266657Y714542D01*
X268689Y720265D02*
X266705Y721275D01*
X265353Y716381D02*
X266873Y715594D01*
X268689Y714097D02*
X268689Y711593D01*
X269941Y711593D01*
X268689Y716371D02*
X266873Y715594D01*
X268689Y716371D02*
X268689Y720265D01*
X268720Y715395D02*
X268689Y714097D01*
X268750Y721291D02*
X266381Y722327D01*
X268750Y721291D02*
X268794Y721291D01*
X268902Y722146D01*
X269941Y722146D02*
X269941Y711593D01*
X269941Y722146D02*
X269941Y722146D01*
X268902Y722146D01*
X272630Y724481D02*
X273499Y723672D01*
X272892Y714724D02*
X274142Y714724D01*
X272892Y714724D02*
X272892Y722146D01*
X273499Y723672D02*
X274372Y724481D01*
X273499Y725291D02*
X272630Y724481D01*
X274142Y722146D02*
X274142Y714724D01*
X274142Y722146D02*
X274144Y722146D01*
X272892Y722146D01*
X274372Y724481D02*
X273499Y725291D01*
X276452Y718848D02*
X276497Y718129D01*
X281508Y718130D01*
X279185Y714542D02*
X276744Y715304D01*
X277186Y716127D01*
X276452Y718848D02*
X277223Y721384D01*
X277549Y719028D02*
X277549Y719028D01*
X278086Y732358D02*
X277549Y734082D01*
X278031Y720743D02*
X277549Y719028D01*
X278031Y720743D02*
X279383Y721334D01*
X279553Y731224D02*
X278086Y732358D01*
X278484Y733820D02*
X278634Y733808D01*
X277549Y734082D02*
X278605Y735562D01*
X279537Y734677D02*
X278634Y733808D01*
X277186Y716127D02*
X279034Y715550D01*
X279185Y714542D02*
X281709Y715570D01*
X280786Y720731D02*
X279383Y721334D01*
X279415Y722328D02*
X277223Y721384D01*
X279537Y734677D02*
X278605Y735562D01*
X279859Y731958D02*
X279553Y731224D01*
X279859Y731958D02*
X279859Y731959D01*
X278484Y733820D01*
X280768Y716250D02*
X279034Y715550D01*
X281522Y719028D02*
X280786Y720731D01*
X281175Y733820D02*
X282550Y733820D01*
X281508Y718130D02*
X280768Y716250D01*
X283998Y738265D02*
X281512Y741244D01*
X281522Y719028D02*
X277549Y719028D01*
X282745Y718419D02*
X281709Y715570D01*
X281715Y721284D02*
X279415Y722328D01*
X282550Y733820D02*
X284719Y737394D01*
X281715Y721284D02*
X282744Y718419D01*
X282745Y718419D01*
X282901Y741244D02*
X281512Y741244D01*
X283869Y714722D02*
X289519Y714722D01*
X283869Y714722D02*
X283869Y715808D01*
X281175Y733820D02*
X283998Y738265D01*
X284719Y737394D02*
X286108Y735777D01*
X286060Y737334D02*
X282901Y741244D01*
X286108Y735777D02*
X286108Y733820D01*
X287344Y733820D01*
X286108Y737334D02*
X286060Y737334D01*
X286108Y737334D02*
X286108Y744692D01*
X287344Y744692D01*
X287344Y733820D01*
X287344Y744692D02*
X287344Y744692D01*
X288251Y715808D02*
X283869Y715808D01*
X288251Y715808D02*
X288251Y724743D01*
X289519Y724743D01*
X289519Y714722D01*
X289519Y724743D02*
X289519Y724743D01*
X290922Y742771D02*
X290049Y743579D01*
X290310Y733822D02*
X291561Y733822D01*
X290310Y733822D02*
X290310Y741244D01*
X290922Y742771D02*
X291789Y743579D01*
X290922Y744389D02*
X290049Y743579D01*
X291561Y741244D02*
X291561Y733822D01*
X291561Y741243D02*
X291561Y741244D01*
X291561Y741243D02*
X290310Y741244D01*
X291789Y743579D02*
X290922Y744389D01*
X294438Y733822D02*
X295689Y733822D01*
X294438Y733822D02*
X294438Y738525D01*
X294821Y722176D02*
X295065Y721078D01*
X294438Y738525D02*
X294984Y740685D01*
X295780Y721199D02*
X295065Y721078D01*
X294821Y722176D02*
X295615Y722329D01*
X295689Y733822D02*
X295689Y738358D01*
X296025Y739871D01*
X295780Y721199D02*
X297661Y719489D01*
X296025Y739871D02*
X297095Y740343D01*
X296697Y741426D02*
X294984Y740685D01*
X297095Y740343D02*
X299125Y739196D01*
X297661Y719489D02*
X297661Y714722D01*
X298913Y714722D01*
X297723Y720801D02*
X295615Y722329D01*
X297723Y720801D02*
X297768Y720801D01*
X297877Y722144D01*
X298913Y722144D02*
X298913Y714722D01*
X298913Y722144D02*
X298913Y722144D01*
X297877Y722144D01*
X299125Y733820D02*
X300375Y733820D01*
X299125Y733820D02*
X299125Y739196D01*
X299185Y740176D02*
X296697Y741426D01*
X299185Y740176D02*
X299232Y740176D01*
X299340Y741244D01*
X300375Y741243D02*
X300375Y733820D01*
X300375Y741243D02*
X299340Y741244D01*
X301687Y714724D02*
X302723Y714724D01*
X301687Y714724D02*
X301687Y722146D01*
X302832Y715885D02*
X302723Y714724D01*
X302832Y715885D02*
X302877Y715885D01*
X305318Y714542D01*
X302937Y722146D02*
X301687Y722146D01*
X302937Y722146D02*
X302937Y716875D01*
X303207Y733820D02*
X303207Y738527D01*
X303207Y733820D02*
X304461Y733820D01*
X303207Y738527D02*
X303753Y740685D01*
X304461Y738358D02*
X304461Y733820D01*
X304461Y738358D02*
X304796Y739871D01*
X305862Y740343D01*
X302937Y716875D02*
X304940Y715625D01*
X305318Y714542D02*
X307046Y715282D01*
X303753Y740685D02*
X305467Y741424D01*
X305862Y740343D02*
X307892Y739196D01*
X306000Y716097D02*
X304940Y715625D01*
X306000Y716097D02*
X306329Y717610D01*
X306329Y722144D01*
X307594Y717443D02*
X307046Y715282D01*
X307595Y717441D02*
X307594Y717443D01*
X307595Y717441D02*
X307595Y722144D01*
X306329Y722144D01*
X307892Y733820D02*
X309147Y733820D01*
X307941Y740204D02*
X307892Y741732D01*
X307892Y744692D01*
X307892Y739196D02*
X307892Y733820D01*
X307941Y740204D02*
X305467Y741424D01*
X307892Y744692D02*
X309146Y744692D01*
X309147Y744692D02*
X309147Y733820D01*
X309147Y744692D02*
X309146Y744692D01*
X309401Y714816D02*
X310776Y714542D01*
X311629Y721122D02*
X309629Y721122D01*
X309629Y722146D01*
X309645Y715762D02*
X309401Y714816D01*
X309645Y715762D02*
X310486Y715564D01*
X310776Y714542D02*
X312432Y715228D01*
X313641Y733641D02*
X311244Y734584D01*
X312022Y739731D02*
X311381Y740555D01*
X311629Y716998D02*
X310486Y715564D01*
X311629Y716998D02*
X311629Y721122D01*
X311631Y722146D02*
X309629Y722146D01*
X311631Y722146D02*
X311631Y724224D01*
X311244Y734584D02*
X311791Y735425D01*
X312022Y739731D02*
X313502Y740388D01*
X312897Y717014D02*
X312432Y715228D01*
X312683Y724224D02*
X311631Y724224D01*
X312683Y724224D02*
X312837Y722146D01*
X312897Y721122D02*
X313998Y721122D01*
X312897Y721122D02*
X312897Y717012D01*
X312897Y717014D01*
X315167Y739594D02*
X313502Y740388D01*
X311791Y735425D02*
X313534Y734679D01*
X311381Y740555D02*
X313548Y741426D01*
X316120Y734657D02*
X313641Y733641D01*
X313998Y722071D02*
X313998Y721122D01*
X313998Y722071D02*
X312837Y722146D01*
X315824Y737517D02*
X315167Y739594D01*
X315188Y735462D02*
X313534Y734679D01*
X315419Y714663D02*
X316137Y714542D01*
X315419Y714663D02*
X315585Y715609D01*
X315188Y735462D02*
X315824Y737517D01*
X315585Y715609D02*
X315861Y715580D01*
X316051Y740405D02*
X313548Y741426D01*
X317123Y737517D02*
X316120Y734657D01*
X317467Y716219D02*
X316137Y714542D01*
X315861Y715580D02*
X316215Y716129D01*
X316215Y725595D01*
X317123Y737517D02*
X317123Y737517D01*
X316051Y740405D01*
X317467Y716219D02*
X317467Y716218D01*
X317467Y725595D01*
X316215Y725595D01*
X318911Y737227D02*
X318866Y737945D01*
X318911Y737227D02*
X323922Y737227D01*
X321602Y733641D02*
X319155Y734403D01*
X319598Y735225D01*
X318866Y737945D02*
X319637Y740482D01*
X320447Y739841D02*
X319965Y738128D01*
X319965Y738128D01*
X320431Y714724D02*
X321469Y714724D01*
X320431Y714724D02*
X320431Y722146D01*
X320447Y739841D02*
X321797Y740432D01*
X319598Y735225D02*
X321445Y734647D01*
X321578Y715885D02*
X321469Y714724D01*
X321578Y715885D02*
X321624Y715885D01*
X321602Y733641D02*
X324124Y734669D01*
X321624Y715885D02*
X324065Y714542D01*
X321681Y722146D02*
X320431Y722146D01*
X321681Y722146D02*
X321682Y716875D01*
X323199Y739829D02*
X321797Y740432D01*
X321830Y741426D02*
X319637Y740482D01*
X321445Y734647D02*
X323182Y735347D01*
X323934Y738128D02*
X323199Y739829D01*
X321682Y716875D02*
X323686Y715625D01*
X323182Y735347D02*
X323922Y737227D01*
X323934Y738128D02*
X319965Y738128D01*
X325794Y715282D02*
X324065Y714542D01*
X324124Y734669D02*
X325158Y737517D01*
X324129Y740382D02*
X321830Y741426D01*
X324747Y716097D02*
X323686Y715625D01*
X324747Y716097D02*
X325075Y717610D01*
X325075Y722146D01*
X325158Y737517D02*
X325158Y737517D01*
X324129Y740382D01*
X325478Y742771D02*
X328500Y742771D01*
X325478Y742771D02*
X325478Y743839D01*
X326341Y717443D02*
X325794Y715282D01*
X326341Y717443D02*
X326341Y722146D01*
X325075Y722146D01*
X326341Y717443D02*
X326341Y717443D01*
X327896Y714722D02*
X329317Y714722D01*
X331518Y720924D02*
X328389Y724739D01*
X328500Y733822D02*
X329784Y733822D01*
X328500Y733822D02*
X328500Y742771D01*
X332313Y719929D02*
X329317Y714722D01*
X329784Y733822D02*
X329784Y742771D01*
X329784Y742771D01*
X332806Y742771D01*
X329825Y724739D02*
X328389Y724739D01*
X331518Y720924D02*
X327896Y714722D01*
X332313Y719929D02*
X334036Y717899D01*
X332806Y742771D02*
X332806Y743839D01*
X325478Y743839D01*
X329825Y724739D02*
X333993Y719717D01*
X334036Y717899D02*
X334036Y714724D01*
X335304Y714724D01*
X334036Y719717D02*
X333993Y719717D01*
X334036Y719717D02*
X334036Y724739D01*
X335304Y724739D02*
X335304Y714724D01*
X335304Y724739D02*
X335304Y724739D01*
X334036Y724739D01*
X337407Y740176D02*
X337165Y741273D01*
X337407Y740176D02*
X338128Y740295D01*
X337959Y741426D02*
X337165Y741273D01*
X338128Y740295D02*
X340005Y738586D01*
X340005Y733820D01*
X341256Y733820D01*
X340065Y739898D02*
X337959Y741426D01*
X340065Y739898D02*
X340112Y739898D01*
X340218Y741244D01*
X341256Y741242D02*
X341256Y733820D01*
X341256Y741242D02*
X341257Y741243D01*
X340218Y741244D01*
X341908Y714722D02*
X342944Y714722D01*
X341908Y714722D02*
X341908Y725595D01*
X343053Y715594D02*
X342944Y714722D01*
X343053Y715594D02*
X343101Y715594D01*
X345343Y714542D01*
X343113Y721473D02*
X343176Y722743D01*
X343174Y720495D02*
X344978Y721277D01*
X343174Y720495D02*
X343174Y716617D01*
X343176Y716617D01*
X343176Y725595D02*
X341908Y725595D01*
X343176Y725595D02*
X343176Y722743D01*
X344224Y733822D02*
X345262Y733822D01*
X344224Y733822D02*
X344224Y741244D01*
X345659Y742785D02*
X344895Y743549D01*
X344978Y721277D02*
X346493Y720491D01*
X345069Y715594D02*
X343176Y716617D01*
X343113Y721473D02*
X345191Y722328D01*
X345262Y733822D02*
X345369Y734981D01*
X347577Y715553D02*
X345343Y714542D01*
X345369Y734981D02*
X345417Y734981D01*
X347857Y733641D01*
X345476Y741244D02*
X344224Y741244D01*
X345476Y741244D02*
X345476Y735973D01*
X345659Y742785D02*
X346195Y743008D01*
X344895Y743549D02*
X345659Y744313D01*
X346407Y743549D02*
X346195Y743008D01*
X346407Y743549D02*
X345659Y744313D01*
X346493Y720491D02*
X347115Y718433D01*
X346579Y716350D02*
X345069Y715594D01*
X346579Y716350D02*
X347115Y718433D01*
X347437Y721279D02*
X345191Y722328D01*
X347477Y734723D02*
X345476Y735973D01*
X348413Y718419D02*
X347577Y715553D01*
X348590Y742785D02*
X347843Y743549D01*
X349586Y734381D02*
X347857Y733641D01*
X348413Y718419D02*
X348413Y718419D01*
X347437Y721279D01*
X347477Y734723D02*
X348537Y735194D01*
X348590Y742785D02*
X349136Y743003D01*
X347843Y743549D02*
X348590Y744313D01*
X348866Y736707D02*
X348537Y735194D01*
X348866Y736707D02*
X348866Y741244D01*
X349136Y743003D02*
X349356Y743549D01*
X348590Y744313D01*
X350135Y736539D02*
X349586Y734381D01*
X350135Y736539D02*
X350135Y736540D01*
X350136Y741244D01*
X348866Y741244D01*
X350754Y714724D02*
X352005Y714724D01*
X350754Y714724D02*
X350755Y719427D01*
X351301Y721589D01*
X351685Y743670D02*
X351411Y744633D01*
X351685Y743670D02*
X352526Y743855D01*
X351991Y740220D02*
X353565Y740220D01*
X351991Y740220D02*
X351991Y741244D01*
X352005Y719261D02*
X352005Y714724D01*
X352005Y719261D02*
X352341Y720774D01*
X353411Y721245D01*
X353564Y742418D02*
X352526Y743855D01*
X352645Y744877D02*
X351411Y744633D01*
X353015Y722328D02*
X351301Y721589D01*
X353411Y721245D02*
X355441Y720100D01*
X353565Y741244D02*
X353564Y742418D01*
X353565Y733820D02*
X354815Y733820D01*
X353565Y733820D02*
X353565Y740220D01*
X353565Y741244D02*
X351991Y741244D01*
X352645Y744877D02*
X354286Y744215D01*
X354815Y740219D02*
X355824Y740220D01*
X354815Y740220D02*
X354815Y733820D01*
X354815Y740219D02*
X354815Y740220D01*
X354816Y741244D02*
X354816Y742418D01*
X354286Y744215D01*
X355441Y720100D02*
X355442Y714722D01*
X356694Y714722D01*
X355503Y721078D02*
X353015Y722328D01*
X355503Y721078D02*
X355549Y721078D01*
X355658Y722144D01*
X355824Y740220D02*
X355824Y741168D01*
X354816Y741244D01*
X356694Y722144D02*
X356694Y714722D01*
X356694Y722144D02*
X356694Y722144D01*
X355658Y722144D01*
X359652Y714724D02*
X360688Y714724D01*
X359652Y714724D02*
X359652Y722146D01*
X360797Y715885D02*
X360688Y714724D01*
X360797Y715885D02*
X360843Y715885D01*
X360885Y737227D02*
X360839Y737945D01*
X360843Y715885D02*
X363284Y714542D01*
X360885Y737227D02*
X365893Y737227D01*
X360903Y722146D02*
X360902Y716875D01*
X360903Y722146D02*
X359652Y722146D01*
X363571Y733641D02*
X361131Y734403D01*
X361571Y735225D01*
X360839Y737945D02*
X361610Y740482D01*
X361938Y738128D02*
X361938Y738128D01*
X362420Y739841D01*
X363772Y740432D01*
X360902Y716875D02*
X362905Y715625D01*
X363284Y714542D02*
X365012Y715282D01*
X363420Y734647D02*
X361571Y735225D01*
X363571Y733641D02*
X366094Y734669D01*
X365172Y739829D02*
X363772Y740432D01*
X363800Y741426D02*
X361610Y740482D01*
X363964Y716097D02*
X362905Y715625D01*
X363964Y716097D02*
X364292Y717610D01*
X364292Y722144D01*
X365560Y717443D02*
X365012Y715282D01*
X363420Y734647D02*
X365155Y735347D01*
X365909Y738128D02*
X365172Y739829D01*
X365560Y722144D02*
X364292Y722144D01*
X365560Y717443D02*
X365560Y717441D01*
X365560Y722144D01*
X365155Y735347D02*
X365893Y737227D01*
X365909Y738128D02*
X361938Y738128D01*
X367129Y737517D02*
X366094Y734669D01*
X366101Y740382D02*
X363800Y741426D01*
X367129Y737517D02*
X367130Y737517D01*
X366101Y740382D01*
X368890Y733760D02*
X369606Y733641D01*
X368890Y733760D02*
X369056Y734707D01*
X369330Y734677D01*
X369606Y733641D02*
X370934Y735318D01*
X369684Y735227D02*
X369330Y734677D01*
X369684Y735227D02*
X369684Y744692D01*
X370882Y714816D02*
X372257Y714542D01*
X370934Y735318D02*
X370934Y744692D01*
X370934Y735318D02*
X370934Y735318D01*
X370934Y744692D02*
X369684Y744692D01*
X371112Y721122D02*
X373126Y721122D01*
X371112Y721122D02*
X371112Y722146D01*
X371126Y715762D02*
X370882Y714816D01*
X371126Y715762D02*
X371965Y715564D01*
X372257Y714542D02*
X373912Y715228D01*
X373126Y716998D02*
X371965Y715564D01*
X373126Y716998D02*
X373126Y721122D01*
X373126Y722146D02*
X371112Y722146D01*
X373126Y722146D02*
X373126Y724222D01*
X373902Y733822D02*
X374940Y733822D01*
X373902Y733822D02*
X373902Y741244D01*
X374376Y717014D02*
X373912Y715228D01*
X374164Y724222D02*
X373126Y724222D01*
X374164Y724222D02*
X374319Y722146D01*
X374376Y721122D02*
X374376Y717014D01*
X374376Y721122D02*
X377036Y721122D01*
X375158Y724573D02*
X374882Y725537D01*
X374940Y733822D02*
X375047Y734981D01*
X375093Y734981D01*
X377536Y733641D01*
X375152Y735973D02*
X375153Y741244D01*
X373902Y741244D01*
X375998Y724757D02*
X375158Y724573D01*
X375998Y724757D02*
X377035Y723319D01*
X376119Y725779D02*
X374882Y725537D01*
X377035Y723319D02*
X377036Y722146D01*
X377036Y714722D02*
X378288Y714722D01*
X377036Y714722D02*
X377036Y721122D01*
X377036Y722146D02*
X374319Y722146D01*
X377153Y734723D02*
X375152Y735973D01*
X377536Y733641D02*
X379264Y734381D01*
X376119Y725779D02*
X377759Y725116D01*
X377153Y734723D02*
X378214Y735194D01*
X378288Y723319D02*
X378287Y722146D01*
X378288Y721122D02*
X378288Y714722D01*
X378288Y721122D02*
X378288Y721122D01*
X378288Y723319D02*
X377759Y725116D01*
X378288Y721122D02*
X379296Y721122D01*
X378214Y735194D02*
X378542Y736707D01*
X378542Y741244D01*
X379812Y736539D02*
X379264Y734381D01*
X379296Y722071D02*
X379296Y721122D01*
X379296Y722071D02*
X378287Y722146D01*
X378542Y741244D02*
X379812Y741244D01*
X379812Y736540D01*
X379812Y736539D01*
X381302Y714722D02*
X382338Y714722D01*
X381302Y714722D02*
X381302Y719272D01*
X381910Y721493D01*
X382445Y715609D02*
X382338Y714722D01*
X382445Y715609D02*
X382491Y715609D01*
X384951Y714542D01*
X383787Y733820D02*
X382534Y733820D01*
X382534Y738527D01*
X382568Y716542D02*
X382568Y716540D01*
X382568Y718604D02*
X385160Y717913D01*
X382568Y718604D02*
X382568Y716540D01*
X382568Y719427D02*
X382874Y720714D01*
X384096Y721291D01*
X382534Y738527D02*
X383079Y740685D01*
X383787Y738358D02*
X383787Y733820D01*
X383787Y738358D02*
X384122Y739871D01*
X383882Y722326D02*
X381910Y721493D01*
X384096Y721291D02*
X386309Y720495D01*
X384122Y739871D02*
X385191Y740343D01*
X382568Y716542D02*
X384584Y715550D01*
X383079Y740685D02*
X384793Y741424D01*
X386497Y715097D02*
X384951Y714542D01*
X385898Y716740D02*
X385160Y717913D01*
X387221Y739196D02*
X385191Y740343D01*
X385898Y716740D02*
X384584Y715550D01*
X386029Y718514D02*
X382568Y719427D01*
X386309Y720495D02*
X386797Y721366D01*
X387118Y716649D02*
X386497Y715097D01*
X386797Y721366D02*
X383882Y722326D01*
X387118Y716649D02*
X387118Y716649D01*
X386029Y718514D01*
X387222Y733820D02*
X387221Y739196D01*
X387222Y733820D02*
X388472Y733820D01*
X387267Y740204D02*
X387222Y741732D01*
X387222Y744692D01*
X384793Y741424D02*
X387267Y740204D01*
X387222Y744692D02*
X388471Y744692D01*
X388472Y744692D02*
X388472Y733820D01*
X388472Y744692D02*
X388471Y744692D01*
X389370Y714722D02*
X390624Y714722D01*
X389370Y714722D02*
X389370Y719429D01*
X389917Y721588D01*
X392966Y733641D02*
X390569Y734584D01*
X390624Y719261D02*
X390624Y714722D01*
X390624Y719261D02*
X390960Y720774D01*
X391347Y739731D02*
X390706Y740555D01*
X392027Y721245D02*
X390960Y720774D01*
X390569Y734584D02*
X391121Y735425D01*
X391347Y739731D02*
X392829Y740388D01*
X391633Y722326D02*
X389917Y721588D01*
X392027Y721245D02*
X394059Y720100D01*
X394495Y739594D02*
X392829Y740388D01*
X391121Y735425D02*
X392861Y734679D01*
X390706Y740555D02*
X392875Y741426D01*
X395446Y734657D02*
X392966Y733641D01*
X394059Y720100D02*
X394059Y714722D01*
X395312Y714722D01*
X394105Y721106D02*
X394062Y722634D01*
X394062Y725595D01*
X391633Y722326D02*
X394105Y721106D01*
X395151Y737517D02*
X394495Y739594D01*
X394515Y735462D02*
X392861Y734679D01*
X394515Y735462D02*
X395151Y737517D01*
X395312Y725595D02*
X395312Y714722D01*
X395312Y725595D02*
X395312Y725595D01*
X394062Y725595D01*
X395377Y740405D02*
X392875Y741426D01*
X396449Y737517D02*
X395446Y734657D01*
X396449Y737517D02*
X395377Y740405D01*
X397409Y715486D02*
X399806Y714542D01*
X398185Y720634D02*
X397546Y721455D01*
X397957Y716328D02*
X397409Y715486D01*
X398801Y734295D02*
X398100Y735854D01*
X399666Y721291D02*
X398185Y720634D01*
X398957Y739793D02*
X398360Y740587D01*
X398801Y734295D02*
X400818Y733641D01*
X398100Y735854D02*
X398829Y737353D01*
X398957Y739793D02*
X400652Y740448D01*
X401003Y737179D02*
X399306Y735776D01*
X399666Y721291D02*
X401331Y720496D01*
X399699Y715579D02*
X397957Y716328D01*
X397546Y721455D02*
X399713Y722328D01*
X402285Y715558D02*
X399806Y714542D01*
X398829Y737353D02*
X400362Y738098D01*
X402009Y739378D02*
X400652Y740448D01*
X400665Y741424D02*
X398360Y740587D01*
X399306Y735776D02*
X400771Y734618D01*
X400818Y733641D02*
X403582Y734661D01*
X402504Y737924D02*
X401003Y737179D01*
X401331Y720496D02*
X401987Y718419D01*
X401353Y716364D02*
X399699Y715579D01*
X401353Y716364D02*
X401987Y718419D01*
X400362Y738098D02*
X402009Y739378D01*
X399713Y722328D02*
X402217Y721308D01*
X403287Y718419D02*
X402285Y715558D01*
X402504Y737924D02*
X403217Y739319D01*
X402543Y740818D02*
X400665Y741424D01*
X402957Y735503D02*
X400771Y734618D01*
X403217Y739319D02*
X402543Y740818D01*
X402217Y721308D02*
X403287Y718419D01*
X403582Y734661D02*
X403584Y734661D01*
X402957Y735503D01*
X404879Y716754D02*
X405579Y715196D01*
X405734Y720693D02*
X405140Y721491D01*
X405545Y733820D02*
X406795Y733820D01*
X405545Y733820D02*
X405545Y738527D01*
X405579Y715196D02*
X407597Y714542D01*
X404879Y716754D02*
X405608Y718256D01*
X405734Y720693D02*
X407428Y721350D01*
X407780Y718084D02*
X406085Y716679D01*
X405545Y738527D02*
X406091Y740685D01*
X406795Y738358D02*
X406795Y733820D01*
X406795Y738358D02*
X407131Y739871D01*
X408200Y740343D01*
X407139Y719001D02*
X405608Y718256D01*
X407428Y721350D02*
X408786Y720280D01*
X407442Y722326D02*
X405140Y721491D01*
X406085Y716679D02*
X407550Y715520D01*
X407597Y714542D02*
X410361Y715564D01*
X409281Y718826D02*
X407780Y718084D01*
X406091Y740685D02*
X407803Y741424D01*
X408200Y740343D02*
X410232Y739196D01*
X408786Y720280D02*
X407139Y719001D01*
X409281Y718826D02*
X409994Y720223D01*
X409320Y721721D02*
X407442Y722326D01*
X409736Y716405D02*
X407550Y715520D01*
X409994Y720223D02*
X409320Y721721D01*
X410232Y733820D02*
X410232Y739196D01*
X410232Y733820D02*
X411483Y733820D01*
X410278Y740204D02*
X410232Y741732D01*
X410232Y744692D01*
X407803Y741424D02*
X410278Y740204D01*
X409736Y716405D02*
X410361Y715566D01*
X410361Y715564D01*
X411425Y714816D02*
X412800Y714542D01*
X411482Y744692D02*
X410232Y744692D01*
X411483Y744692D02*
X411483Y733820D01*
X411483Y744692D02*
X411482Y744692D01*
X411653Y721122D02*
X413653Y721122D01*
X411653Y721122D02*
X411653Y722146D01*
X411667Y715762D02*
X411425Y714816D01*
X411667Y715762D02*
X412508Y715564D01*
X412800Y714542D02*
X414456Y715228D01*
X415977Y733641D02*
X413580Y734584D01*
X413653Y716998D02*
X412508Y715564D01*
X413653Y716998D02*
X413653Y721122D01*
X413653Y722146D02*
X411653Y722146D01*
X413653Y722146D02*
X413653Y724224D01*
X414360Y739731D02*
X413717Y740555D01*
X414129Y735425D02*
X413580Y734584D01*
X414360Y739731D02*
X415840Y740388D01*
X414921Y717014D02*
X414456Y715228D01*
X414709Y724224D02*
X413653Y724224D01*
X414709Y724224D02*
X414862Y722146D01*
X414921Y717014D02*
X414921Y717014D01*
X414921Y721122D02*
X416021Y721122D01*
X414921Y721122D02*
X414921Y717014D01*
X417505Y739594D02*
X415840Y740388D01*
X414129Y735425D02*
X415870Y734679D01*
X413717Y740555D02*
X415888Y741426D01*
X418457Y734657D02*
X415977Y733641D01*
X416021Y722071D02*
X416021Y721122D01*
X416021Y722071D02*
X414862Y722146D01*
X416828Y722176D02*
X417074Y721078D01*
X417790Y721199D01*
X418162Y737517D02*
X417505Y739594D01*
X417525Y735462D02*
X415870Y734679D01*
X417622Y722329D02*
X416828Y722176D01*
X417790Y721199D02*
X419671Y719489D01*
X417525Y735462D02*
X418162Y737517D01*
X418389Y740405D02*
X415888Y741426D01*
X419459Y737517D02*
X418457Y734657D01*
X419459Y737517D02*
X418389Y740405D01*
X419671Y719489D02*
X419672Y714722D01*
X420922Y714722D01*
X419731Y720801D02*
X417622Y722329D01*
X419731Y720801D02*
X419777Y720800D01*
X419884Y722146D01*
X420922Y722144D02*
X420922Y714722D01*
X420922Y722144D02*
X420922Y722146D01*
X419884Y722146D01*
X422362Y734657D02*
X421325Y737517D01*
X422362Y734657D02*
X424762Y733641D01*
X421325Y737517D02*
X422362Y740405D01*
X423212Y739594D02*
X422624Y737517D01*
X423212Y735462D01*
X423212Y739594D02*
X424762Y740388D01*
X423629Y724481D02*
X424498Y723672D01*
X423888Y714724D02*
X425139Y714724D01*
X423888Y714724D02*
X423888Y722146D01*
X424498Y723672D02*
X425369Y724481D01*
X424498Y725293D02*
X423629Y724481D01*
X424762Y733641D02*
X427161Y734657D01*
X424762Y734679D02*
X423212Y735462D01*
X426306Y739594D02*
X424762Y740388D01*
X424762Y741426D02*
X422362Y740405D01*
X423888Y722146D02*
X425137Y722146D01*
X425139Y722146D02*
X425139Y714724D01*
X425139Y722146D02*
X425137Y722146D01*
X425367Y724481D02*
X424498Y725293D01*
X425367Y724481D02*
X425369Y724481D01*
X424762Y734679D02*
X426306Y735462D01*
X426899Y737517D02*
X426306Y739594D01*
X426899Y737517D02*
X426306Y735462D01*
X427161Y734657D02*
X428197Y737517D01*
X427161Y740405D02*
X424762Y741426D01*
X427236Y724739D02*
X429314Y714722D01*
X428197Y737517D02*
X427161Y740405D01*
X427236Y724739D02*
X428457Y724739D01*
X429314Y714722D02*
X430842Y714722D01*
X429512Y719288D02*
X428457Y724739D01*
X429512Y719288D02*
X430078Y716054D01*
X430139Y716054D01*
X430293Y733820D02*
X431574Y733820D01*
X430293Y733820D02*
X430293Y743839D01*
X432354Y720755D02*
X430842Y714722D01*
X430139Y716054D02*
X430873Y719288D01*
X431574Y733820D02*
X431574Y738543D01*
X436232Y738543D01*
X431574Y739640D02*
X431574Y743839D01*
X430293Y743839D01*
X432261Y724739D02*
X430873Y719288D01*
X432354Y720755D02*
X432842Y723031D01*
X432902Y723031D01*
X433408Y720755D01*
X434888Y714722D01*
X433421Y724739D02*
X432261Y724739D01*
X433421Y724739D02*
X434810Y719288D01*
X434888Y714722D02*
X436400Y714722D01*
X435515Y716054D02*
X434810Y719288D01*
X435515Y716054D02*
X435575Y716054D01*
X436158Y719288D01*
X436232Y733820D02*
X437499Y733820D01*
X436232Y733820D02*
X436232Y738543D01*
X436232Y739640D02*
X431574Y739640D01*
X436232Y739640D02*
X436232Y743839D01*
X438523Y724739D02*
X436400Y714722D01*
X436158Y719288D02*
X437210Y724739D01*
X437499Y733820D02*
X437499Y743841D01*
X437499Y743839D01*
X436232Y743839D01*
X438523Y724739D02*
X438524Y724739D01*
X437210Y724739D01*
X461858Y714722D02*
X477000Y739904D01*
X476276Y763447D02*
X465305Y763447D01*
X461858Y714722D02*
X473887Y714722D01*
X486232Y743875D02*
X476276Y763447D01*
X465305Y763447D02*
X477000Y739904D01*
X486150Y734893D02*
X473887Y714722D01*
X486232Y743875D02*
X491371Y743875D01*
X491371Y763445D01*
X502434Y763445D01*
X491373Y734893D02*
X491373Y714722D01*
X491373Y734893D02*
X486150Y734893D01*
X502436Y714722D02*
X502434Y714720D01*
X502434Y763445D01*
X502436Y714722D02*
X491373Y714722D01*
X509907Y763447D02*
X520444Y763447D01*
X509907Y763447D02*
X518575Y714722D01*
X523806Y740654D02*
X520444Y763447D01*
X523806Y740654D02*
X525824Y725261D01*
X526124Y725261D01*
X529039Y740654D01*
X534267Y763445D01*
X532398Y714722D02*
X518575Y714722D01*
X534267Y763445D02*
X543610Y763445D01*
X537180Y736842D02*
X532398Y714722D01*
X537180Y736842D02*
X539125Y748127D01*
X539425Y748127D01*
X541443Y736842D01*
X548838Y740654D02*
X543610Y763445D01*
X541443Y736842D02*
X546001Y714722D01*
X551753Y725261D02*
X548838Y740654D01*
X551753Y725261D02*
X552054Y725261D01*
X553996Y740654D01*
X557358Y763445D01*
X568643Y763445D01*
X559602Y714722D02*
X546001Y714722D01*
X559602Y714720D02*
X559602Y714722D01*
X559602Y714720D02*
X568643Y763445D01*
X574064Y754182D02*
X587439Y754182D01*
X574064Y754182D02*
X574064Y763445D01*
X587439Y714722D02*
X598500Y714722D01*
X587439Y714722D02*
X587439Y754182D01*
X598500Y754182D02*
X598500Y714722D01*
X598500Y754182D02*
X611874Y754182D01*
X611874Y763445D01*
X574064Y763445D01*
X618107Y763447D02*
X618107Y714722D01*
X618107Y763447D02*
X629166Y763447D01*
X629166Y714722D02*
X618107Y714722D01*
X629166Y714722D02*
X629166Y714722D01*
X629166Y763447D01*
X632694Y742267D02*
X632694Y737525D01*
X632694Y742267D02*
X645706Y742267D01*
X645705Y737525D02*
X632694Y737525D01*
X645705Y737525D02*
X645706Y737525D01*
X645706Y742267D01*
X649236Y763445D02*
X649236Y714722D01*
X649236Y763445D02*
X660295Y763445D01*
X660294Y714722D02*
X649236Y714722D01*
X660294Y714722D02*
X660295Y714722D01*
X660295Y763445D01*
X660400Y763703D02*
X660400Y711200D01*
X660400Y763703D02*
X243176Y763703D01*
D12*
X758410Y847940D02*
X765410Y847940D01*
X765410Y604940D01*
X758410Y604940D01*
X731410Y604940D02*
X715410Y604940D01*
X715410Y625440D01*
X715410Y827440D02*
X715410Y847940D01*
X731410Y847940D01*
D13*
X700410Y823940D02*
X700408Y823984D01*
X700402Y824027D01*
X700393Y824069D01*
X700380Y824111D01*
X700363Y824151D01*
X700343Y824190D01*
X700320Y824227D01*
X700293Y824261D01*
X700264Y824294D01*
X700231Y824323D01*
X700197Y824350D01*
X700160Y824373D01*
X700121Y824393D01*
X700081Y824410D01*
X700039Y824423D01*
X699997Y824432D01*
X699954Y824438D01*
X699910Y824440D01*
X699866Y824438D01*
X699823Y824432D01*
X699781Y824423D01*
X699739Y824410D01*
X699699Y824393D01*
X699660Y824373D01*
X699623Y824350D01*
X699589Y824323D01*
X699556Y824294D01*
X699527Y824261D01*
X699500Y824227D01*
X699477Y824190D01*
X699457Y824151D01*
X699440Y824111D01*
X699427Y824069D01*
X699418Y824027D01*
X699412Y823984D01*
X699410Y823940D01*
X699412Y823896D01*
X699418Y823853D01*
X699427Y823811D01*
X699440Y823769D01*
X699457Y823729D01*
X699477Y823690D01*
X699500Y823653D01*
X699527Y823619D01*
X699556Y823586D01*
X699589Y823557D01*
X699623Y823530D01*
X699660Y823507D01*
X699699Y823487D01*
X699739Y823470D01*
X699781Y823457D01*
X699823Y823448D01*
X699866Y823442D01*
X699910Y823440D01*
X699954Y823442D01*
X699997Y823448D01*
X700039Y823457D01*
X700081Y823470D01*
X700121Y823487D01*
X700160Y823507D01*
X700197Y823530D01*
X700231Y823557D01*
X700264Y823586D01*
X700293Y823619D01*
X700320Y823653D01*
X700343Y823690D01*
X700363Y823729D01*
X700380Y823769D01*
X700393Y823811D01*
X700402Y823853D01*
X700408Y823896D01*
X700410Y823940D01*
M02*
